<?xml version="1.0" encoding="utf-8"?>
<!-- Generator: Adobe Illustrator 16.0.0, SVG Export Plug-In . SVG Version: 6.00 Build 0)  -->
<!DOCTYPE svg PUBLIC "-//W3C//DTD SVG 1.1//EN" "http://www.w3.org/Graphics/SVG/1.1/DTD/svg11.dtd">
<svg version="1.1" id="Capa_1" xmlns="http://www.w3.org/2000/svg" xmlns:xlink="http://www.w3.org/1999/xlink" x="0px" y="0px"
	 width="256px" height="384px" viewBox="0 0 256 384" enable-background="new 0 0 256 384" xml:space="preserve">
<polygon fill="#FFFFFF" points="254.945,175.079 254.945,383.311 -0.904,383.311 -0.904,208.744 "/>
<g>
	<defs>
		<polygon id="SVGID_1_" points="-0.904,209.668 -0.904,384.235 255.498,384.235 255.498,176.001 		"/>
	</defs>
	<clipPath id="SVGID_2_">
		<use xlink:href="#SVGID_1_"  overflow="visible"/>
	</clipPath>
	<path clip-path="url(#SVGID_2_)" fill="#402014" d="M126.424,14.975l-0.004,0.646c0.272-0.116,0.56-0.22,0.842-0.322
		C126.992,15.191,126.706,15.085,126.424,14.975"/>
	<path clip-path="url(#SVGID_2_)" fill="#402014" d="M128.112,14.988c-0.285,0.105-0.573,0.207-0.845,0.312
		c0.284,0.104,0.566,0.214,0.839,0.334L128.112,14.988z"/>
	<path clip-path="url(#SVGID_2_)" fill="#402014" d="M-53.397,124.095c-0.021,3.3,0.336,6.501,0.948,9.605
		c0.489,5.562,1.865,11.131,4.62,16.149c4.539,8.393,12.006,14.407,19.926,17.723c1.223,0.499,2.479,0.837,3.726,1.225
		c3.846,16.674,10.967,27.516,10.967,27.516c-9.508,7.808-11.092,18.691-11.092,18.691c-2.595,18.955,10.971,27.738,10.971,27.738
		c-12.193,22.51-10.955,58.807-10.574,66.123c0.047,0.875,0.499,1.658,1.214,2.069c2.958,1.716,7.209,2.503,9.903,2.836
		c0.606,0.087,0.801,0.866,0.353,1.301c-5.259,4.964-10.723,25.952-11.854,30.698c-4.295,17.929-8.628,43.192-7.728,66.868
		c-0.312,0.357-0.673,0.662-0.967,1.035l-0.022,0.025c-0.125,0.158-0.121,0.394,0.018,0.546c0.137,0.154,0.356,0.144,0.51,0.013
		c-5.564,6.735-9.078,15.45-9.145,25.127c-0.013,1.738,0.248,3.402,0.445,5.082c-0.148,6.708,1.517,13.874,5.328,19.728
		c4.443,6.961,11.171,11.632,18.123,14.022c7.025,2.333,14.404,2.622,21.491,1.114c2.23-0.485,4.422-1.232,6.584-2.104
		c0.355,0.065,0.646,0.201,1.007,0.259c22.405,3.588,46-4.867,65.38-16.021l-0.475,0.339c2.43,4.124,5.422,7.751,8.712,10.924
		c8.921,8.623,19.825,13.479,31.107,15.05c0.014,0,0.025,0.002,0.036,0.002c2.632,0.366,5.263,0.611,7.92,0.596
		c2.655,0.057,5.286-0.146,7.922-0.472c0.011-0.003,0.023,0,0.036-0.003c11.304-1.395,22.271-6.083,31.31-14.563
		c3.331-3.122,6.377-6.699,8.863-10.789l-0.485-0.354c19.229,11.462,42.712,20.284,65.173,17.048
		c0.989-0.144,1.805-0.474,2.752-0.663c1.317,0.454,2.639,0.898,3.979,1.215c7.063,1.624,14.438,1.432,21.502-0.772
		c6.988-2.271,13.78-6.843,18.318-13.734c2.522-3.752,4.116-8.087,4.97-12.496c0.979-3.452,1.675-7.034,1.698-10.826
		c0.067-9.811-3.41-18.697-9.015-25.552c0.019-0.361,0.025-0.726,0.045-1.088c0.028-0.018,0.061,0.025,0.088,0.003
		c0.163-0.145,0.189-0.401,0.056-0.58l-0.021-0.025c-0.031-0.042-0.07-0.071-0.104-0.115c1.148-23.522-2.801-48.639-6.824-66.514
		c-1.066-4.763-6.244-25.834-11.435-30.879c-0.443-0.44-0.236-1.219,0.369-1.296c2.698-0.29,6.962-1.011,9.944-2.682
		c0.72-0.4,1.183-1.176,1.238-2.052c0.483-7.307,2.216-43.582-9.673-66.279c0,0,13.688-8.572,11.354-27.562
		c0,0-1.435-10.907-10.833-18.864c0,0,6.102-9.086,10.262-23.403c3.125-0.52,6.227-1.255,9.254-2.427
		c7.965-3.181,15.514-9.087,20.168-17.406c4.719-8.312,5.943-18.216,4.808-27.085c-0.498-3.521-1.649-6.827-3.064-9.982
		c-1.452-8.19-5.068-15.511-10.081-21.484c0.022-0.121,0.105-0.237,0.025-0.338l-0.021-0.026c-2.377-3.019-5.206-5.691-8.342-7.94
		c-3.162-2.193-6.632-3.918-10.265-5.192c-0.782-0.273-1.598-0.436-2.392-0.665c-0.925-2.899-2.012-5.744-3.268-8.514
		c-5.484-12.061-14.904-24.797-30.91-29.527c0,0-29.188-13.199-89.183-13.41c-7.166-6.558-15.297-11.924-24.145-15.44
		c-0.274-0.12-0.557-0.23-0.842-0.335c-0.285,0.102-0.571,0.205-0.845,0.322c-8.894,3.379-17.097,8.618-24.353,15.063
		c-59.985-0.72-89.351,12.021-89.351,12.021c-16.071,4.48-25.663,17.068-31.312,29.043c-1.087,2.305-1.989,4.686-2.84,7.089
		c-3.091,1.157-6.078,2.583-8.818,4.418c-2.089,1.455-3.98,3.156-5.764,4.959C-46.417,96.334-53.295,109.295-53.397,124.095
		 M173.851,62.306c-0.029,0.162,0.033,0.321,0.014,0.485c-0.046-0.116-0.104-0.225-0.151-0.339
		C173.76,62.402,173.808,62.354,173.851,62.306 M176.368,70.383c1.28,1.454,2.844,2.618,4.701,2.934
		c4.626,0.786,9.49-3.109,10.073-8.069c0.153,3.38,0.314,6.791,1.182,10.044c0.865,3.254,2.518,6.377,5.122,8.306
		c3.503,2.598,8.237,2.644,12.291,1.224c4.055-1.417,7.588-4.123,11.042-6.784c-5.492,2.959-9.336,9.138-9.759,15.688
		c-0.301,4.663,1.202,9.349,3.887,13.037c-1.834-1.737-3.773-3.332-5.947-4.532c-3.732-2.055-8.095-3.048-12.203-2.098
		c-4.027,0.935-7.638,3.758-9.678,7.576c-1.312,2.45-1.884,5.283-1.841,8.102c-0.802-3.684-2.321-7.179-4.732-9.93
		c-0.084-0.093-0.192-0.156-0.277-0.247c0.365-9.304-0.196-15.802-0.196-15.802H180C179.576,83.209,178.216,76.716,176.368,70.383
		 M73.485,89.002c0,0-0.668,6.712-0.399,16.275c-2.345,2.679-3.87,6.047-4.701,9.625c0.083-2.819-0.451-5.661-1.729-8.13
		c-1.988-3.85-5.56-6.73-9.576-7.725c-4.092-1.014-8.468-0.093-12.231,1.907c-2.19,1.167-4.153,2.732-6.009,4.441
		c2.736-3.644,4.304-8.309,4.067-12.978c-0.333-6.557-4.094-12.793-9.546-15.84c3.422,2.717,6.917,5.478,10.95,6.956
		c4.033,1.483,8.77,1.513,12.308-1.03c2.627-1.89,4.323-4.986,5.234-8.227c0.913-3.239,1.12-6.646,1.318-10.025
		c0.517,4.968,5.324,8.939,9.964,8.227c1.555-0.242,2.894-1.111,4.081-2.191c-1.818,6.097-3.204,12.339-3.7,18.716L73.485,89.002z
		 M143.79,441.888c0,0-0.092,0.224-0.161,0.398l-0.552-0.405c0,0-4.879,13.995-18.82,13.651
		c-13.945,0.129-18.632-13.942-18.632-13.942l-0.557,0.394c-0.068-0.174-0.155-0.398-0.155-0.398l-1.676,1.184
		c3.751-3.216,7.005-6.275,9.5-8.924c6.021-6.398,11.71-5.733,11.71-5.733s5.692-0.576,11.628,5.914
		c2.463,2.692,5.681,5.808,9.396,9.084L143.79,441.888z"/>
	<path clip-path="url(#SVGID_2_)" fill="#C73C1E" d="M177.23,99.64c0,0,0.923,10.35-0.304,23.737c0,0-24.345,11.848-37.675,0.311
		c-13.329-11.53-16.136-16.17-16.136-16.17l-0.094-6.938L177.23,99.64z"/>
	<path clip-path="url(#SVGID_2_)" fill="#C73C1E" d="M70.684,98.811c0,0-1.064,10.334-0.021,23.739c0,0,24.182,12.226,37.666,0.899
		c13.486-11.323,16.354-15.919,16.354-15.919l0.191-6.935L70.684,98.811z"/>
	<path clip-path="url(#SVGID_2_)" fill="#ED713F" d="M-27.105,224.813c-2.594,18.956,10.972,27.737,10.972,27.737
		c-12.194,22.51-10.958,58.807-10.575,66.123c0.047,0.875,0.498,1.658,1.212,2.069c2.959,1.716,7.211,2.503,9.905,2.836
		c0.606,0.086,0.802,0.867,0.352,1.301c-5.258,4.965-10.722,25.953-11.855,30.698C-37.059,397.19-47.4,478.355,8.552,487.293
		c40.66,6.514,85.314-26.574,101.385-43.641c6.019-6.399,11.708-5.732,11.708-5.732s5.695-0.577,11.63,5.912
		c15.834,17.313,60.031,51.092,100.777,45.217c56.066-8.068,46.836-89.385,37.441-131.147c-1.067-4.764-6.243-25.835-11.433-30.88
		c-0.444-0.44-0.238-1.218,0.368-1.295c2.698-0.292,6.961-1.01,9.943-2.683c0.718-0.397,1.18-1.175,1.24-2.052
		c0.481-7.307,2.216-43.581-9.675-66.278c0,0,13.685-8.573,11.354-27.562c0,0-1.436-10.909-10.837-18.865
		c0,0,13.852-20.175,14.045-48.326l0.277-40.813c0.084-12.2-2.247-24.34-7.237-35.325c-5.482-12.061-14.902-24.796-30.908-29.527
		c0,0-30.277-13.762-92.714-13.439l-22.939-0.787l-0.005,0.608L102.8,40.523C40.375,39.229,9.913,52.517,9.913,52.517
		c-16.069,4.48-25.661,17.069-31.309,29.043c-5.139,10.905-7.635,23.008-7.719,35.208l-0.278,40.813
		c-0.193,28.152,13.38,48.538,13.38,48.538C-25.521,213.93-27.105,224.813-27.105,224.813 M26.663,89.817
		c5.01-8.651,13.575-14.499,22.704-17.428c9.128-2.939,18.833-3.18,28.345-2.538c15.142,1.031,31.381,4.772,45.697,10.114
		l0.005-0.872c14.269-4.957,32.307-7.738,47.189-8.519c9.521-0.497,19.221-0.102,28.308,2.978c9.086,3.07,17.572,9.05,22.465,17.78
		c4.904,8.737,5.674,20.363,0.655,29.015c-3.434,5.917-9.151,9.979-15.21,12.558c-13.295,5.667-28.458,4.81-42.052,0.043
		c-13.606-4.768-25.814-13.194-37.161-22.498l-5.227-3.266l0.005,1.362l-2.23,1.845c-11.471,9.126-23.803,17.363-37.459,21.919
		c-13.661,4.554-28.835,5.175-42.05-0.697c-6.022-2.673-11.686-6.826-15.038-12.795C20.708,110.09,21.64,98.476,26.663,89.817"/>
	<path clip-path="url(#SVGID_2_)" fill="#C25918" d="M73.457,471.608l28.654-20.215c0,0,4.859,14.314,19.059,13.973
		c14.179,0.562,19.105-13.677,19.105-13.677l28.386,20.66c-3.037,4.986-7.005,9.223-11.377,12.793
		c-22.434,18.333-54.168,17.636-75.115-2.606C78.881,479.361,75.887,475.735,73.457,471.608"/>
	<path clip-path="url(#SVGID_2_)" fill="#E24A2C" d="M127.38,367.682c8.191,19.008,21.974,35.214,38.903,45.765
		c16.929,10.549,36.93,15.392,56.47,13.672c-2.529,8.428-4.527,17.13-4.703,25.977c-0.177,8.848,1.567,17.905,6.046,25.357
		c-17.665-3.855-35.063-9.805-50.679-19.413c-15.616-9.606-29.422-23.02-38.306-39.754
		C126.223,402.552,123.306,386.42,127.38,367.682"/>
	<path clip-path="url(#SVGID_2_)" fill="#C73C1E" d="M221.484,361.709c-4.906,0.593-9.933-1.917-13.277-5.985
		c-1.657-2.066-2.907-4.544-3.61-7.253c-0.673-2.738-0.691-5.598-0.229-8.367c0.999-5.543,3.967-10.573,8.193-14.114
		c4.286-3.591,9.724-5.312,15.075-5.379c5.357-0.031,10.714,1.605,15.335,4.502c4.635,2.857,8.522,6.849,11.616,11.328
		c6.278,9.08,9.109,19.969,10.506,30.379c1.385,10.349,1.754,21.871-2.789,32.921c-2.235,5.473-5.82,10.448-10.053,14.245
		c-4.236,3.848-9.097,6.672-14.169,8.62c-5.061,1.967-10.458,2.939-15.766,3.121c-5.281,0.185-10.494-0.383-15.517-1.418
		c-10.084-2.116-19.306-5.906-28.219-10.137c-8.91-4.385-17.647-9.674-25.552-16.452c-7.893-6.739-14.97-15.03-19.935-24.766
		c-4.988-9.672-7.984-20.898-7.572-32.295c0.298-11.287,4.029-22.579,11.035-31.348c6.985-8.778,17.313-14.505,28.227-14.697
		c10.988-0.244,21.776,6.129,26.88,16.461c5.156,10.561,2.47,23.938-5.643,31.121c-4.031,3.527-9.5,5.462-14.685,4.052
		c-5.18-1.385-8.959-7.164-7.681-12.471c0.043-0.218,0.242-0.354,0.442-0.305c0.192,0.044,0.316,0.256,0.288,0.46
		c-0.863,4.819,2.862,9.68,7.308,10.528c4.509,0.983,9.306-0.937,12.688-4.21c6.874-6.665,8.596-18.587,3.875-27.126
		c-4.598-8.626-14.033-13.869-23.28-13.339c-9.302,0.431-18.165,5.661-23.943,13.392c-5.829,7.757-8.865,17.715-9.021,27.64
		c-0.218,9.958,2.537,19.84,7.16,28.48c4.608,8.681,10.998,16.222,18.35,22.387c7.345,6.214,15.584,11.148,24.135,15.282
		c8.557,4.118,17.369,7.795,26.552,9.771c9.133,1.974,18.771,2.079,27.599-1.197c8.77-3.13,16.749-9.61,20.586-18.692
		c3.876-9.074,3.983-19.453,2.953-29.329c-1.033-9.904-3.403-19.893-8.753-28.107c-5.181-8.185-13.673-14.383-23.078-14.608
		c-4.613-0.173-9.334,1.096-13.099,3.961c-3.755,2.853-6.577,7.145-7.653,11.935c-0.506,2.392-0.604,4.904-0.118,7.298
		c0.503,2.387,1.521,4.651,2.919,6.606c2.802,3.877,7.253,6.541,11.883,6.314c0.204-0.008,0.377,0.157,0.389,0.376
		c0.008,0.209-0.14,0.39-0.327,0.416H221.484z"/>
	<path clip-path="url(#SVGID_2_)" fill="#E24A2C" d="M128.421,122.659c12.826,11.73,32.45,21.761,49.194,24.173
		c16.737,2.416,34.476-1.492,48.14-12.091c3.438,15.078,12.009,28.76,23.752,37.917c-15.761,5.477-32.212,9.248-48.79,8.91
		c-16.574-0.339-33.33-4.984-46.897-15.152C140.253,156.253,130.183,140.248,128.421,122.659"/>
	<path clip-path="url(#SVGID_2_)" fill="#F6AB77" d="M154.954,121.736c0.127-5.327,4.313-10.022,9.206-11.087
		c4.895-1.07,10.132,1.149,13.542,5.039c3.415,3.894,5.123,9.252,5.392,14.577c-1.301-4.176-0.859-8.932,1.184-12.749
		c2.042-3.818,5.65-6.641,9.68-7.575c4.104-0.951,8.469,0.04,12.202,2.097c3.731,2.061,6.899,5.132,9.717,8.461
		c-5.065-3.733-8.079-10.417-7.658-16.966c0.424-6.55,4.271-12.729,9.76-15.689c-3.454,2.663-6.987,5.368-11.042,6.783
		c-4.053,1.422-8.788,1.377-12.29-1.221c-2.604-1.93-4.255-5.053-5.122-8.306c-0.869-3.254-1.027-6.665-1.182-10.045
		c-0.585,4.959-5.446,8.856-10.073,8.069c-4.627-0.789-8.111-6.106-7.218-11.012c-2.057,2.336-4.171,4.722-6.854,6.16
		c-2.681,1.44-6.098,1.763-8.595-0.018c-2.493-1.786-3.387-6.031-1.277-8.311c2.071-2.232,4.299-1.07,6.729-0.845
		c1.383,0.125,3.06-0.348,4.457-0.46c1.596-0.132,3.191-0.237,4.789-0.32c10.174-0.535,20.539-0.107,30.252,3.18
		c9.709,3.281,18.776,9.671,24.006,18.997c5.232,9.328,6.059,21.752,0.699,30.997c-3.669,6.325-9.783,10.665-16.256,13.422
		c-14.196,6.051-30.413,5.142-44.939,0.05c-14.525-5.092-30.862-16.934-42.987-26.871l0.038-5.5c0.019-2.874-0.471-5.82,0.643-8.517
		c0.51-1.24,1.376-2.371,2.553-2.872c1.466-0.62,3.158-0.167,4.524,0.663c3.229,1.963,5.091,5.856,5.673,9.772
		c0.582,3.917,0.063,7.909-0.458,11.835c0.268-4.906,3.87-9.382,8.375-10.407c4.505-1.025,9.506,1.488,11.626,5.85
		c1.861,3.817,1.538,8.393,0.942,12.647"/>
	<path clip-path="url(#SVGID_2_)" fill="#F6AB77" d="M93.116,121.254c-0.054-5.327-4.174-10.087-9.052-11.23
		c-4.88-1.146-10.146,0.993-13.61,4.83c-3.468,3.84-5.249,9.171-5.589,14.49c1.356-4.156,0.981-8.917-1.011-12.766
		c-1.988-3.848-5.56-6.729-9.574-7.724c-4.092-1.014-8.467-0.091-12.229,1.907c-3.761,2.002-6.969,5.025-9.831,8.309
		c5.111-3.654,8.221-10.291,7.887-16.845c-0.332-6.554-4.094-12.792-9.547-15.84c3.423,2.716,6.917,5.478,10.952,6.956
		c4.033,1.483,8.769,1.512,12.307-1.03c2.626-1.89,4.324-4.986,5.234-8.225c0.913-3.241,1.12-6.649,1.319-10.025
		c0.517,4.968,5.325,8.939,9.961,8.225c4.633-0.717,8.194-5.978,7.369-10.898c2.024,2.369,4.104,4.787,6.767,6.266
		c2.663,1.482,6.073,1.856,8.595,0.114c2.518-1.745,3.468-5.975,1.39-8.288c-2.042-2.266-4.282-1.137-6.72-0.951
		c-1.379,0.104-3.051-0.397-4.445-0.528c-1.595-0.157-3.19-0.288-4.789-0.397c-10.162-0.692-20.533-0.425-30.289,2.709
		c-9.751,3.131-18.907,9.379-24.262,18.624c-5.361,9.243-6.355,21.655-1.122,30.98c3.581,6.382,9.636,10.817,16.07,13.674
		c14.112,6.271,30.339,5.614,44.933,0.749c14.593-4.864,31.093-16.45,43.351-26.197l0.039-5.5c0.019-2.875,0.549-5.814-0.527-8.525
		c-0.494-1.249-1.345-2.395-2.518-2.912c-1.453-0.643-3.152-0.217-4.532,0.593c-3.253,1.914-5.17,5.777-5.807,9.683
		c-0.635,3.907-0.169,7.907,0.3,11.841c-0.2-4.912-3.744-9.441-8.232-10.537c-4.489-1.095-9.526,1.341-11.709,5.667
		c-1.91,3.791-1.653,8.368-1.11,12.632"/>
	<path clip-path="url(#SVGID_2_)" fill="#E24A2C" d="M70.694,98.954c1.293-16.983,7.468-33.506,17.51-46.766
		c9.203-12.159,21.619-21.514,35.415-26.754c0.274-0.117,0.558-0.222,0.844-0.323c0.286,0.105,0.57,0.215,0.843,0.335
		c13.723,5.456,26.009,15.002,35.045,27.303c9.86,13.414,15.809,30.031,16.869,47.033c-16.734,0.265-35.56,0.515-52.428,0.769
		c-0.288,0.011-0.573,0.01-0.845,0.007c-0.269-0.001-0.554-0.005-0.842-0.021C106.244,100.021,87.421,99.479,70.694,98.954"/>
	<path clip-path="url(#SVGID_2_)" fill="#D84B14" d="M123.105,100.574v-0.042c0.284,0.018,0.571,0.02,0.842,0.022
		C123.662,100.567,123.38,100.565,123.105,100.574"/>
	<path clip-path="url(#SVGID_2_)" fill="#D84B14" d="M124.463,25.108c-0.286,0.101-0.573,0.206-0.844,0.323l0.004-0.647
		C123.906,24.894,124.189,24.999,124.463,25.108"/>
	<path clip-path="url(#SVGID_2_)" fill="#E24A2C" d="M232.859,93.38c5.104-5.894,12.171-10.869,18.818-14.624
		c-5.269-7.496-12.625-13.121-20.575-17.104c-7.947-3.984-16.502-6.415-25.096-8.339c-12.427-2.795-25.611-4.535-37.625-0.142
		c12.578,2.886,25.167,6.375,36.636,12.612C216.482,72.018,226.853,81.236,232.859,93.38"/>
	<path clip-path="url(#SVGID_2_)" fill="#FFF8F5" d="M172.116,209.218c24.522,4.408,48.327,15.885,65.658,34.913
		c17.327,19.025,27.58,45.977,24.813,72.343c-0.079,0.753-0.198,1.574-0.732,2.083c-0.696,0.657-1.761,0.487-2.674,0.281
		c-22.017-5.069-44.738-10.464-63.002-24.53c-19.35-14.903-31.827-38.49-37.464-63.232"/>
	<path clip-path="url(#SVGID_2_)" fill="#D84B14" d="M214.407,287.897c13.152,0.101,23.892-11.191,23.987-25.219
		c0.096-14.034-10.487-25.491-23.64-25.593c-13.149-0.104-23.887,11.191-23.983,25.222
		C190.678,276.335,201.257,287.794,214.407,287.897 M214.652,252.052c5.405,0.044,9.755,4.754,9.714,10.518
		c-0.037,5.767-4.452,10.404-9.855,10.362c-5.403-0.044-9.754-4.749-9.715-10.515C204.836,256.65,209.251,252.01,214.652,252.052"/>
	<path clip-path="url(#SVGID_2_)" fill="#E45634" d="M169.363,472.354l-28.374-20.659c0,0-5.058,14.236-19.248,13.674
		c-14.185,0.341-18.917-13.971-18.917-13.971L74.16,471.615c2.967,5.031,6.878,9.327,11.201,12.968
		c22.18,18.68,53.92,18.477,75.138-1.437C163.83,480.022,166.877,476.445,169.363,472.354"/>
	<path clip-path="url(#SVGID_2_)" fill="#E24A2C" d="M116.864,367.603c-8.453,18.874-22.454,34.865-39.525,45.153
		c-17.071,10.284-37.137,14.816-56.651,12.789c2.415,8.468,4.294,17.196,4.348,26.048c0.058,8.849-1.812,17.877-6.391,25.261
		c17.715-3.578,35.193-9.26,50.937-18.625c15.749-9.362,29.734-22.558,38.849-39.15
		C117.542,402.482,120.682,386.399,116.864,367.603"/>
	<path clip-path="url(#SVGID_2_)" fill="#C73C1E" d="M22.899,359.376c4.646-0.044,8.785-2.931,11.243-6.752
		c2.57-3.817,3.308-8.56,2.126-12.865c-1.133-4.297-3.86-8.073-7.271-10.434c-3.38-2.357-7.573-3.283-11.625-2.949
		c-8.277,0.432-15.588,5.912-20.195,13.436c-4.695,7.482-6.79,16.73-7.632,26.209c-0.84,9.486-0.456,18.943,2.768,26.456
		c3.154,7.409,9.73,12.827,17.406,15.577c7.65,2.832,16.092,2.955,24.603,1.214c8.477-1.716,17.02-5.144,25.351-9.029
		c16.579-7.521,31.699-18.523,40.472-34.258c4.429-7.729,7.109-16.479,7.172-25.267c0.071-8.805-2.26-17.724-7.013-24.753
		c-4.689-6.977-12.295-11.972-20.311-12.75c-7.859-0.917-16.318,3.275-20.673,10.493c-4.562,6.884-3.857,17.791,2.024,24.318
		c2.866,3.207,7.174,5.287,11.347,4.708c4.067-0.358,8.098-4.562,7.632-9.446l-0.003-0.041c-0.019-0.218,0.128-0.414,0.332-0.433
		c0.194-0.022,0.37,0.126,0.402,0.323c0.875,5.385-3.221,10.504-8.029,11.39c-4.849,0.988-9.834-1.11-13.349-4.582
		c-7.11-7.065-8.76-19.442-3.738-28.337c4.89-8.919,14.712-14.218,24.318-13.563c9.63,0.565,18.694,6.073,24.576,14.115
		c5.92,8.066,8.92,18.328,8.971,28.5c0.116,10.23-2.819,20.32-7.633,29.074c-4.796,8.801-11.392,16.404-18.924,22.576
		c-7.528,6.222-15.924,11.116-24.593,15.181c-8.689,3.995-17.645,7.534-27.025,9.372c-9.322,1.834-19.239,1.765-28.274-1.783
		c-8.968-3.39-17.152-10.261-20.993-19.797c-3.861-9.507-3.753-20.09-2.554-30.048c1.213-9.981,3.782-20.119,9.413-28.452
		c2.783-4.131,6.278-7.781,10.409-10.394c4.105-2.649,8.879-4.131,13.681-4.205c4.788-0.09,9.687,1.311,13.582,4.396
		c3.873,3.057,6.733,7.579,7.78,12.621c2.536,10.236-5.802,21.618-15.819,20.968c-0.204-0.014-0.359-0.201-0.348-0.418
		c0.012-0.21,0.172-0.371,0.362-0.373H22.899z"/>
	<path clip-path="url(#SVGID_2_)" fill="#E24A2C" d="M119.171,122.587c-12.984,11.53-32.746,21.254-49.519,23.406
		c-16.771,2.155-34.453-2.03-47.969-12.839c-3.644,15.024-12.402,28.57-24.268,37.541c15.685,5.723,32.083,9.751,48.663,9.669
		c16.576-0.083,33.396-4.466,47.099-14.42C106.882,155.994,117.168,140.146,119.171,122.587"/>
	<path clip-path="url(#SVGID_2_)" fill="#D84B14" d="M123.947,100.555c0.274,0.002,0.557,0.004,0.841-0.01v0.042
		C124.515,100.569,124.229,100.568,123.947,100.555"/>
	<path clip-path="url(#SVGID_2_)" fill="#D84B14" d="M125.305,25.442c-0.273-0.12-0.556-0.229-0.838-0.334
		c0.271-0.106,0.56-0.208,0.842-0.312L125.305,25.442z"/>
	<path clip-path="url(#SVGID_2_)" fill="#E24A2C" d="M15.146,91.686C10.123,85.715,3.125,80.63-3.47,76.77
		c5.369-7.412,12.804-12.92,20.807-16.78c8.002-3.861,16.589-6.157,25.208-7.95c12.462-2.6,25.669-4.137,37.623,0.446
		c-12.619,2.688-25.257,5.982-36.805,12.038C31.813,70.581,21.318,79.636,15.146,91.686"/>
	<path clip-path="url(#SVGID_2_)" fill="#FFF8F5" d="M74.301,208.457c-24.58,4.027-48.538,15.132-66.128,33.888
		c-17.586,18.758-28.207,45.541-25.797,71.948c0.067,0.754,0.179,1.579,0.701,2.093c0.689,0.67,1.759,0.517,2.671,0.325
		c22.085-4.728,44.876-9.767,63.329-23.55c19.552-14.6,32.35-37.985,38.325-62.641"/>
	<path clip-path="url(#SVGID_2_)" fill="#D84B14" d="M54.924,261.251c0.095-14.032-10.489-25.484-23.64-25.588
		c-13.152-0.102-23.891,11.186-23.986,25.218c-0.096,14.031,10.487,25.486,23.639,25.591
		C44.088,286.572,54.828,275.282,54.924,261.251 M40.897,261.143c-0.041,5.765-4.455,10.407-9.858,10.364
		c-5.403-0.043-9.753-4.749-9.714-10.517c0.04-5.768,4.455-10.407,9.858-10.366C36.586,250.665,40.937,255.376,40.897,261.143"/>
	<path clip-path="url(#SVGID_2_)" fill="#F6AB77" d="M104.887,168.788l-6.217,5.123c3.287,5.565,7.569,15.729,7.816,22.305
		c0.172,4.669-0.501,9.448-2.502,13.604c-2.001,4.16-5.428,7.638-9.619,8.998c-4.191,1.359-9.115,0.368-12.193-2.958
		c-2.323-2.507-3.433-6.015-4.132-9.461c-1.304-6.412-1.448-13.089-0.427-19.559l-6.8,2.772c-1.276,6.156-1.689,12.566-0.579,18.75
		c1.163,6.503,4.108,12.748,8.801,17.082c4.692,4.328,11.209,6.559,17.288,5.223c5.633-1.234,10.471-5.381,13.586-10.535
		c3.114-5.16,4.641-11.256,5.277-17.352c0.56-5.376,0.461-10.872-0.713-16.137C113.295,181.382,108.343,172.749,104.887,168.788"/>
	<path clip-path="url(#SVGID_2_)" fill="#F6AB77" d="M132.677,202.409c0.555,6.107,1.993,12.229,5.039,17.429
		c3.043,5.207,7.825,9.43,13.441,10.749c6.057,1.431,12.606-0.699,17.358-4.955c4.751-4.256,7.776-10.458,9.032-16.941
		c0.905-4.665,0.935-9.474,0.381-14.217c-2.346-1.078-4.646-2.309-7.046-3.351c0.353,5.18-0.014,10.425-1.113,15.482
		c-0.745,3.436-1.901,6.925-4.263,9.396c-3.125,3.278-8.06,4.197-12.23,2.768c-4.171-1.424-7.549-4.958-9.494-9.144
		c-1.945-4.191-2.553-8.98-2.316-13.646c0.288-5.648,3.591-13.882,6.648-19.595c-2.158-1.838-4.187-3.862-6.371-5.712
		c-3.27,4.355-7.073,11.17-8.133,15.613C132.362,191.534,132.188,197.022,132.677,202.409"/>
	<path clip-path="url(#SVGID_2_)" fill="#C73C1E" d="M-4.134,190.132c10.72,2.174,20.801,2.089,30.97,1.007
		c5.065-0.666,10.147-1.241,15.234-2.274c5.116-0.863,10.2-1.778,15.176-3.006c5.02-1.007,9.942-2.356,14.778-3.89
		c4.901-1.379,9.577-3.327,14.306-5.251c9.351-4.139,18.277-9.415,26.997-16.408l0.073-0.059c0.16-0.131,0.387-0.097,0.512,0.077
		c0.101,0.146,0.093,0.341-0.007,0.477c-6.729,8.943-15.407,16.069-24.874,21.43c-9.492,5.366-19.79,8.944-30.256,11.371
		c-10.503,2.216-21.156,3.681-31.884,3.777c-10.684,0.084-21.588-1.628-31.341-6.536c-0.181-0.091-0.26-0.325-0.172-0.516
		c0.07-0.166,0.237-0.253,0.399-0.219L-4.134,190.132z"/>
	<path clip-path="url(#SVGID_2_)" fill="#C73C1E" d="M251.099,192.835c-8.799,7.316-20.435,10.488-31.539,11.104
		c-11.27,0.717-22.145-0.74-33.024-3.15c-5.392-1.446-10.791-3.062-16.021-5.292c-5.172-2.339-10.323-4.896-15.016-8.298
		c-9.43-6.553-17.717-15.469-22.326-26.241l-0.037-0.084c-0.081-0.197,0-0.429,0.183-0.516c0.157-0.076,0.336-0.028,0.436,0.11
		c6.629,8.86,15.187,15.932,24.523,21.255c9.362,5.338,19.537,8.905,29.893,11.339c10.351,2.477,20.926,4.243,31.53,4.631
		c10.576,0.379,21.362-1.013,31.094-5.581c0.188-0.086,0.403,0.003,0.484,0.202c0.071,0.166,0.021,0.358-0.107,0.464
		L251.099,192.835z"/>
	<path clip-path="url(#SVGID_2_)" fill="#D84720" d="M121.65,436.595c-0.422-13.526-0.655-27.048-0.966-40.57l0.285-40.567
		l0.555-81.131l0.554-81.125l0.277-40.567l1.514-40.556l0.959,40.574l-0.277,40.566l-0.556,81.127l-0.553,81.133l-0.27,40.565
		C122.676,409.562,122.259,423.08,121.65,436.595"/>
	<path clip-path="url(#SVGID_2_)" fill="#EB683F" d="M214.912,451.21c0.146-21.319,16.462-38.479,36.445-38.323
		c19.98,0.155,36.059,17.566,35.914,38.886c-0.146,21.317-16.461,38.474-36.441,38.318
		C230.845,489.938,214.766,472.526,214.912,451.21"/>
	<path clip-path="url(#SVGID_2_)" fill="#EB683F" d="M-44.425,449.192c0.146-21.318,16.461-38.479,36.445-38.323
		c19.981,0.154,36.06,17.567,35.914,38.884c-0.146,21.319-16.461,38.476-36.441,38.32
		C-28.491,487.919-44.571,470.509-44.425,449.192"/>
	<path clip-path="url(#SVGID_2_)" fill="#EB683F" d="M-53.605,133.923c0.17-24.831,19.173-44.814,42.447-44.634
		c23.272,0.183,42,20.459,41.831,45.29S11.5,179.395-11.772,179.214C-35.046,179.029-53.774,158.754-53.605,133.923"/>
	<path clip-path="url(#SVGID_2_)" fill="#EB683F" d="M220.371,136.056c0.17-24.832,19.174-44.815,42.447-44.634
		c23.272,0.181,42.001,20.457,41.832,45.289c-0.17,24.831-19.174,44.814-42.446,44.633
		C238.931,181.163,220.202,160.886,220.371,136.056"/>
	<path clip-path="url(#SVGID_2_)" fill="#C73C1E" d="M268.392,133.964c1.679-0.798,3.938-1.365,5.872,0.031
		c1.864,1.367,2.69,3.732,2.877,5.877c0.4,4.379-1.186,8.851-4.262,12.108c-3.182,3.24-7.891,4.404-12.015,4.035
		c-4.018-0.211-8.588-1.659-11.961-5.331c-3.353-3.657-4.788-8.857-4.71-13.511c0.057-4.72,1.25-9.213,3.236-13.287
		c0.481-1.031,1.024-2.026,1.665-2.972c0.578-0.981,1.257-1.9,1.996-2.781c1.414-1.817,3.11-3.237,4.789-4.738
		c3.567-2.765,7.754-4.63,12.133-5.564c4.396-0.76,8.862-0.538,13.155,0.475c4.25,1.179,8.225,3.214,11.855,5.839
		c3.55,2.765,6.672,6.191,9.184,10.188c2.367,4.108,4.053,8.741,4.743,13.629c1.138,8.871-0.087,18.774-4.81,27.087
		c-4.654,8.317-12.2,14.225-20.167,17.405c-8.056,3.123-16.608,3.872-24.887,2.592c-8.248-1.308-16.412-4.67-23.085-10.49
		c-13.396-11.557-19.244-31.456-14.838-48.531c1.979-8.55,6.215-16.415,12.076-22.442c5.818-6.088,13.18-10.168,20.893-12.152
		c7.824-1.659,15.808-0.97,23.068,1.57c3.633,1.273,7.104,2.998,10.268,5.191c3.133,2.248,5.962,4.923,8.34,7.939l0.021,0.027
		c0.138,0.175,0.113,0.432-0.045,0.576c-0.154,0.138-0.38,0.126-0.521-0.019c-10.321-10.852-26.169-15.038-40.089-11.109
		c-6.897,2.171-13.362,6.066-18.295,11.67c-4.986,5.532-8.439,12.592-9.886,20.106c-1.496,7.489-1.097,15.404,1.249,22.638
		c2.322,7.224,6.613,13.769,12.24,18.481c11.354,9.412,27.405,11.545,40.801,6.268c6.684-2.629,12.751-7.366,16.452-13.882
		c3.774-6.485,4.835-14.426,4.02-21.987c-1.588-15.361-16.698-26.912-30.894-24.744c-3.509,0.635-6.894,1.976-9.862,4.094
		c-2.877,2.238-5.47,4.937-7.188,8.294c-1.766,3.3-2.884,7.026-3.056,10.811c-0.188,3.77,0.844,7.632,3.179,10.431
		c2.313,2.835,5.826,4.306,9.351,4.725c3.504,0.515,7.219-0.18,9.944-2.606c2.623-2.451,4.258-6.221,4.132-9.96
		c-0.006-1.844-0.592-3.78-1.889-4.879c-1.315-1.147-3.169-0.93-4.797-0.342c-0.201,0.077-0.42-0.036-0.489-0.25
		C268.12,134.277,268.214,134.051,268.392,133.964"/>
	<path clip-path="url(#SVGID_2_)" fill="#C73C1E" d="M253.066,446.588c1.397-0.712,3.363-1.212,5.026,0.036
		c1.577,1.207,2.312,3.235,2.458,5.073c0.279,3.723-0.991,7.624-3.767,10.352c-2.79,2.78-6.919,3.673-10.416,3.296
		c-3.461-0.238-7.453-1.651-10.283-5.02c-2.864-3.354-3.79-7.917-3.653-11.919c0.14-4.081,1.232-7.943,3.035-11.453
		c0.909-1.751,2.026-3.411,3.34-4.938c1.416-1.319,2.678-2.861,4.367-3.879c3.14-2.39,6.968-3.745,10.776-4.283
		c7.714-1.063,15.47,1.55,21.374,6.645c3.017,2.482,5.605,5.663,7.479,9.374c1.039,1.797,1.657,3.844,2.343,5.847
		c0.42,2.044,0.988,4.28,0.97,6.159c0.857,7.647-0.92,16.391-5.513,23.218c-4.539,6.891-11.331,11.468-18.319,13.732
		c-7.063,2.209-14.437,2.397-21.503,0.775c-7.03-1.65-13.918-5.176-19.201-10.826c-5.256-5.519-8.866-12.595-10.487-20.152
		c-1.626-7.564-0.98-15.486,1.415-22.596c2.416-7.077,6.503-13.601,12.126-18.102c2.813-2.222,5.827-4.113,9.034-5.412
		c3.136-1.356,6.649-2.291,10.005-2.472c6.744-0.394,13.161,1.022,19.159,3.321c5.95,2.366,11.619,5.955,15.593,11.165l0.019,0.026
		c0.135,0.177,0.107,0.436-0.054,0.579c-0.155,0.132-0.375,0.116-0.513-0.026c-4.324-4.497-9.977-7.318-15.747-9.138
		c-5.822-1.703-11.959-2.486-17.939-1.64c-5.97,0.78-11.602,3.717-16.196,7.797c-4.615,4.124-7.917,9.781-9.729,15.863
		c-1.794,6.091-2.095,12.719-0.643,18.925c1.473,6.186,4.593,11.929,8.949,16.28c8.693,8.829,22.088,11.467,33.479,7.788
		c5.703-1.809,10.999-5.381,14.459-10.547c3.508-5.12,4.953-11.685,4.375-18.031c-0.313-12.919-12.493-23.316-24.373-22.116
		c-2.928,0.313-5.873,1.2-8.347,2.969c-2.506,1.676-4.758,3.866-6.271,6.61c-1.56,2.694-2.582,5.771-2.828,8.918
		c-0.26,3.119,0.325,6.421,2.2,8.828c1.811,2.449,4.673,3.803,7.601,4.238c2.907,0.513,6.018,0.042,8.317-1.923
		c2.289-1.919,3.601-5.104,3.589-8.188c0.029-1.543-0.471-3.135-1.489-4.075c-1.05-0.967-2.58-0.813-3.932-0.317
		c-0.2,0.07-0.418-0.039-0.485-0.255C252.801,446.896,252.894,446.674,253.066,446.588"/>
	<path clip-path="url(#SVGID_2_)" fill="#C73C1E" d="M-41.5,100.885c2.419-2.985,5.279-5.614,8.444-7.817
		c3.197-2.14,6.688-3.817,10.338-5.039c7.297-2.425,15.294-2.996,23.099-1.213c7.681,2.114,14.988,6.297,20.73,12.481
		c5.781,6.117,9.909,14.049,11.775,22.637c4.182,17.153-1.967,36.958-15.51,48.307c-6.766,5.699-14.964,8.948-23.236,10.129
		c-8.292,1.143-16.844,0.274-24.846-2.991c-7.918-3.315-15.386-9.328-19.923-17.721c-4.602-8.38-5.71-18.304-4.428-27.147
		c0.753-4.876,2.505-9.48,4.925-13.55c2.568-3.955,5.73-7.332,9.318-10.038c3.663-2.565,7.658-4.557,11.929-5.643
		c4.303-0.945,8.77-1.099,13.154-0.274c4.355,1.002,8.516,2.929,12.046,5.75c1.654,1.523,3.33,2.969,4.724,4.808
		c0.724,0.892,1.389,1.818,1.954,2.808c0.626,0.951,1.152,1.955,1.624,2.994c1.932,4.1,3.063,8.607,3.055,13.327
		c0.011,4.65-1.486,9.83-4.897,13.423c-3.413,3.615-8,4.991-12.019,5.144c-4.122,0.304-8.811-0.93-11.95-4.22
		c-3.028-3.297-4.558-7.787-4.095-12.161c0.215-2.137,1.076-4.491,2.955-5.829c1.948-1.37,4.201-0.77,5.867,0.053
		c0.193,0.098,0.279,0.342,0.187,0.547c-0.084,0.193-0.298,0.283-0.482,0.21c-1.619-0.609-3.469-0.856-4.8,0.266
		c-1.313,1.081-1.924,3.007-1.955,4.854c-0.178,3.735,1.406,7.531,3.996,10.019c2.69,2.473,6.399,3.227,9.906,2.767
		c3.53-0.365,7.061-1.782,9.413-4.582c2.374-2.76,3.458-6.608,3.322-10.38c-0.12-3.79-1.188-7.533-2.906-10.855
		c-1.674-3.389-4.23-6.127-7.074-8.409c-2.942-2.166-6.304-3.555-9.808-4.248c-14.162-2.39-29.434,8.928-31.227,24.261
		c-0.918,7.551,0.029,15.508,3.716,22.052c3.614,6.574,9.611,11.407,16.264,14.136c13.322,5.48,29.4,3.597,40.88-5.636
		c5.693-4.625,10.068-11.098,12.487-18.291c2.449-7.19,2.956-15.098,1.563-22.614c-1.343-7.53-4.701-14.645-9.61-20.252
		c-4.859-5.679-11.267-9.68-18.134-11.954c-13.863-4.146-29.767-0.206-40.236,10.48c-0.153,0.157-0.396,0.151-0.542-0.012
		c-0.138-0.153-0.139-0.392-0.014-0.551L-41.5,100.885z"/>
	<path clip-path="url(#SVGID_2_)" fill="#C73C1E" d="M-35.788,423.481c4.042-5.155,9.756-8.653,15.739-10.93
		c6.029-2.215,12.467-3.533,19.206-3.035c3.354,0.241,6.857,1.227,9.977,2.633c3.194,1.349,6.182,3.288,8.964,5.556
		c5.555,4.591,9.564,11.173,11.883,18.294c2.31,7.15,2.83,15.084,1.098,22.625c-1.72,7.537-5.431,14.557-10.76,19.996
		c-5.373,5.553-12.302,8.982-19.359,10.518c-7.085,1.511-14.464,1.221-21.49-1.113c-6.953-2.391-13.682-7.061-18.124-14.023
		c-4.491-6.895-6.169-15.665-5.183-23.294c0.005-1.878,0.606-4.103,1.053-6.14c0.712-1.993,1.357-4.024,2.418-5.806
		c1.923-3.682,4.553-6.817,7.598-9.255c5.976-5.001,13.765-7.476,21.456-6.301c3.798,0.595,7.606,2.011,10.708,4.447
		c1.677,1.043,2.915,2.601,4.314,3.941c1.288,1.547,2.377,3.225,3.263,4.99c1.755,3.533,2.795,7.408,2.877,11.487
		c0.087,4.004-0.897,8.548-3.81,11.845c-2.872,3.319-6.879,4.674-10.339,4.862c-3.498,0.32-7.612-0.637-10.362-3.452
		c-2.737-2.768-3.955-6.688-3.623-10.401c0.168-1.835,0.93-3.853,2.52-5.038c1.681-1.217,3.64-0.688,5.026,0.043
		c0.189,0.098,0.271,0.348,0.18,0.548c-0.088,0.192-0.296,0.278-0.479,0.209c-1.343-0.515-2.869-0.693-3.931,0.259
		c-1.035,0.925-1.554,2.508-1.544,4.055c-0.055,3.082,1.213,6.288,3.475,8.24c2.271,2,5.375,2.519,8.291,2.053
		c2.935-0.386,5.812-1.7,7.659-4.12c1.906-2.379,2.534-5.669,2.321-8.795c-0.204-3.148-1.183-6.24-2.706-8.963
		c-1.476-2.768-3.7-4.995-6.181-6.706c-2.449-1.809-5.381-2.734-8.308-3.094c-11.861-1.39-24.183,8.819-24.672,21.731
		c-0.667,6.336,0.69,12.922,4.127,18.103c3.388,5.215,8.636,8.873,14.318,10.767c11.339,3.848,24.764,1.428,33.581-7.268
		c4.413-4.283,7.613-9.974,9.167-16.141c1.538-6.179,1.327-12.813-0.384-18.931c-1.727-6.109-4.952-11.815-9.511-16.009
		c-4.537-4.154-10.125-7.18-16.083-8.052c-5.969-0.94-12.118-0.253-17.96,1.36c-5.8,1.73-11.488,4.46-15.874,8.893
		c-0.152,0.155-0.396,0.149-0.54-0.018c-0.138-0.151-0.142-0.389-0.017-0.545L-35.788,423.481z"/>
	<path clip-path="url(#SVGID_2_)" fill="#F6AA59" d="M113.711,103.434c0.038-5.685,4.771-10.258,10.57-10.212
		c5.797,0.046,10.467,4.691,10.428,10.375"/>
</g>
<g>
	<defs>
		<polygon id="SVGID_3_" points="-0.904,0.703 -0.24,210.768 256.201,175.869 255.646,-0.235 		"/>
	</defs>
	<clipPath id="SVGID_4_">
		<use xlink:href="#SVGID_3_"  overflow="visible"/>
	</clipPath>
	<path clip-path="url(#SVGID_4_)" fill="#381B29" d="M252.833,43.39c0.028-2.648-0.057-5.298-0.141-7.604
		c2.75-1.003,4.857-3.742,4.788-7.199l-0.027-8.407c0.028-2.65-1.367-5.202-3.434-6.493c-1.636-1.057-3.157-1.998-4.791-2.936
		c-0.519-2.771-1.148-5.429-1.889-8.086c18.981-24.192,66.466-92.617,41.674-141.868c-1.071-2.087-3.914-2.583-5.575-0.759
		c-11.525,12.992-52.3,57.541-75.029,73.507l3.875-25.293c0,0-1.609-13.613-1.59-15.455c0.02-1.844-3.502-11.1-4.011-14.908
		c-0.506-3.691-8.202-1.249-16.415-1.349l-8.215-0.1l-22.823-6.494l0.174-16.7l0.739-18.422c0,0-28.669-2.877-34.035-2.941
		c-5.257-0.065-2.376,7.342-2.376,7.342l-6.089,16.63c0,0-13.98-3.855-18.689-3.911c-4.709-0.059-11.815,9.072-11.815,9.072
		l-6.062,14.211c0,0-8.865,9.682-12.492,10.907c-3.518,1.224-11.719-0.142-11.719-0.142l-10.541,2.407l-14.21,7.777
		c0,0-5.536-25.982-17.433-19.33c-8.375,4.737-6.049,33.906-4.032,50.635c-17.659-18.99-49.121-58.53-60.584-72.952
		c-2.052-2.675-6.22-2.264-7.785,0.829C-84.444-91.979-36.839-24.714-16.29,0.643c-0.78,1.257-1.236,2.865-1.143,4.479l0.187,3.112
		c-0.548,0.109-1.098,0.218-1.644,0.327c0,0-86.015,76.139-17.89,245.476c0,0,1.754,10.389,4.891,24.708
		c-0.561,1.261-0.792,2.641-0.808,4.138l-0.1,9.561c-0.053,5.182,2.966,9.48,7.222,11.259c5.169,18.952,12.191,38.849,20.612,50.701
		c5.29,7.433,16.256,6.296,20.283-1.944l10.744-21.757c16.188,44.427,46.551,105.379,89.425,101.17
		c34.867-3.381,60.053-34.409,76.125-63.24c3.907-6.982,7.375-14.079,10.522-21.414l11.232,25.592
		c3.212,7.063,12.513,7.984,16.742,1.583c7.235-11.086,17.631-31.232,29.179-67.262c4.288-1.562,7.399-5.901,7.454-11.085l0.1-9.558
		c0.013-1.153-0.086-2.189-0.404-3.231c5.232-18.714,10.61-40.881,16.03-66.731C305.074,107.371,272.152,60.555,252.833,43.39"/>
	<path clip-path="url(#SVGID_4_)" fill="#871E61" d="M201.075,321.483l16.807,39.043c3.035,7.052,12.063,7.929,16.174,1.538
		c11.571-18.027,31.391-60.519,50.813-156.598C314.887,56.945,244.03,24.842,244.03,24.842l-6.557,82.64L201.075,321.483z"/>
	<path clip-path="url(#SVGID_4_)" fill="#871E61" d="M-7.447-0.856c0,0-83.373,75.586-17.34,243.645c0,0,11.567,71.758,30.848,99.53
		c5.117,7.367,15.722,6.238,19.679-1.913l12.514-25.785C38.253,314.621,66.791-19.569-7.447-0.856"/>
	<path clip-path="url(#SVGID_4_)" fill="#CD64A2" d="M16.7,293.243l-26.633-0.32c-6.13-0.074-11.047-5.483-10.98-12.077l0.1-9.517
		c0.069-6.598,5.098-11.89,11.228-11.814l26.634,0.32c6.134,0.072,11.048,5.481,10.979,12.081l-0.099,9.515
		C27.859,288.027,22.834,293.317,16.7,293.243"/>
	<path clip-path="url(#SVGID_4_)" fill="#CD64A2" d="M258.445,296.153l-26.633-0.322c-6.13-0.071-11.048-5.48-10.981-12.077
		l0.1-9.517c0.07-6.6,5.099-11.89,11.229-11.815l26.633,0.319c6.134,0.076,11.048,5.484,10.979,12.085l-0.099,9.515
		C269.605,290.935,264.58,296.227,258.445,296.153"/>
	<path clip-path="url(#SVGID_4_)" fill="#6D1948" d="M35.689-68.497L3.777,1.428c0,0-81.337-88.61-48.771-154.275
		c1.53-3.087,5.482-3.539,7.563-0.845c14.186,18.355,60.682,78.017,69.304,82.394"/>
	<path clip-path="url(#SVGID_4_)" fill="#6D1948" d="M204.008-70.149l39.83,72.162c0,0,77.107-89.345,47.487-149.57
		c-1.065-2.168-3.817-2.554-5.386-0.77C272.898-133.473,221.892-76.324,204.008-70.149"/>
	<path clip-path="url(#SVGID_4_)" fill="#F4C6DD" d="M141.215-120.827c-16.32-5.695-33.95-5.022-49.817,2.006
		C58.271-104.145,3.881-68.534,0.719,7.82c-3.727,90.058,13.32,211.027,19.687,252.296c1.735,11.267,4.182,22.376,7.396,33.263
		c11.895,40.266,44.428,130.928,95.082,125.807c33.854-3.424,58.254-34.133,73.867-62.776
		c12.205-22.388,20.604-46.914,25.405-72.348c10.533-55.804,37.402-205.231,33.829-259.38
		C252.025-35.404,215.99-94.75,141.215-120.827"/>
	<path clip-path="url(#SVGID_4_)" fill="#CD64A2" d="M138.539-46.878c-4.69-27.708-6.129-56.061-4.274-84.156
		c0.405-6.15-4.366-11.244-10.081-10.703l-12.095,1.143c-4.679,0.439-8.325,4.552-8.486,9.602
		c-0.883,27.197-0.876,58.002,1.43,84.953c0.344,4.027-2.47,7.531-6.218,7.77c-32.782,2.073-72.5,10.264-101.023,26.828
		c-2.423,1.408-3.895,4.167-3.751,7.125l0.609,12.573c0.262,5.385,5.491,8.729,10.048,6.478
		C43.625-4.524,86.74-13.667,129.465-11.621c42.162,2.016,83.864,14.917,120.803,37.265c4.708,2.846,10.508-0.895,10.475-6.697
		l-0.054-8.396c-0.016-2.635-1.292-5.086-3.383-6.452c-35.58-23.271-72.109-39.061-113.082-45.208
		C141.376-41.536,139.054-43.833,138.539-46.878"/>
	<path clip-path="url(#SVGID_4_)" fill="#AE3678" d="M138.81,77.007c8.839,67.742,14.85,135.11,13.218,203.424
		c-0.215,8.934-7.082,16.022-15.386,15.92l-17.585-0.211c-8.702-0.104-15.55-8.03-15.012-17.376
		c3.789-66.084,8.809-131.576,2.201-197.213c-0.87-8.639,4.594-16.53,12.559-17.987l2.389-0.437
		C129.651,61.585,137.619,67.869,138.81,77.007"/>
	<path clip-path="url(#SVGID_4_)" fill="#871E61" d="M81.686,339.803c0.132-12.769,19.945-22.889,44.255-22.597
		c24.304,0.292,43.905,10.886,43.771,23.657"/>
	<path clip-path="url(#SVGID_4_)" fill="#CD64A2" d="M169.71,340.863c-0.133,12.77-19.944,22.892-44.255,22.599
		c-24.304-0.293-43.905-10.885-43.771-23.659"/>
	<path clip-path="url(#SVGID_4_)" fill="#871E61" d="M161.891,78.829c25.081-2.146,61.029-3.606,69.566,29.076
		c1.619,6.197,10.634,3.677,9.007-2.552c-9.774-37.43-48.586-39.1-78.469-36.542C156.071,69.316,155.906,79.341,161.891,78.829"/>
	<path clip-path="url(#SVGID_4_)" fill="#871E61" d="M91.129,67.958c-29.836-3.273-68.664-2.532-79.21,34.646
		c-1.753,6.181,7.201,8.935,8.951,2.772c9.201-32.422,45.169-30.139,70.155-27.398C96.984,78.633,97.053,68.609,91.129,67.958"/>
	<path clip-path="url(#SVGID_4_)" fill="#871E61" d="M80.4,128.384c0,10.825-8.157,17.997-18.22,17.997s-18.223-7.171-18.223-17.997
		c0-10.827,6.706-19.541,16.769-19.541C70.79,108.843,80.4,117.558,80.4,128.384"/>
	<path clip-path="url(#SVGID_4_)" fill="#871E61" d="M206.398,129.965c0,10.908-7.931,17.788-17.715,17.788
		c-9.781,0-17.715-8.791-17.715-19.698s7.934-17.84,17.715-17.84C198.468,110.215,206.398,117.801,206.398,129.965"/>
</g>
</svg>
