<?xml version="1.0" encoding="utf-8"?>
<!-- Generator: Adobe Illustrator 16.0.0, SVG Export Plug-In . SVG Version: 6.00 Build 0)  -->
<!DOCTYPE svg PUBLIC "-//W3C//DTD SVG 1.1//EN" "http://www.w3.org/Graphics/SVG/1.1/DTD/svg11.dtd">
<svg version="1.1" id="Capa_1" xmlns="http://www.w3.org/2000/svg" xmlns:xlink="http://www.w3.org/1999/xlink" x="0px" y="0px"
	 width="256px" height="384px" viewBox="0 0 256 384" enable-background="new 0 0 256 384" xml:space="preserve">
<polygon fill="#FFFFFF" points="1.387,210.167 0.283,1.099 255.699,0.159 256.804,176.167 "/>
<g>
	<defs>
		<polygon id="SVGID_1_" points="0.283,1.1 1.387,210.167 256.804,176.167 255.699,0.16 		"/>
	</defs>
	<clipPath id="SVGID_2_">
		<use xlink:href="#SVGID_1_"  overflow="visible"/>
	</clipPath>
	<path clip-path="url(#SVGID_2_)" fill="#192429" d="M181.264,393.778c-25.979,1.486-60.036,1.229-86.298,1.785
		c-15.784,0.34-24.679-4.032-37.317-11.245c-2.262-1.29-5.639-3.855-7.557-5.36c-11.521-9.054-19.96-19.842-24.062-33.769
		c-9.622-32.688-15.52-64.873-21.27-98.363c-5.422-31.557-10.597-61.64-13.326-93.753C-14.1,87.907-33.803,27.063-49.927-35.73
		c-16.393-63.855-19.122-131.314-8.096-196.418c3.3-19.476,7.705-38.961,13.474-57.849c2.275-7.453,5.59-32.842,14.474-35.18
		c11.775-3.095,19.997,31.898,22.338,40.021c14.082,48.854,29.369,97.553,40.8,147.051c2.172,9.402,18.788,0.476,27.994-2.012
		c41.778-11.283,84.814-10.854,126.98-2.473c4.344,0.864,7.884-2.113,7.916-6.488c0.386-52.447,3.681-103.703,14.559-155.024
		c0.829-3.931,8.978-47.146,18.818-27.937c52.069,101.668,84.551,215.399,58.822,334.427
		c-16.674,77.145-23.494,173.302-28.719,254.734c-1.852,28.857-11.267,62.102-17.416,86.453
		c-4.088,16.194-7.353,21.346-16.481,30.664C212.25,387.794,200.908,392.656,181.264,393.778"/>
	<path clip-path="url(#SVGID_2_)" fill="#79B5D5" d="M173.776,387.956c-24.625,1.462-56.91,1.146-81.804,1.665
		c-14.962,0.315-23.401-4.111-35.391-11.42c-2.145-1.308-5.349-3.905-7.171-5.427c-10.934-9.164-18.95-20.079-22.855-34.157
		c-9.167-33.035-14.801-65.56-20.297-99.404c-5.184-31.887-10.13-62.289-12.76-94.733C-11.839,78.636-30.6,17.137-45.97-46.327
		c-15.626-64.537-18.306-132.691-7.945-198.445c3.104-19.669,7.252-39.347,12.695-58.419c2.148-7.527,5.255-33.168,13.674-35.518
		c11.158-3.107,18.999,32.257,21.23,40.466c13.414,49.378,27.971,98.599,38.877,148.624c2.071,9.503,17.812,0.51,26.533-1.986
		c39.589-11.333,80.385-10.831,120.368-2.296c4.12,0.878,7.471-2.122,7.495-6.541c0.295-52.986,3.348-104.761,13.588-156.591
		c0.781-3.97,8.446-47.613,17.8-28.193c49.499,102.794,80.447,217.744,56.22,337.949c-15.7,77.911-22.034,175.039-26.874,257.3
		c-1.716,29.149-10.596,62.719-16.393,87.312c-3.851,16.354-6.938,21.552-15.58,30.95
		C203.141,381.961,192.397,386.852,173.776,387.956"/>
</g>
<g>
	<defs>
		<path id="SVGID_3_" d="M0.283,1.113l1.096,207.57c0.075,0.489,0.15,0.979,0.225,1.47l250.777-33.383
			c1.213-16.855,2.564-33.902,4.107-50.896l-0.79-125.7L0.283,1.113z"/>
	</defs>
	<clipPath id="SVGID_4_">
		<use xlink:href="#SVGID_3_"  overflow="visible"/>
	</clipPath>
	<path clip-path="url(#SVGID_4_)" fill="#79B5D5" d="M-90.335,18.922C-52.388,3.891-11.287-3.85,23.528,22.807
		c34.81,26.657,64.428,60.542,98.579,88.155c24.81-27.727,49.991-55.984,74.786-84.07c40.767-6.181,81.511-12.374,122.274-18.488
		c27.68,15.87,55.359,31.733,83.034,47.609c-8.805,64.561-17.814,129.095-26.77,193.634c-62.002-1.418-124.008-2.855-186.013-4.273
		c-20.652-24.933-41.451-49.731-62.226-74.547c-17.187,24.251-34.358,48.51-51.484,72.808
		C24.97,253.317-25.767,262.891-76.521,272.55C-81.288,187.969-86.16,103.688-90.335,18.922"/>
	<path clip-path="url(#SVGID_4_)" fill="#C1E3F6" d="M152.2,144.958c31.313,41.552,86.662,11.587,120.816-6.485
		c0.119,13.962,0.302,27.927,0.456,41.895C223.071,196.649,176.568,204.479,152.2,144.958"/>
	<path clip-path="url(#SVGID_4_)" fill="#C1E3F6" d="M103.742,145.819c-30.186,42.419-86.095,14.733-120.87-2.171
		c0.164,13.89,0.35,27.779,0.521,41.674C34.323,199.847,80.861,206.01,103.742,145.819"/>
	<path clip-path="url(#SVGID_4_)" fill="#0E598B" d="M307.302-1.568c-0.594-0.875-1.451-1.496-2.107-2.273
		c-0.76-8.77-4.811-13.591-13.216-13.489c-2.848,0.032-6.023,0.922-8.958,1.116c-15.197-2.667-30.52-2.27-45.449,1.577
		c-25.341,6.523-47.947,17.096-68.214,34.633c-23.666,20.479-37.824,45.298-48.612,75.469c-5.66,1.203-9.047,4.357-10.271,10.526
		c-0.244,1.215-0.301,2.934-0.417,3.746c-0.081,0.548-0.032,0.055-0.039,0.11c-0.034,0.241-0.005,0.316-0.019,0.452
		c-0.651,6.742-0.67,13.642-0.651,20.356c0.058,21.34-2.06,43.048-1.464,64.194c0.388,13.988,12.984,16.777,22.406,10.048
		c3.984,9.065,8.339,17.479,14.116,25.336c0.684,4.998,1.126,9.923,1.233,15.02c-7.674,8.379-13.591,19.372-18.706,29.327
		c-5.117,9.956-8.344,18.78-11.466,29.27c-7.256,5.842-9.926,12.765-10.02,22.888c-0.15,15.496-0.667,31.293,0.474,47.305
		c0.895,12.519,7.048,22.241,19.498,22.309c3.95,0.021,6.742-1.734,9.929-3.78c14.245,1.093,21.301-11.414,13.255-24.251
		c-0.616-0.983-1.703-1.818-2.396-2.705c-0.692-0.887-1.803-1.644-2.512-2.27c-0.713-0.621-0.888-1.026-1.486-1.615
		c3.335-22.285,7.418-43.152,18.419-62.611c4.636-0.751,7.113-3.302,9.378-7.662c0.81-1.557,1.087-3.911,2.217-5.317
		c1.291-1.605,3.311-2.763,5.149-3.888c12.763-7.818,27.775-12.083,41.91-12.585c14.129-0.504,25.644-1.061,39.252-0.362
		c0.686,0.035,1.444,0.084,2.115-0.046c10.886-2.047,14.896-10.999,11.348-22.007c-0.203-0.639-0.404-1.053-0.681-1.496
		c-2.565-4.143-5.64-6.12-10.166-6.77c1.019-10.26-2.764-18.128-12.914-18.383c-0.045,0-0.021,0.022-0.068,0.003
		c-2.23-1.091-4.106-1.855-6.669-1.926c-8.329-0.217-16.4,0.85-24.791,2.578c-17.213-4.082-34.778-8.538-46.438-24.289
		c-18.388-24.819-18.622-54.589-3.776-82.14c29.194-54.194,75.557-80.805,131.532-91.227
		C310.312,21.317,314.529,9.103,307.302-1.568"/>
	<path clip-path="url(#SVGID_4_)" fill="#0E598B" d="M-52.234,6.181c0.575-0.884,1.414-1.539,2.053-2.333
		c0.568-8.755,4.545-13.652,12.887-13.921c2.834-0.09,6.035,0.646,8.959,0.71c15.039-3.273,30.387-3.612,45.375-0.426
		c25.432,5.404,48.187,14.918,68.9,31.568c24.19,19.438,38.846,43.724,50.295,73.393c5.686,1,9.142,4.018,10.511,10.141
		c0.267,1.206,0.367,2.922,0.503,3.734c0.089,0.537,0.029,0.049,0.038,0.102c0.039,0.244,0.013,0.319,0.031,0.455
		c0.801,6.725,0.989,13.619,1.125,20.336c0.444,21.34,3.092,43.014,3.02,64.168c-0.047,13.991-12.514,17.221-22.146,10.808
		c-3.746,9.19-7.883,17.748-13.466,25.782c-0.558,5.026-0.862,9.967-0.84,15.063c7.891,8.123,14.083,18.898,19.458,28.687
		c5.375,9.79,8.813,18.519,12.174,28.915c7.392,5.624,10.208,12.454,10.533,22.572c0.503,15.481,1.396,31.264,0.621,47.305
		c-0.608,12.541-6.534,22.456-18.98,22.899c-3.947,0.142-6.777-1.522-10.011-3.47c-14.239,1.536-21.534-10.776-13.804-23.837
		c0.589-0.994,1.664-1.864,2.333-2.774c0.671-0.91,1.764-1.701,2.461-2.345c0.693-0.644,0.863-1.053,1.447-1.664
		c-3.851-22.164-8.403-42.901-19.867-62.018c-4.652-0.611-7.185-3.059-9.578-7.354c-0.854-1.537-1.167-3.845-2.353-5.242
		c-1.357-1.595-3.257-2.554-5.389-3.748c-14.755-8.298-40.646-12.573-54.857-12.362c-14.211,0.203-14.656,4.775-26.602,2.105
		c-0.648-0.151-1.336,0.118-2.013,0.011c-10.957-1.751-15.161-10.488-11.901-21.601c0.189-0.646,0.376-1.056,0.645-1.511
		c2.464-4.215,5.491-6.285,9.995-7.073c-1.277-10.229,2.349-18.157,12.46-18.746c0.043,0,0.018,0.021,0.063-0.003
		c2.204-1.156,4.064-1.982,6.626-2.136c8.318-0.493,16.414,0.315,24.851,1.754c17.116-4.616,34.558-9.75,45.835-25.782
		c17.778-25.28,17.245-55.146,1.783-82.128C60.524,63.139,13.452,38.851-42.397,30.527C-54.658,28.698-59.229,16.928-52.234,6.181"
		/>
	<path clip-path="url(#SVGID_4_)" fill="#A5D5F4" d="M102.118,390.821c-0.359-8.211-0.477-16.386-0.592-24.295
		c-0.13-8.874-0.261-18.05-0.737-27.236c-0.155-2.98-0.179-5.996-0.201-9.022c-0.079-10.439-0.153-20.299-5.859-28.469
		c-10.41-14.898-29.401-20.485-48.372-24.303c-15.003-3.013-29.381-2.076-44.604-1.094c-2.912,0.191-5.841,0.38-8.79,0.546
		l-0.462-9.759c2.924-0.159,5.826-0.348,8.712-0.536c15.789-1.026,30.704-1.998,46.792,1.243
		c20.761,4.175,41.661,10.457,53.927,28.018c7.508,10.737,7.602,23.244,7.683,34.275c0.023,2.867,0.041,5.731,0.187,8.553
		c0.486,9.381,0.62,18.661,0.753,27.631c0.113,7.833,0.23,15.931,0.584,23.986L102.118,390.821z"/>
	<path clip-path="url(#SVGID_4_)" fill="#A5D5F4" d="M24.425,229.527c-12.077,0.311-24.108-0.945-35.914-2.177l-3.203-0.337
		l0.857-9.721l3.213,0.337c20.943,2.188,40.719,4.259,60.365-1.696c24.075-7.282,38.286-19.479,44.723-38.363
		c3.665-10.773,3.654-22.43-0.036-35.63c-8.274-29.592-25.428-53.072-52.441-71.783C18.233,53.708-7.624,46.127-35,38.105
		l-6.039-1.777l2.375-9.422l6.027,1.771c28.065,8.228,54.571,15.994,79.496,33.255c28.503,19.74,47.416,45.707,56.215,77.181
		c4.277,15.307,4.233,28.988-0.135,41.831c-7.423,21.787-24.028,36.305-50.763,44.396C42.952,228.13,33.674,229.29,24.425,229.527"
		/>
	<path clip-path="url(#SVGID_4_)" fill="#A5D5F4" d="M160.009,389.945l-9.029-0.224c0.176-8.108,0.103-16.258,0.034-24.135
		c-0.074-8.929-0.155-18.159,0.113-27.506c0.081-2.813,0.035-5.662-0.008-8.515c-0.166-11.04-0.354-23.556,6.87-34.528
		c11.827-17.978,32.529-24.921,53.141-29.739c16.029-3.751,30.999-3.264,46.83-2.748c2.856,0.093,5.726,0.186,8.613,0.252
		l-0.191,9.765c-2.916-0.069-5.814-0.162-8.691-0.252c-15.273-0.508-29.702-0.969-44.654,2.527
		c-18.833,4.407-37.643,10.588-47.693,25.86c-5.501,8.36-5.354,18.241-5.196,28.7c0.047,3.013,0.087,6.013,0.003,8.981
		c-0.263,9.146-0.183,18.279-0.107,27.112C160.111,373.452,160.183,381.677,160.009,389.945"/>
	<path clip-path="url(#SVGID_4_)" fill="#A5D5F4" d="M236.457,226.017c-10.138,0.261-20.339-0.496-30.529-3.227
		c-26.95-7.219-43.907-21.207-51.835-42.759c-4.698-12.759-5.077-26.448-1.159-41.857c8.056-31.74,26.361-58.461,54.401-79.418
		c25.006-18.685,51.992-27.666,80.567-37.181l4.261-1.417l2.667,9.329l-4.27,1.424c-27.891,9.283-54.237,18.055-78.094,35.882
		c-26.615,19.894-43.242,44.089-50.828,73.974c-3.375,13.278-3.102,24.941,0.846,35.656c6.866,18.669,21.36,30.391,45.613,36.887
		c19.717,5.285,39.371,2.592,60.176-0.261l3.399-0.464l1.123,9.689l-3.388,0.464C258.578,224.223,247.56,225.732,236.457,226.017"/>
	<path clip-path="url(#SVGID_4_)" fill="#133C5A" d="M125.63,201.824c-9.267,15.177-18.921,32.226-27.993,47.846
		c-1.016,1.754-0.989,2.786,0.107,4.482c9.366,14.446,19.367,30.223,28.858,44.292c1.943,2.882,4.195,2.861,6.096-0.061
		c9.338-14.374,19.135-30.504,28.316-45.275c1.081-1.73,1.079-2.78,0.01-4.511c-9.459-15.308-19.536-32.018-29.184-46.878
		C129.886,198.71,127.508,198.754,125.63,201.824"/>
	<path clip-path="url(#SVGID_4_)" fill="#A5D5F4" d="M129.758,303.217c-0.023,0.003-0.048,0.003-0.068,0.003
		c-1.303,0.011-3.241-0.537-5.048-3.228c-6.896-10.219-14.084-21.375-21.035-32.171c-2.65-4.107-5.275-8.181-7.852-12.155
		c-1.65-2.558-1.699-4.764-0.174-7.391c2.342-4.035,4.725-8.163,7.127-12.332c6.886-11.938,14.005-24.283,20.895-35.569
		c1.734-2.829,3.681-3.479,5.027-3.514c0.016,0,0.032,0,0.048,0.003c1.344-0.02,3.331,0.545,5.149,3.343
		c7.166,11.04,14.588,23.126,21.764,34.815c2.514,4.094,5.007,8.155,7.452,12.115c1.617,2.615,1.612,4.838-0.015,7.444l-7.398,11.95
		c-6.913,11.196-14.061,22.77-20.946,33.362C132.951,302.57,131.061,303.185,129.758,303.217 M99.327,251.877
		c0,0,0.047,0.211,0.408,0.773c2.578,3.975,5.206,8.054,7.859,12.171c6.937,10.764,14.108,21.899,20.973,32.075
		c0.593,0.875,1.007,1.066,1.076,1.066c-0.008-0.025,0.456-0.153,1.064-1.09c6.854-10.544,13.986-22.091,20.883-33.264l7.408-11.965
		c0.364-0.58,0.396-0.788,0.399-0.809c0,0-0.042-0.212-0.39-0.774c-2.455-3.969-4.948-8.03-7.464-12.13
		c-7.158-11.663-14.561-23.72-21.693-34.705c-0.594-0.916-1.028-1.107-1.105-1.107c-0.076,0.003-0.516,0.212-1.091,1.154
		c-6.856,11.229-13.957,23.543-20.822,35.453c-2.408,4.172-4.792,8.306-7.138,12.341C99.356,251.653,99.328,251.859,99.327,251.877"
		/>
	<path clip-path="url(#SVGID_4_)" fill="#A5D5F4" d="M131.348,77.637l-0.646,1.177c-1.406,2.565-4.819,2.624-6.297,0.104
		l-0.679-1.154c-17.748-29.258-40.596-50.65-71.906-67.323C24.509-4.099-3.995-9.375-40.554-6.604l-0.625-9.744
		c38.242-2.878,68.165,2.679,96.983,18.027c30.135,16.049,53.609,37.207,71.564,64.542c17.411-28.44,40.089-50.606,69.142-67.621
		c28.035-16.42,58.763-23.511,96.657-22.326l-0.266,9.764c-36.768-1.143-65.149,5.375-92.095,21.151
		C171.079,24.602,148.356,47.646,131.348,77.637"/>
	<path clip-path="url(#SVGID_4_)" fill="#133C5A" d="M266.023,158.529c-10.089,5.807-20.305,9.915-30.854,12.376
		c1.47-2.111,2.876-4.273,4.134-6.549c0.598-1.075-0.579-1.739-1.397-1.812c-1.119-0.096-2.456,0.499-3.043,1.557
		c-1.53,2.754-3.227,5.36-5.088,7.856c-4.701,0.841-9.482,1.351-14.345,1.554c1.103-1.226,2.256-2.397,3.308-3.682
		c0.751-0.91,0.309-2.061-0.668-2.456c-1.122-0.452-2.534,0.122-3.295,1.047c-1.49,1.817-3.079,3.528-4.674,5.232
		c-2.448-0.011-4.911-0.072-7.408-0.237c-2.34-0.157-4.695,3.586-1.526,3.797c2.375,0.16,4.716,0.2,7.053,0.227
		c0.1,0.133,0.243,0.232,0.387,0.333c-0.16,0.194-0.229,0.368-0.074,0.47c4.342,2.806,8.757,5.465,13.258,7.958
		c0.883,0.49,2.168,0.093,3.032-0.298c0.228-0.099,2.133-1.151,1.337-1.595c-3.969-2.197-7.854-4.54-11.693-6.984
		c5.434-0.217,10.771-0.803,16.026-1.769c0.024,0.015,0.029,0.032,0.054,0.043c5.046,2.464,10.224,4.497,15.552,6.117
		c1.976,0.603,5.479-2.568,2.652-3.424c-3.84-1.168-7.573-2.629-11.259-4.232c10.486-2.63,20.682-6.749,30.7-12.516
		C271.01,159.917,268.396,157.164,266.023,158.529"/>
	<path clip-path="url(#SVGID_4_)" fill="#133C5A" d="M61.599,177.121c-3.707,0.968-7.335,1.624-10.917,2.056
		c-0.066-0.058-0.134-0.113-0.198-0.174c-1.635-1.565-3.282-3.12-4.923-4.685c-0.946-0.91-5.167,1.11-4.374,1.867
		c1.135,1.087,2.272,2.166,3.405,3.241c0.083,0.075,0.175,0.156,0.267,0.232c-4.414,0.203-8.754,0.032-13.044-0.461
		c-0.47-0.716-1.144-1.331-1.718-1.957c-1.862-2.026-3.362-4.256-4.585-6.792c-0.946-1.954-5.521-0.29-4.662,1.484
		c1.161,2.406,2.616,4.279,4.134,6.227c-3.61-0.693-7.194-1.6-10.774-2.676c-0.49-1.49-1.662-3.018-2.3-4.195
		c-1.35-2.485-2.706-4.96-4.048-7.439c-0.915-1.699-5.416,0.09-4.663,1.479c1.436,2.659,2.89,5.306,4.325,7.964
		c-5.395-1.925-10.799-4.183-16.268-6.676c-1.858-0.847-5.383,2.104-2.673,3.339c6.995,3.189,13.84,5.943,20.659,8.124
		c-0.167,0.507-0.489,1.035-1.125,1.792c-1.283,1.537-3.131,2.746-4.677,3.925c-2.581,1.989,1.47,2.583,2.949,1.45
		c1.702-1.305,5.308-3.456,7.061-5.897c4.504,1.273,9.014,2.267,13.559,2.94c-0.33,0.563-1.069,1.026-1.894,1.673
		c-1.663,1.31-3.335,2.597-4.991,3.919c-2.561,2.038,1.386,3.186,3.061,1.853c2.104-1.682,4.246-3.311,6.351-4.998
		c0.697-0.557,1.512-1.14,2.101-1.881c5.005,0.484,10.07,0.562,15.247,0.153c-0.035,0.07-0.045,0.139-0.092,0.212
		c-0.756,1.168-2.297,2.18-3.277,3.119c-1.217,1.154-2.428,2.311-3.646,3.467c-0.836,0.789,0.771,0.878,1.146,0.864
		c1.063-0.049,2.303-0.548,3.106-1.31c1.463-1.386,2.916-2.774,4.374-4.163c0.654-0.626,2.114-1.644,2.951-2.679
		c3.615-0.481,7.285-1.171,11.034-2.151C65.388,179.603,64.479,176.37,61.599,177.121"/>
	<path clip-path="url(#SVGID_4_)" fill="#A5D5F4" d="M256.768-23.946l-0.068-4.815c-2.676-0.107-5.347-0.218-8.023-0.325
		c0.019,1.07,0.044,2.14,0.066,3.206c0.046,2.256,1.482,3.905,3.628,3.992c1.763,0.076,4.445-1.389,4.395-3.67
		c-0.019-1.07-0.041-2.134-0.065-3.204c-0.044-2.258-1.483-3.908-3.626-3.995c-1.776-0.072-4.431,1.389-4.397,3.67
		c0.022,1.606,0.047,3.209,0.068,4.821c0.029,2.255,1.491,3.899,3.626,3.989C254.148-20.204,256.801-21.668,256.768-23.946"/>
	<path clip-path="url(#SVGID_4_)" fill="#A5D5F4" d="M198.276-3.586c-0.942-2.377-1.88-4.754-2.821-7.134
		c-1.761-4.462-9.168-1.107-7.288,3.647c0.942,2.383,1.88,4.76,2.823,7.14C192.75,4.528,200.157,1.174,198.276-3.586"/>
	<path clip-path="url(#SVGID_4_)" fill="#A5D5F4" d="M223.645-2.85c0.832,2.331,1.311,4.786,1.603,7.262
		c0.581,4.922,8.523,3.221,7.935-1.731c-0.376-3.192-1.178-6.181-2.251-9.182c-0.757-2.116-3.747-2.36-5.367-1.548
		C223.581-7.054,222.886-4.969,223.645-2.85"/>
	<path clip-path="url(#SVGID_4_)" fill="#A5D5F4" d="M160.07,25.573c-1.249-2.113-2.492-4.224-3.74-6.337
		c-2.414-4.088-9.854-0.699-7.288,3.653c1.248,2.113,2.493,4.224,3.741,6.337C155.196,33.313,162.636,29.924,160.07,25.573"/>
	<path clip-path="url(#SVGID_4_)" fill="#A5D5F4" d="M174.246,23.973c0.855,2.374,1.71,4.751,2.565,7.126
		c0.757,2.116,3.743,2.362,5.369,1.548c1.976-0.994,2.676-3.079,1.917-5.201c-0.854-2.375-1.708-4.749-2.563-7.126
		c-0.763-2.117-3.745-2.363-5.369-1.548C174.188,19.763,173.485,21.851,174.246,23.973"/>
	<path clip-path="url(#SVGID_4_)" fill="#A5D5F4" d="M100.952,29.542c0.774-2.012,1.798-3.685,3.144-5.308
		c1.365-1.641,0.675-4.253-0.981-5.282c-1.911-1.188-4.218-0.461-5.617,1.221c-1.741,2.099-3.104,4.482-4.1,7.088
		C91.484,32.238,99.233,34.021,100.952,29.542"/>
	<path clip-path="url(#SVGID_4_)" fill="#A5D5F4" d="M61.58,17.415c-2.006,2.955-3.711,6.123-5.093,9.469
		c-2.029,4.911,5.727,6.706,7.554,2.281c1.134-2.742,2.488-5.265,4.137-7.685C71.23,16.977,64.282,13.437,61.58,17.415"/>
	<path clip-path="url(#SVGID_4_)" fill="#A5D5F4" d="M46.444-0.426c0.734-3.137,1.738-6.189,2.892-9.164
		c1.92-4.972-5.829-6.761-7.556-2.284c-1.398,3.624-2.471,7.323-3.36,11.126c-0.52,2.209,1.891,3.922,3.627,3.992
		C44.277,3.337,45.92,1.809,46.444-0.426"/>
	<path clip-path="url(#SVGID_4_)" fill="#A5D5F4" d="M5.445-8.416C4.205-4.34,3.384-0.194,3.108,4.09
		c-0.334,5.164,7.711,5.184,8.025,0.319c0.236-3.609,0.82-7.1,1.866-10.547C14.56-11.249,6.849-13.031,5.445-8.416"/>
	<path clip-path="url(#SVGID_4_)" fill="#A5D5F4" d="M-8.898-16.426c-0.216-2.661-0.433-5.323-0.648-7.987
		c-0.188-2.276-2.912-3.253-4.667-2.87c-2.105,0.458-3.462,2.311-3.275,4.601c0.217,2.656,0.434,5.32,0.65,7.981
		c0.188,2.276,2.91,3.252,4.666,2.87C-10.066-12.286-8.709-14.139-8.898-16.426"/>
	<path clip-path="url(#SVGID_4_)" fill="#A5D5F4" d="M22.924,48.084c0.827-2.252,1.66-4.499,2.493-6.749
		c1.844-5.004-5.897-6.787-7.56-2.278c-0.828,2.247-1.66,4.496-2.487,6.749C13.524,50.809,21.264,52.592,22.924,48.084"/>
	<path clip-path="url(#SVGID_4_)" fill="#A5D5F4" d="M76.511,85.071c1.447-1.867,2.898-3.731,4.351-5.601
		c1.311-1.685,0.717-4.227-0.981-5.282c-1.864-1.163-4.273-0.504-5.617,1.221c-1.451,1.864-2.902,3.731-4.351,5.598
		c-1.306,1.685-0.717,4.23,0.982,5.285C72.757,87.448,75.172,86.795,76.511,85.071"/>
	<path clip-path="url(#SVGID_4_)" fill="#A5D5F4" d="M177.216,91.501c-1.494-1.945-2.988-3.891-4.48-5.836
		c-2.868-3.726-9.345,1.122-6.16,5.265c1.498,1.939,2.992,3.888,4.485,5.83C173.925,100.491,180.4,95.644,177.216,91.501"/>
	<path clip-path="url(#SVGID_4_)" fill="#A5D5F4" d="M224.254,47.194c-0.515-2.229-1.033-4.465-1.553-6.697
		c-1.12-4.835-9.063-3.11-7.937,1.728c0.515,2.232,1.033,4.464,1.548,6.694C217.433,53.758,225.374,52.033,224.254,47.194"/>
	<path clip-path="url(#SVGID_4_)" fill="#A5D5F4" d="M105.461,147.443l5.127-3.975c1.614-1.25,1.889-3.894,0.476-5.421
		c-1.542-1.664-4.022-1.444-5.683-0.159l-5.128,3.972c-1.615,1.258-1.89,3.894-0.47,5.424
		C101.323,148.948,103.801,148.727,105.461,147.443"/>
	<path clip-path="url(#SVGID_4_)" fill="#A5D5F4" d="M153.531,140.619c-1.916-1.632-3.835-3.265-5.751-4.894
		c-1.66-1.415-3.949-1.652-5.679-0.159c-1.404,1.206-2.136,4.009-0.475,5.418c1.915,1.635,3.835,3.267,5.75,4.899
		c1.66,1.409,3.947,1.649,5.68,0.159C154.46,144.834,155.188,142.03,153.531,140.619"/>
	<path clip-path="url(#SVGID_4_)" fill="#A5D5F4" d="M172.307,209.19c-1.688,2.813-3.372,5.624-5.062,8.434
		c-2.805,4.67,4.105,8.213,6.596,4.064c1.689-2.81,3.374-5.621,5.063-8.434C181.703,208.582,174.797,205.039,172.307,209.19"/>
	<path clip-path="url(#SVGID_4_)" fill="#A5D5F4" d="M76.547,214.954c2.279,1.722,3.84,4.085,4.664,6.949
		c0.626,2.18,2.589,3.322,4.662,2.87c1.748-0.377,3.91-2.4,3.28-4.599c-1.442-5.015-4.001-8.723-7.971-11.724
		C77.431,205.616,72.332,211.765,76.547,214.954"/>
	<path clip-path="url(#SVGID_4_)" fill="#A5D5F4" d="M211.687,227.539c0.196,2.604,0.389,5.203,0.583,7.801
		c0.166,2.276,2.92,3.256,4.663,2.876c2.122-0.464,3.445-2.311,3.274-4.601c-0.193-2.604-0.386-5.204-0.578-7.802
		c-0.172-2.275-2.924-3.255-4.667-2.876C212.843,223.396,211.516,225.248,211.687,227.539"/>
	<path clip-path="url(#SVGID_4_)" fill="#A5D5F4" d="M31.625,229.971c0.198,3.337,0.396,6.674,0.595,10.011
		c0.136,2.279,2.943,3.244,4.666,2.873c2.144-0.464,3.409-2.305,3.276-4.595c-0.2-3.343-0.4-6.68-0.595-10.014
		c-0.138-2.281-2.948-3.247-4.666-2.876C32.754,225.837,31.489,227.678,31.625,229.971"/>
	<path clip-path="url(#SVGID_4_)" fill="#A5D5F4" d="M112.438,216.044c4.879-0.125,6.039-7.802,0.771-7.665
		C108.33,208.503,107.168,216.18,112.438,216.044"/>
	<path clip-path="url(#SVGID_4_)" fill="#A5D5F4" d="M144.623,215.595c4.879-0.128,6.039-7.799,0.771-7.662
		C140.515,208.057,139.354,215.728,144.623,215.595"/>
	<path clip-path="url(#SVGID_4_)" fill="#A5D5F4" d="M157.715,271.892c4.88-0.124,6.04-7.801,0.771-7.665
		C153.606,264.352,152.446,272.028,157.715,271.892"/>
	<path clip-path="url(#SVGID_4_)" fill="#A5D5F4" d="M101.548,273.167c4.879-0.127,6.039-7.798,0.771-7.662
		C97.44,265.63,96.279,273.301,101.548,273.167"/>
	<path clip-path="url(#SVGID_4_)" fill="#A5D5F4" d="M60.306,272.068c-1.508-2.96-2.271-5.954-2.499-9.323
		c-0.151-2.281-2.933-3.253-4.663-2.876c-2.13,0.464-3.429,2.308-3.275,4.601c0.271,4.001,1.36,7.744,3.15,11.252
		C55.191,279.983,62.622,276.605,60.306,272.068"/>
	<path clip-path="url(#SVGID_4_)" fill="#A5D5F4" d="M197.129,270.575c-0.517-3.224-1.032-6.444-1.548-9.674
		c-0.785-4.905-8.728-3.194-7.94,1.728c0.515,3.221,1.031,6.451,1.546,9.672C189.974,277.212,197.915,275.501,197.129,270.575"/>
	<path clip-path="url(#SVGID_4_)" fill="#A5D5F4" d="M152.148,351.765c-1.111,0.15-2.222,0.304-3.332,0.455
		c-1.944,0.261-3.672,2.464-3.279,4.595c0.442,2.371,2.724,3.137,4.666,2.876c1.11-0.15,2.222-0.299,3.333-0.455
		c1.944-0.264,3.671-2.464,3.275-4.595C156.372,352.271,154.089,351.498,152.148,351.765"/>
	<path clip-path="url(#SVGID_4_)" fill="#A5D5F4" d="M108.315,360.818c1.24-0.018,2.472-0.038,3.712-0.061
		c1.991-0.026,4.171-1.322,4.397-3.671c0.213-2.183-1.664-4.023-3.627-3.992c-1.233,0.021-2.472,0.038-3.712,0.062
		c-1.99,0.028-4.169,1.321-4.397,3.67C104.475,359.009,106.354,360.85,108.315,360.818"/>
</g>
<g>
	<defs>
		<polygon id="SVGID_5_" points="0.283,1.098 1.387,210.164 256.804,176.164 255.699,0.159 		"/>
	</defs>
	<clipPath id="SVGID_6_">
		<use xlink:href="#SVGID_5_"  overflow="visible"/>
	</clipPath>
	<path clip-path="url(#SVGID_6_)" fill="#192429" d="M248.764,96.289c-8.668,12.385-14.571,25.083-27.381,33.621
		c-12.81,8.535-28.096,11.938-43.23,12.854c0.148-0.98,0.075-2.244,0.352-3.154c4.669-15.449,10.509-27.735,24.111-36.633
		C216.216,94.077,233.026,92.384,248.764,96.289"/>
	<path clip-path="url(#SVGID_6_)" fill="#192429" d="M8.631,101.321c8.971,12.011,15.119,24.39,28.123,32.441
		c13.001,8.048,28.411,10.915,43.525,11.28c-0.171-0.971-0.128-2.238-0.427-3.134c-5.041-15.247-11.123-27.272-24.963-35.659
		C41.049,97.872,24.209,96.848,8.631,101.321"/>
	<path clip-path="url(#SVGID_6_)" fill="#C1E3F6" d="M69.943,333.665c0.114,9.544-6.506,16.896-15.314,17.038
		c-8.807,0.14-15.613-6.992-15.735-16.521c-0.126-9.529,6.499-16.879,15.31-17.026C63.016,317.002,69.83,324.125,69.943,333.665"/>
	<path clip-path="url(#SVGID_6_)" fill="#C1E3F6" d="M217.983,331.387c0.105,9.529-6.511,16.882-15.322,17.018
		c-8.812,0.143-15.589-7.024-15.698-16.554c-0.104-9.529,6.509-16.879,15.323-17.018
		C211.092,314.696,217.877,321.852,217.983,331.387"/>
	<path clip-path="url(#SVGID_6_)" fill="#133C5A" d="M-37.163,48.462c1.98,0.417,4.429,1.096,5.582,1.948
		c0.909,0.678,1.917,1.792,2.519,2.638c0.021,0.038,1.456,2.841,1.272,2.797c-1.364-0.342,3.479-3.456,3.571-3.476
		c2.077-0.435,3.957,3.026,3.8,3.061c0.266-0.061,0.885-1.391,1.262-1.786c1.31-1.357,3.18-2.339,4.69-3.421
		c10.489-7.465,0.283-25.517-10.267-18.005c-8.236,5.867-16.495,13.616-15.078,25.471c1.391,11.663,13.248,20.03,23.34,13.681
		c9.351-5.876,9.733-19.087,4.695-28.284c-4.462-8.141-12.158-13.352-20.636-15.153C-44.74,25.323-49.527,45.839-37.163,48.462"/>
	<path clip-path="url(#SVGID_6_)" fill="#133C5A" d="M281.749,37.863c-2.023,1.456-3.925,2.673-6.357,2.98
		c-1.039,0.133-2.041,0.058-3.049-0.188c-3.687-0.884-1.181-0.763-1.471-0.151c-1.514,3.232,0.22,5.279-4.211,5.781
		c-0.754,0.087-1.082-0.638-1.276-0.42c-0.028,0.032,0.219,2.395,0.197,2.737c-0.115,1.754-0.641,3.557-0.961,5.262
		c-2.518,13.324,16.451,18.496,18.974,5.137c1.877-9.932,2.854-21.383-4.991-28.851c-7.586-7.222-19.751-6.225-25.1,3.534
		c-5.785,10.552,1.448,22.766,11.014,26.471c9.387,3.642,19.319,1.601,27.504-4.285C302.47,48.355,292.273,30.297,281.749,37.863"/>
</g>
<polygon fill="#FFFFFF" points="255.701,173.961 255.701,384.277 0.283,384.277 0.283,207.964 "/>
<g>
	<defs>
		<polygon id="SVGID_7_" points="0.283,207.553 0.283,383.866 255.701,383.866 255.701,173.549 		"/>
	</defs>
	<clipPath id="SVGID_8_">
		<use xlink:href="#SVGID_7_"  overflow="visible"/>
	</clipPath>
	<path clip-path="url(#SVGID_8_)" fill="#6C571B" d="M-31.934,269.204c1.647,47.122,13.065,102.141,49.229,132.793
		c22.315,18.916,49.854,19.618,77.177,21.273c32.222,1.948,64.609,0.672,96.616-3.813c39.885-5.593,75.819-35.128,88.291-77.719
		c4.139-14.142,2.896-32.901,3.315-47.641c0.462-16.188,0.308-32.397-0.461-48.571c-0.997-21.029-3.03-42.005-6.078-62.806
		c-1.541-10.498-3.337-20.952-5.391-31.351c-12.566-63.56-33.319-95.786-58.436-154.665c-11.354-26.617-23.823-53.398-40.272-76.832
		c-9.133-13.011-22.921-40.118-39.768-39.97c-0.029,0.003-0.054,0.003-0.082,0.003c-24.078,0.745-43.404,44.721-54.634,63.496
		C54.865-18.619,36.941,22.833,20.851,64.474c-28.35,73.364-54.601,119.784-52.909,200.254
		C-32.029,266.219-31.989,267.708-31.934,269.204"/>
	<polygon clip-path="url(#SVGID_8_)" fill="#271B3A" points="-4.59,184.598 246.383,183.676 246.873,340.38 -4.098,341.302 	"/>
	<path clip-path="url(#SVGID_8_)" fill="#B9905B" d="M-32.017,278.125c0.029,1.449,0.07,2.904,0.121,4.36
		c1.604,45.938,12.709,99.574,47.877,129.455c21.702,18.441,48.483,19.128,75.056,20.74c31.334,1.898,62.833,0.655,93.958-3.717
		c38.787-5.45,73.733-34.244,85.86-75.762c4.023-13.788,2.817-32.075,3.225-46.443c0.45-15.782,0.298-31.585-0.447-47.354
		c-0.97-20.499-2.948-40.946-5.913-61.226c-1.498-10.234-3.247-20.424-5.244-30.562c-12.219-61.962-32.404-93.382-56.828-150.781
		c-11.042-25.947-23.167-52.056-39.163-74.897c-8.882-12.687-22.292-39.115-38.676-38.967c-0.028,0.003-0.054,0.003-0.079,0.003
		c-23.414,0.728-42.208,43.597-53.129,61.898C52.514,1.898,35.083,42.305,19.435,82.901
		C-8.136,154.418-33.663,199.676-32.017,278.125 M149.148,245.049c0.393-1.611,1.668-2.925,3.169-3.702
		c0.666-0.348,1.372-0.597,2.103-0.785c0.908-0.232,1.854-0.368,2.792-0.455c2.95-0.278,5.936-0.143,8.844,0.397
		c4.005,0.75,6.687,4.4,2.271,6.845c-3.687,2.04-8.846,4.174-13.186,3.937C151.793,251.1,148.278,248.633,149.148,245.049
		 M78.163,242.179c0.392-2.951,3.379-3.52,5.504-4.224c4.456-1.476,23.216-4.038,20.095,6.987c-0.638,2.255-2.414,3.913-4.363,4.705
		c-0.342,0.139-0.688,0.258-1.04,0.351c-1.655,0.449-3.396,0.455-5.098,0.351c-3.948-0.246-7.965-1.029-11.708-2.502
		C79.524,247.05,77.825,244.728,78.163,242.179"/>
	<path clip-path="url(#SVGID_8_)" fill="#FBD08D" d="M-17.481,256.048c-1.943,45.925,7.066,105.333,43.57,136.347
		c20.42,17.354,45.621,17.998,70.624,19.512c29.489,1.791,67.168,4.177,96.456,0.063c36.497-5.129,57.285-33.206,68.694-72.277
		c3.788-12.971,5.561-33.415,5.946-46.938c0.424-14.847-1.309-28.521-2.008-43.356C260.947,146.944,221.152,70.2,177.75-18.421
		c-8.546-17.456-26.188-61.713-46.467-66.105c-19.78-4.282-47.958,56.981-56.651,75.953C39.488,68.118,18.738,108.627-4.59,184.598
		C-12.665,210.896-16.244,226.719-17.481,256.048 M148.142,245.979c0.453-2.063,1.93-3.745,3.661-4.739
		c0.77-0.441,1.585-0.766,2.431-1.004c1.051-0.301,2.142-0.472,3.229-0.585c3.407-0.354,6.857-0.18,10.218,0.519
		c4.631,0.96,7.731,5.639,2.632,8.767c-4.263,2.612-10.228,5.344-15.24,5.039C151.199,253.737,147.14,250.575,148.142,245.979
		 M76.642,242.776c0.409-2.919,3.54-3.484,5.76-4.184c10.348-3.244,23.762-2.238,21.026,6.908c-0.667,2.238-2.528,3.88-4.57,4.665
		c-0.356,0.137-0.72,0.249-1.086,0.345c-1.73,0.446-3.552,0.455-5.333,0.346c-4.13-0.241-8.332-1.015-12.25-2.465
		C78.063,247.595,76.287,245.302,76.642,242.776"/>
	<path clip-path="url(#SVGID_8_)" fill="#B9905B" d="M231.538,268.434l-90.809,39.265c-9.953,4.309-21.089,4.082-30.888-0.623
		L20.219,264.05c-1.1-0.527-0.521-2.322,0.642-1.997l95.032,26.752c6.046,1.699,12.379,1.833,18.484,0.395l96.588-22.784
		C232.141,266.14,232.654,267.952,231.538,268.434"/>
	<path clip-path="url(#SVGID_8_)" fill="#916C3E" d="M139.681,181.887l-25.187,0.093c-9.791,0.038-17.757-8.523-17.789-19.11
		l-0.007-1.542c-0.017-5.949,4.427-10.788,9.925-10.808l41.438-0.151c5.497-0.021,9.969,4.783,9.986,10.732l0.003,0.78
		C158.086,172.891,149.859,181.852,139.681,181.887"/>
	<path clip-path="url(#SVGID_8_)" fill="#594619" d="M140.567,171.067l-27.008,0.102c-3.642,0.012-6.606-3.177-6.618-7.117
		l-0.003-0.618c-0.008-2.215,1.646-4.018,3.69-4.024l33.059-0.122c2.044-0.009,3.711,1.78,3.719,3.998v0.33
		C147.423,167.719,144.356,171.056,140.567,171.067"/>
	<path clip-path="url(#SVGID_8_)" fill="#594619" d="M262.302,258.747c-0.009-2.354,1.748-4.268,3.925-4.275
		c2.176-0.006,3.948,1.893,3.955,4.247c0.01,2.356-1.751,4.27-3.928,4.275C264.075,263.003,262.307,261.102,262.302,258.747"/>
	<path clip-path="url(#SVGID_8_)" fill="#594619" d="M-25.165,256.077c-0.008-2.412,1.706-4.378,3.829-4.383
		c2.119-0.009,3.85,1.942,3.856,4.354c0.008,2.412-1.709,4.375-3.828,4.384C-23.431,260.44-25.158,258.489-25.165,256.077"/>
	<path clip-path="url(#SVGID_8_)" fill="#B9905B" d="M123.62,279.371l102.905-16.646l-102.403,19.952
		c-0.842,0.162-1.646-0.438-1.8-1.352c-0.147-0.91,0.409-1.782,1.25-1.945C123.589,279.377,123.609,279.371,123.62,279.371"/>
	<path clip-path="url(#SVGID_8_)" fill="#B9905B" d="M123.583,282.671l-92.538-20.764l93.12,17.47
		c0.84,0.16,1.407,1.026,1.258,1.939c-0.146,0.91-0.946,1.52-1.79,1.366C123.62,282.677,123.597,282.674,123.583,282.671"/>
	<path clip-path="url(#SVGID_8_)" fill="#594619" d="M154.151,239.509c0.987-0.281,2.012-0.443,3.028-0.548
		c3.191-0.33,6.429-0.168,9.578,0.487c4.343,0.898,7.25,5.288,2.467,8.216c-3.996,2.453-9.586,5.013-14.286,4.72
		c-3.626-0.218-7.436-3.181-6.494-7.488c0.424-1.939,1.807-3.511,3.431-4.441C152.595,240.037,153.363,239.732,154.151,239.509"/>
	<path clip-path="url(#SVGID_8_)" fill="#594619" d="M97.923,249.845c-1.715,0.443-3.521,0.452-5.288,0.345
		c-4.089-0.241-8.255-1.003-12.138-2.441c-2.105-0.779-3.865-3.05-3.514-5.546c0.405-2.888,3.507-3.444,5.708-4.131
		c4.617-1.447,24.069-3.957,20.834,6.827c-0.661,2.206-2.503,3.827-4.526,4.606C98.645,249.639,98.286,249.755,97.923,249.845"/>
	<path clip-path="url(#SVGID_8_)" fill="#82661C" d="M143.129,211.828l-35.131,0.128c-2.002,0.009-3.394,2.833-2.724,5.52
		l17.437,70.083c0.89,3.537,4.359,3.702,5.4,0.255l17.698-70.21C146.635,214.873,145.22,211.82,143.129,211.828"/>
	<path clip-path="url(#SVGID_8_)" fill="#916C3E" d="M136.717,216.206l-22.543,0.084c-1.285,0.003-2.172,2.288-1.742,4.468
		l11.455,63.597c0.568,2.867,2.795,3.001,3.461,0.212l11.089-63.681C138.968,218.671,138.058,216.2,136.717,216.206"/>
	<path clip-path="url(#SVGID_8_)" fill="#916C3E" d="M192.327,280.389c-11.054,5.677-22.375,10.379-33.779,14.785
		c-5.716,2.154-11.433,4.3-17.199,6.283l-8.783,2.957c-3.547,1.066-7.364,1.174-10.954,0.223c-1.924-0.504-3.261-1.128-4.685-1.623
		l-4.288-1.606c-2.852-1.087-5.727-2.104-8.556-3.271c-5.667-2.281-11.369-4.479-16.985-6.932
		c-11.275-4.774-22.471-9.824-33.411-15.684c11.997,2.447,23.746,5.705,35.415,9.236c5.853,1.699,11.625,3.659,17.426,5.522
		c2.906,0.914,5.768,1.972,8.65,2.966l4.319,1.508c1.454,0.49,2.937,1.081,3.965,1.313c2.299,0.536,4.711,0.542,7-0.11l8.598-2.676
		c5.818-1.792,11.682-3.421,17.551-5.042C168.371,285.103,180.216,282.259,192.327,280.389"/>
</g>
</svg>
