<?xml version="1.0" encoding="utf-8"?>
<!-- Generator: Adobe Illustrator 16.0.0, SVG Export Plug-In . SVG Version: 6.00 Build 0)  -->
<!DOCTYPE svg PUBLIC "-//W3C//DTD SVG 1.1//EN" "http://www.w3.org/Graphics/SVG/1.1/DTD/svg11.dtd">
<svg version="1.1" id="Capa_1" xmlns="http://www.w3.org/2000/svg" xmlns:xlink="http://www.w3.org/1999/xlink" x="0px" y="0px"
	 width="256px" height="384px" viewBox="0 0 256 384" enable-background="new 0 0 256 384" xml:space="preserve">
<g>
	<polygon fill="#FFFFFF" points="256,175.226 256,0 0.001,0 0.001,208.979 	"/>
	<g>
		<defs>
			<polygon id="SVGID_1_" points="0,0 0,208.979 256.001,175.227 256.001,0 			"/>
		</defs>
		<clipPath id="SVGID_2_">
			<use xlink:href="#SVGID_1_"  overflow="visible"/>
		</clipPath>
		<path clip-path="url(#SVGID_2_)" fill="#491B15" d="M285.889,77.557c0,0-7.808-55.2-7.809-55.204
			c-6.205-95.133-80.499-142.247-154.222-141.434c-5.651-0.104-11.308-0.014-16.94,0.462
			C41.521-113.074-20.246-68.261-26.794,15.883l-8.243,53.403c0,0-2.623,15.413-2.479,37.204
			c-0.406,20.317,1.311,47.788,10.337,74.128c24.291,70.875,62.019,156.154,141.024,163.861
			c81.935,7.985,147.261-83.233,162.906-161.668C294.686,132.583,285.889,77.557,285.889,77.557"/>
		<path clip-path="url(#SVGID_2_)" fill="#AA1A17" d="M113.036-112.232c-65.657,5.48-127.66,49.828-134.226,133.108l-8.271,52.856
			c0,0-9.222,52.672,7.621,101.114C1.809,242.859,38.54,324.697,115.443,332.096c79.751,7.673,143.332-79.852,158.553-155.116
			c17.451-48.195,8.889-100.998,8.889-100.998s-7.605-52.971-7.609-52.974C268.889-73.424,188.547-118.532,113.036-112.232"/>
		<path clip-path="url(#SVGID_2_)" fill="#CE3431" d="M108.66-112.284C45.005-106.97-15.113-63.976-21.479,16.768l-8.018,51.245
			c0,0-8.944,51.07,7.386,98.037C0.822,231.99,36.433,311.335,110.991,318.51c77.326,7.439,138.968-77.42,153.725-150.393
			c16.921-46.726,8.619-97.925,8.619-97.925s-7.377-51.354-7.377-51.359C259.766-74.657,181.869-118.395,108.66-112.284"/>
		<g opacity="0.77" clip-path="url(#SVGID_2_)">
			<g>
				<defs>
					<rect id="SVGID_3_" x="71.64" y="54.374" width="25.979" height="27.82"/>
				</defs>
				<clipPath id="SVGID_4_">
					<use xlink:href="#SVGID_3_"  overflow="visible"/>
				</clipPath>
				<g clip-path="url(#SVGID_4_)">
					<defs>
						<polygon id="SVGID_5_" points="71.647,82.007 97.439,82.192 97.611,54.56 71.82,54.374 						"/>
					</defs>
					<clipPath id="SVGID_6_">
						<use xlink:href="#SVGID_5_"  overflow="visible"/>
					</clipPath>
					<path clip-path="url(#SVGID_6_)" fill="#F7C5C6" d="M83.475,82.043c-7.094-0.684-12.327-7.401-11.688-15
						c0.638-7.6,6.907-13.205,14-12.52c7.094,0.684,12.327,7.397,11.688,14.997C96.837,77.12,90.568,82.728,83.475,82.043"/>
				</g>
			</g>
		</g>
		<g opacity="0.77" clip-path="url(#SVGID_2_)">
			<g>
				<defs>
					<rect id="SVGID_7_" x="115.111" y="112.867" width="22.237" height="42.459"/>
				</defs>
				<clipPath id="SVGID_8_">
					<use xlink:href="#SVGID_7_"  overflow="visible"/>
				</clipPath>
				<g clip-path="url(#SVGID_8_)">
					<defs>
						<polygon id="SVGID_9_" points="115.112,155.168 137.081,155.327 137.347,113.025 115.378,112.867 						"/>
					</defs>
					<clipPath id="SVGID_10_">
						<use xlink:href="#SVGID_9_"  overflow="visible"/>
					</clipPath>
					<path clip-path="url(#SVGID_10_)" fill="#F7C5C6" d="M126.097,155.249c-6.066-0.046-10.925-9.55-10.851-21.23
						c0.072-11.681,5.049-21.112,11.117-21.068c6.066,0.044,10.925,9.547,10.851,21.228
						C137.142,145.855,132.163,155.292,126.097,155.249"/>
				</g>
			</g>
		</g>
		<g opacity="0.77" clip-path="url(#SVGID_2_)">
			<g>
				<defs>
					<rect id="SVGID_11_" x="177.876" y="55.139" width="25.965" height="27.82"/>
				</defs>
				<clipPath id="SVGID_12_">
					<use xlink:href="#SVGID_11_"  overflow="visible"/>
				</clipPath>
				<g clip-path="url(#SVGID_12_)">
					<defs>
						<polygon id="SVGID_13_" points="177.881,82.773 203.672,82.958 203.846,55.324 178.056,55.139 						"/>
					</defs>
					<clipPath id="SVGID_14_">
						<use xlink:href="#SVGID_13_"  overflow="visible"/>
					</clipPath>
					<path clip-path="url(#SVGID_14_)" fill="#F7C5C6" d="M189.707,82.808c-7.094-0.684-12.328-7.401-11.689-14.999
						c0.64-7.601,6.907-13.205,14.001-12.52c7.094,0.683,12.327,7.396,11.688,14.996C203.066,77.884,196.798,83.492,189.707,82.808"
						/>
				</g>
			</g>
		</g>
		<path clip-path="url(#SVGID_2_)" fill="#831D13" d="M93.28,137.484c-9.754,1.311-17.815,10.084-18.759,19.82
			c-1.061,9.669,4.952,19.518,13.055,22.597l1.458,0.48c0.255,0.05,0.478,0.023,0.587-0.027c0.227-0.197,0.103,0.091,0.306-0.792
			c0.11-0.79,0.059-2.01,0.011-3.335c-0.019-0.682-0.039-1.4,0.001-2.222c0.061-0.89,0.192-1.779,0.446-2.616
			c0.988-3.393,3.286-6.006,6.081-7.543c2.814-1.617,6.367-1.765,9.284-0.765c2.967,0.996,5.524,2.977,7.361,5.6
			c1.87,2.649,2.845,5.789,3.129,8.901c0.138,1.649,0.986,2.996,2.278,3.732c0.634,0.374,1.328,0.529,2.069,0.547l3.672,0.005
			l3.646,0.025c0.712-0.013,1.425-0.168,2.048-0.544c1.286-0.761,2.128-1.999,2.276-3.78c0.344-3.117,1.389-6.233,3.308-8.849
			c1.908-2.556,4.478-4.519,7.479-5.457c2.949-0.948,6.507-0.676,9.299,1.004c2.772,1.612,5.017,4.299,5.937,7.737
			c0.451,1.703,0.512,3.576,0.137,5.317c-0.229,1.033-0.24,1.816-0.08,2.395c0.112,0.351,0.273,0.728,0.369,0.872
			c0.11,0.161,0.083,0.132,0.119,0.175c0.075,0.109,1.009,0.045,2.042-0.414c8.115-2.924,14.218-12.699,13.256-22.309
			c-0.842-9.661-8.725-18.562-18.409-19.938l-0.387-0.051l0.287-0.24l1.998-1.662l-1.776,1.909l-0.101-0.296
			c9.987,0.062,19.571,8.57,21.582,19.779c1.845,11.304-4.412,23.388-14.733,27.79c-1.207,0.493-2.754,1.273-5.094,0.747
			c-1.146-0.301-2.221-1.12-2.864-1.988c-0.672-0.888-1.012-1.721-1.313-2.599c-0.618-1.926-0.468-3.859-0.179-5.375
			c0.147-0.82,0.094-1.647-0.146-2.458c-0.469-1.62-1.755-3.14-3.302-3.951c-1.537-0.84-3.221-0.906-4.946-0.333
			c-1.692,0.561-3.299,1.78-4.417,3.328c-1.105,1.522-1.795,3.521-1.999,5.607c-0.212,3.462-2.328,7.166-5.396,8.855
			c-1.516,0.915-3.261,1.363-4.987,1.384l-3.695-0.019l-3.666-0.045c-1.695-0.026-3.459-0.478-4.964-1.387
			c-3.064-1.71-5.167-5.319-5.394-8.907c-0.167-2.092-0.811-4.112-1.891-5.664c-1.086-1.58-2.667-2.832-4.349-3.472
			c-1.722-0.603-3.431-0.608-4.992,0.21c-1.574,0.78-2.905,2.271-3.412,3.898c-0.611,1.335,0.026,3.986-0.545,7.446
			c-0.176,0.885-0.478,1.936-1.215,2.947c-0.752,1.029-1.832,1.671-2.878,1.97c-1.078,0.288-2.114,0.219-3.044-0.037
			c-0.809-0.269-1.341-0.511-2.019-0.773C75.621,180.165,69.572,168,71.551,156.796C73.72,145.703,83.344,137.32,93.28,137.484"/>
		<path clip-path="url(#SVGID_2_)" fill="#831D13" d="M91.279,25.845c-2.493-0.503-4.435-2.23-5.578-4.185
			c-1.155-1.974-1.696-4.344-1.347-6.738c0.775-4.667,4.171-7.789,7.898-8.782c3.763-0.94,7.449,0.187,10.325,2.193
			c2.885,2.035,4.957,4.87,6.566,7.774c3.245,5.86,4.814,12.442,5.525,18.922c0.714,6.516,0.641,13.012,0.528,19.484
			c-0.406-6.458-0.857-12.938-2.068-19.214c-1.196-6.259-3.227-12.34-6.598-17.371c-1.661-2.505-3.654-4.696-5.962-6.021
			c-2.266-1.313-4.953-1.726-7.072-0.94c-2.052,0.713-3.696,2.86-3.733,4.705c-0.171,1.705,1.45,3.699,2.514,3.581
			c1.748-0.202,3.316,1.152,3.503,3.027c0.188,1.871-1.08,3.554-2.827,3.753c-0.312,0.035-0.621,0.023-0.916-0.036L91.279,25.845z"
			/>
		<path clip-path="url(#SVGID_2_)" fill="#831D13" d="M20.242,66.254C12.053,62.775,6.709,54.83,4.508,46.502
			C2.3,37.979,3.293,29.198,5.621,21.308C10.434,5.59,19.617-8.461,32.02-18.117c12.353-9.632,27.995-14.421,43.072-12.412
			c15.022,1.984,29.146,11.054,37.175,24.618c-8.471-13.254-22.714-21.58-37.339-22.958c-14.7-1.403-29.594,3.826-41.04,13.419
			C22.39-5.851,14.097,7.94,10.101,22.733c-1.923,7.351-2.425,15.173-0.368,22.088c2.039,6.884,6.714,12.955,12.685,15.174
			c1.628,0.605,2.489,2.51,1.923,4.25c-0.563,1.743-2.341,2.67-3.969,2.063C20.334,66.294,20.282,66.269,20.242,66.254"/>
		<path clip-path="url(#SVGID_2_)" fill="#831D13" d="M162.715,19.757c1.058,0.137,2.704-1.837,2.554-3.54
			c-0.015-1.846-1.63-4.016-3.674-4.757c-2.104-0.818-4.802-0.444-7.082,0.838c-2.324,1.291-4.343,3.452-6.036,5.929
			c-3.437,4.984-5.543,11.033-6.818,17.275c-1.288,6.262-1.821,12.731-2.308,19.181c-0.032-6.468-0.024-12.968,0.773-19.47
			c0.793-6.47,2.441-13.031,5.759-18.839c1.646-2.885,3.755-5.687,6.667-7.68c2.899-1.965,6.597-3.04,10.349-2.044
			c3.718,1.043,7.069,4.217,7.789,8.89c0.316,2.404-0.254,4.761-1.433,6.718c-1.167,1.944-3.131,3.638-5.63,4.105l-0.745,0.139
			c-1.732,0.325-3.382-0.918-3.683-2.772c-0.302-1.854,0.853-3.622,2.59-3.947C162.094,19.725,162.415,19.72,162.715,19.757"/>
		<path clip-path="url(#SVGID_2_)" fill="#831D13" d="M232.052,61.503c5.999-2.134,10.748-8.135,12.878-14.99
			c2.142-6.885,1.734-14.714-0.096-22.094c-3.81-14.85-11.93-28.756-23.309-38.519c-11.321-9.756-26.148-15.2-40.861-14.011
			c-14.642,1.17-28.993,9.285-37.628,22.417c8.201-13.444,22.435-22.31,37.481-24.078c15.099-1.79,30.683,3.222,42.913,13.028
			C235.71-6.91,244.716,7.276,249.336,23.06c2.224,7.922,3.108,16.721,0.792,25.212c-2.306,8.292-7.75,16.161-15.979,19.522
			c-1.605,0.66-3.407-0.204-4.028-1.925c-0.615-1.722,0.19-3.654,1.797-4.314C231.958,61.538,232.012,61.517,232.052,61.503"/>
		<path clip-path="url(#SVGID_2_)" fill="#831D13" d="M64.088-61.117c5.61-1.949,11.894-1.343,17.615,0.492
			c5.755,1.873,11.104,4.988,16.044,8.367c9.873,6.691,19.083,14.224,29.729,15.757c5.232,0.891,10.385,0.172,14.871-2.601
			c4.641-2.649,8.721-7.098,13.668-10.826c9.985-7.875,23.024-9.957,34.329-7.07c-11.63-0.086-23.032,3.501-31.355,11.192
			c-4.225,3.862-8.244,8.543-13.688,12.179c-5.512,3.704-12.528,4.742-18.73,3.729c-6.261-1.073-12.08-3.729-17.225-7.106
			c-5.119-3.426-9.77-7.249-14.335-10.973c-4.606-3.661-9.221-7.128-14.37-9.592C75.54-60.093,69.935-61.588,64.088-61.117"/>
		<path clip-path="url(#SVGID_2_)" fill="#831D13" d="M69.121-73.554c10.306-2.081,21.333,0.769,30.697,6.154
			c9.523,5.401,16.931,13.671,26.009,15.021c4.446,0.872,8.478-0.344,12.381-3.28c3.971-2.749,7.616-6.906,12.334-9.982
			c9.163-6.252,20.331-8.728,30.6-6.889c-10.331,0.97-20.048,4.802-27.831,11.176c-3.839,3.141-7.238,7.229-11.701,10.864
			c-2.238,1.788-4.869,3.336-7.812,4.214c-2.953,0.88-6.053,0.966-8.947,0.488c-5.794-1.058-10.868-4.065-15.184-7.372
			c-4.32-3.381-8.17-6.858-12.31-9.763C89.028-68.724,79.511-72.818,69.121-73.554"/>
		<path clip-path="url(#SVGID_2_)" fill="#831D13" d="M77.437-85.295c8.753-2.04,18.262-0.881,26.812,2.892
			c4.297,1.786,8.361,4.561,11.966,7.474c3.477,2.864,6.806,5.53,9.972,5.717c6.328,0.875,12.642-8.807,21.223-12.634
			c8.328-4.328,17.747-6.066,26.606-4.656c-8.827,1.389-17.08,4.479-24.276,9.23c-1.779,1.217-3.49,2.523-5.152,3.88
			c-1.625,1.373-3.202,2.919-4.935,4.53c-1.737,1.587-3.655,3.169-5.979,4.443c-2.282,1.288-5.161,2.104-8.021,1.857
			c-2.854-0.305-5.404-1.519-7.49-2.923c-2.114-1.417-3.922-2.977-5.608-4.508c-3.257-3.061-6.636-5.51-10.367-7.714
			C94.734-81.979,86.335-84.553,77.437-85.295"/>
		<path clip-path="url(#SVGID_2_)" fill="#2A2522" d="M86.508,91.836c-0.043,6.766-5.196,12.213-11.511,12.167
			c-6.314-0.044-11.398-5.566-11.355-12.334c0.042-6.763,5.195-12.209,11.507-12.164C81.467,79.551,86.55,85.073,86.508,91.836"/>
		<path clip-path="url(#SVGID_2_)" fill="#2A2522" d="M189.646,92.579c-0.043,6.766-5.196,12.213-11.511,12.167
			c-6.313-0.044-11.396-5.565-11.354-12.334c0.043-6.763,5.194-12.209,11.508-12.164C184.604,80.293,189.688,85.815,189.646,92.579"
			/>
		<path clip-path="url(#SVGID_2_)" fill="#831D13" d="M71.132,106.493c-7.254-0.622-14.215-4.373-19.147-10.259
			c-4.989-5.828-7.893-13.918-7.549-22.167c0.282-8.213,3.742-16.485,9.685-22.208c2.987-2.816,6.499-5.064,10.326-6.418
			c3.832-1.329,7.919-1.834,11.939-1.493c8.051,0.786,15.73,5.243,20.6,12.034c4.906,6.764,6.92,15.579,5.83,23.715
			c-1.04,8.183-5.247,15.592-11.134,20.366C85.849,104.913,78.371,107.27,71.132,106.493 M71.132,106.493
			c3.621,0.301,7.291-0.158,10.73-1.357c3.437-1.213,6.583-3.253,9.26-5.79c5.322-5.176,8.361-12.598,8.573-19.948
			c0.263-7.393-2.375-14.555-6.838-19.727c-4.42-5.213-10.582-8.519-17.03-9.08c-6.433-0.689-13.058,1.375-18.279,5.666
			c-5.266,4.226-9.048,10.787-10.023,18.106c-1.01,7.277,0.746,15.167,5.124,21.274C57.007,101.762,63.884,105.771,71.132,106.493"
			/>
		<path clip-path="url(#SVGID_2_)" fill="#831D13" d="M178.439,107.319c-7.262,0.478-14.65-2.19-20.303-7.272
			c-5.705-5.019-9.642-12.592-10.385-20.809c-0.802-8.176,1.541-16.884,6.671-23.447c2.59-3.241,5.771-5.994,9.381-7.909
			c3.619-1.897,7.599-3.011,11.622-3.281c8.078-0.433,16.268,2.82,21.979,8.81c5.743,5.959,8.899,14.38,8.888,22.604
			c0.044,8.257-3.149,16.228-8.35,21.84C192.806,103.533,185.709,106.994,178.439,107.319 M178.439,107.319
			c3.623-0.253,7.196-1.255,10.446-2.961c3.245-1.721,6.089-4.215,8.408-7.128c4.588-5.927,6.622-13.735,5.87-21.045
			c-0.712-7.352-4.266-14.051-9.363-18.496c-5.057-4.498-11.594-6.844-18.051-6.423c-6.463,0.288-12.749,3.329-17.354,8.365
			c-4.657,4.973-7.544,12.042-7.548,19.437c-0.041,7.356,2.729,14.905,7.866,20.288C163.832,104.763,171.17,107.691,178.439,107.319
			"/>
		<path clip-path="url(#SVGID_2_)" fill="#831D13" d="M95.349,199.291c1.12,9.717,4.184,19.421,9.092,28.221
			c-6.565-7.456-11.808-16.559-15.153-26.655l-0.009-0.031c-0.579-1.75,0.273-3.669,1.907-4.288c1.632-0.621,3.427,0.291,4.006,2.04
			C95.266,198.808,95.322,199.059,95.349,199.291"/>
		<path clip-path="url(#SVGID_2_)" fill="#831D13" d="M162.636,202.405c-3.474,10.047-8.828,19.072-15.485,26.434
			c5.018-8.729,8.203-18.387,9.444-28.089c0.239-1.836,1.818-3.125,3.536-2.875c1.714,0.257,2.917,1.951,2.679,3.787
			c-0.029,0.242-0.083,0.476-0.158,0.694L162.636,202.405z"/>
		<path clip-path="url(#SVGID_2_)" fill="#F08888" d="M95.031,251.57c2.437-4.946,5.187-9.775,9.143-13.385
			c4.57-4.167,11.133-6.411,16.703-4.028c1.735,0.742,3.356,1.904,5.211,2.104c2.71,0.282,5.181-1.546,7.818-2.279
			c4.331-1.203,9.024,0.688,12.398,3.845c3.369,3.151,5.635,7.431,7.636,11.719c0.952,2.031,1.883,4.276,1.465,6.504
			c-0.485,2.599-2.647,4.411-4.75,5.808c-15.764,10.486-36.996,10.51-52.921,0.408c-1.967-1.252-3.239-3.456-3.522-5.891
			C94.017,254.722,94.307,253.047,95.031,251.57"/>
		<path clip-path="url(#SVGID_2_)" fill="#9F1F16" d="M153.939,249.545c-2.004-4.288-4.267-8.567-7.641-11.719
			c-3.369-3.157-8.063-5.048-12.394-3.845c-2.637,0.733-5.108,2.562-7.818,2.273c-1.856-0.193-3.479-1.358-5.211-2.101
			c-5.572-2.38-12.135-0.136-16.703,4.031c-3.957,3.606-6.707,8.438-9.143,13.385c-0.614,1.249-0.896,2.64-0.859,4.038
			c4.5-1.231,9.053-2.075,13.644-2.645c1.446-0.331,2.907-0.579,4.398-0.647c1.73-0.075,3.458-0.13,5.189-0.179
			c3.292-0.176,6.593-0.253,9.904-0.271c1.01-0.035,2.021-0.066,3.035-0.109c8.445-0.374,16.742-0.164,24.921,1.31
			C154.975,251.85,154.465,250.667,153.939,249.545"/>
		<path clip-path="url(#SVGID_2_)" fill="#2A2522" d="M140.016,253.067c-0.021,3.477-7.162,6.242-15.945,6.179
			c-8.786-0.063-15.888-2.933-15.867-6.409c0.021-3.477,7.159-6.245,15.945-6.182C132.933,246.719,140.038,249.588,140.016,253.067"
			/>
		<path clip-path="url(#SVGID_2_)" fill="#831D13" d="M92.921,138.037c0.994-0.44,1.91-1.056,2.877-1.54
			c-3.133-5.667-8.404-10.133-14.394-12.51c-7.855-3.119-16.761-2.877-24.816-0.348c-8.058,2.527-15.325,7.221-21.772,12.752
			c-2.724,2.339-5.357,4.862-8.515,6.553c-3.159,1.685-7.012,2.449-10.303,1.058c-4.99-2.111-6.987-8.147-8-13.547
			C4.514,111.86,6.396,91.177,17.98,76.39l0.974-0.906c-12.123-0.495-24.007,5.934-31.522,15.63
			c-7.511,9.698-10.885,22.323-10.696,34.678c0.191,12.36,3.754,24.478,8.923,35.662c2.454,5.313,5.332,10.527,9.418,14.668
			c4.088,4.139,9.531,7.146,15.291,7.258c6.426,0.124,12.483-3.324,17.115-7.854c4.632-4.529,8.106-10.115,11.838-15.437
			c4.608-6.568,9.734-12.867,16.053-17.736c6.324-4.873,13.959-8.257,21.882-8.426c5.329-0.114,10.764,1.367,15.204,4.313
			C92.612,138.172,92.765,138.105,92.921,138.037"/>
		<path clip-path="url(#SVGID_2_)" fill="#831D13" d="M266.436,91.081c-7.492-9.806-19.451-16.407-31.745-16.087l0.975,0.921
			c11.552,14.955,13.198,35.662,9.435,54.2c-1.096,5.389-3.194,11.396-8.276,13.434c-3.358,1.344-7.251,0.523-10.43-1.208
			c-3.179-1.735-5.813-4.292-8.548-6.675c-6.463-5.62-13.771-10.423-21.901-13.065c-8.131-2.642-17.154-3.013-25.157-0.012
			c-6.883,2.587-12.879,7.844-15.886,14.526c1.021,0.067,2.026,0.24,2.995,0.591c4.782-3.574,10.96-5.331,16.968-5.12
			c8.031,0.287,15.724,3.784,22.067,8.743c6.348,4.961,11.462,11.333,16.05,17.969c3.715,5.373,7.163,11.008,11.799,15.606
			c4.638,4.596,10.736,8.134,17.246,8.101c5.84-0.03,11.396-2.956,15.593-7.036c4.193-4.083,7.175-9.25,9.728-14.527
			c5.381-11.108,9.146-23.176,9.492-35.533C277.189,113.558,273.929,100.887,266.436,91.081"/>
		<path clip-path="url(#SVGID_2_)" fill="#2A2522" d="M111.794,174.709c-0.036,5.684-4.366,10.262-9.671,10.225
			c-5.305-0.039-9.578-4.679-9.542-10.363c0.035-5.685,4.365-10.263,9.67-10.225C107.557,164.385,111.83,169.025,111.794,174.709"/>
		<path clip-path="url(#SVGID_2_)" fill="#2A2522" d="M155.618,175.024c-0.036,5.685-4.366,10.264-9.672,10.225
			c-5.304-0.039-9.577-4.678-9.542-10.363c0.036-5.685,4.366-10.261,9.671-10.224C151.381,164.7,155.653,169.339,155.618,175.024"/>
		<path clip-path="url(#SVGID_2_)" fill="#831D13" d="M129.531,200.396l-3.072,24.765l-3.159-24.75
			c-0.238-1.845,0.967-3.546,2.688-3.796c1.721-0.251,3.307,1.038,3.54,2.883C129.568,199.798,129.565,200.111,129.531,200.396"/>
		<path clip-path="url(#SVGID_2_)" fill="#831D13" d="M24.505,198.428c10.224,32.198,34.879,59.442,65.646,71.396
			c-31.411-9.839-58.581-35.661-71.476-69.036c-0.665-1.704,0.09-3.658,1.677-4.369c1.593-0.708,3.417,0.098,4.081,1.802
			C24.457,198.284,24.485,198.364,24.505,198.428"/>
		<path clip-path="url(#SVGID_2_)" fill="#831D13" d="M59.473,175.837c-2.369,20.05,4.197,41.775,18.028,57.025
			c-15.239-13.621-24.649-35.177-24.248-57.495c0.025-1.848,1.446-3.319,3.169-3.292c1.722,0.024,3.1,1.544,3.074,3.393
			C59.493,175.583,59.483,175.72,59.473,175.837"/>
		<path clip-path="url(#SVGID_2_)" fill="#831D13" d="M234.498,202.342c-13.315,33.185-40.808,58.616-72.338,68.001
			c30.915-11.509,55.908-38.399,66.539-70.444c0.576-1.738,2.355-2.647,3.98-2.031c1.624,0.621,2.472,2.532,1.893,4.268
			C234.552,202.201,234.522,202.278,234.498,202.342"/>
		<path clip-path="url(#SVGID_2_)" fill="#831D13" d="M200.236,176.424c0.122,22.323-9.557,43.741-24.968,57.141
			c14.023-15.055,20.862-36.679,18.743-56.761c-0.19-1.836,1.039-3.494,2.754-3.698c1.714-0.209,3.257,1.114,3.452,2.95
			C200.23,176.171,200.237,176.309,200.236,176.424"/>
	</g>
	<polygon fill="#FFFFFF" points="256,175.226 256,384 0.001,384 0.001,208.979 	"/>
	<g>
		<defs>
			<polygon id="SVGID_15_" points="0,208.979 0,384 256.001,384 256.001,175.227 			"/>
		</defs>
		<clipPath id="SVGID_16_">
			<use xlink:href="#SVGID_15_"  overflow="visible"/>
		</clipPath>
		<path clip-path="url(#SVGID_16_)" fill="#172B24" d="M-118.875,335.316c14.101,17.816,30.699,31.817,51.715,39.325
			c24.872,8.881,50.578,12.372,76.615,12.882c23.236,0.454,45.27,4.25,65.34,18.003c14.1,9.655,26.215,20.517,33.106,37.455
			c7.679,18.876,16.396,37.263,24.58,55.902c9.446,21.528,24.425,29.728,46.604,25.475c12.853-2.464,25.773-4.576,38.583-7.27
			c15.079-3.166,30.424-5.534,44.688-11.94c13.271-5.96,24.398-15.129,27.378-30.979c2.484-13.204,3.066-26.821,4.402-40.264
			c1.854-18.678,0.937-37.44,1.367-56.158c0.813-35.596,1.238-71.175-1.462-106.748c-1.922-25.311-4.776-50.388-9.258-75.365
			c-2.985-16.614-11.687-26.681-25.61-32.769c-4.5-1.966-9.06-4.002-13.779-5.139c-29.5-7.103-59.458-5.091-89.294-4.409
			c-18.928,0.436-37.861,2.869-56.727-0.398c-18.963-3.291-36.88-0.451-53.952,8.966c-3.616,1.991-7.463,3.976-11.416,4.725
			c-27.056,5.153-54.137,7.587-81.173-0.499c-1.234-0.37-2.345-0.407-3.356-0.269l-25.509-16.317
			c0.595-1.004,1.172-2.013,1.844-2.995c0.773-1.138,2.035-2.364,0.979-3.877c-1.316-1.895-2.851-0.403-4.209,0.141
			c-1.086,0.428-2.113,1.089-3.077,1.787c-14.813,10.743-28.035,23.273-38.197,39.146c-13.563,21.194-18.875,45.532-22.214,70.287
			C-145.003,284.385-137.568,311.692-118.875,335.316"/>
		<path clip-path="url(#SVGID_16_)" fill="#F0E6D6" d="M189.14,410.215l12.011-1.845l-0.002,0.195
			c-3.969,0.878-7.938,1.614-11.926,2.23C189.158,410.431,189.14,410.215,189.14,410.215"/>
		<path clip-path="url(#SVGID_16_)" fill="#C3BFE0" d="M-71.427,158.22c-13.964,10.067-26.404,21.821-35.985,36.691
			c-12.766,19.866-17.784,42.67-20.922,65.877c-3.852,28.451,3.154,54.044,20.761,76.2c13.278,16.7,28.927,29.823,48.729,36.859
			c23.435,8.311,47.646,11.589,72.182,12.081c21.882,0.429,42.634,3.982,61.541,16.873c13.291,9.051,24.707,19.215,31.202,35.106
			c7.223,17.687,15.447,34.919,23.163,52.379c8.892,20.197,22.998,27.872,43.898,23.875c12.113-2.303,24.289-4.276,36.359-6.789
			c14.206-2.976,28.662-5.194,42.087-11.212c12.513-5.58,22.98-14.171,25.79-29.028c2.355-12.353,2.901-25.133,4.152-37.717
			c1.737-17.501,0.886-35.09,1.276-52.636c0.774-33.354,1.171-66.714-1.371-100.052c-1.812-23.705-4.509-47.211-8.733-70.625
			c-2.826-15.575-11.022-25.015-24.134-30.707c-4.246-1.848-8.534-3.77-12.971-4.82c-27.797-6.667-56.015-4.774-84.128-4.146
			c-17.842,0.41-35.666,2.695-53.44-0.371c-17.86-3.089-34.739-0.436-50.833,8.402c-3.411,1.869-7.042,3.717-10.747,4.435
			c-25.493,4.82-51.016,7.083-76.477-0.486L-71.427,158.22z"/>
		<path clip-path="url(#SVGID_16_)" fill="#262145" d="M264.669,390.516c0.571-1.14-0.676-2.348-1.663-1.608
			c-3.203,2.406-8.434,8.55-14.661,24.237c-10.422,26.271-34.161,21.63-34.161,21.63s-13.504-3.37-13.063-23.466l-12.013,1.864
			c0,0,4.93,34.324-24.049,32.016c-9.357-0.742-17.182-8.61-22.819-16.015c-2.816-3.71-6.057-7.108-9.851-9.664
			c-1.177-0.791-3.363-2.158-5.651-3.22c-2.04-0.944-3.646,2.046-1.826,3.413c1.715,1.286,3.374,2.656,4.986,4.089
			c7.749,6.91,14.504,15.515,19.631,24.81c1.564,2.844,2.542,6.412,4.601,8.847c6.156,7.272,16.063,6.933,24.404,6.375
			c0,0,17.908-1.218,18.41-12.749c0.4-9.235-0.983-18.153-1.105-21.42c-0.026-0.688,0.494-1.252,1.138-1.243
			c0.595,0.009,1.075,0.513,1.104,1.148c0.219,5.111,2.815,25.693,12.67,28.614c8.819,2.616,18.322-2.464,26.307-5.862
			c11.924-5.076,17.42-21.152,19.207-33.647C258.249,404.808,262.333,395.158,264.669,390.516"/>
		<path clip-path="url(#SVGID_16_)" fill="#262145" d="M187.216,248.327c65.899,2.118,70.764,28.157,70.764,28.157
			c3.344-16.421-6.444-44.488-6.444-44.488c-12.57-34.535-57.977-29.643-57.977-29.643
			C214.843,228.366,187.216,248.327,187.216,248.327 M221.117,210.397c0,0,21.044,1.66,17.235,22.563
			c-2.771,15.24-21.216,12.953-21.216,12.953S231.766,236.116,221.117,210.397"/>
		<path clip-path="url(#SVGID_16_)" fill="#262145" d="M108.525,202.362c0,0,32.023,21.705,73.235,5.583
			c0,0-6.922,24.091-88.924,24.701c-82.004,0.612-101.094-0.798-101.094-0.798s-37.544,1.664-42.011-28.186
			c0,0,17.867,14.792,107.161,14.663c0,0,27.074,1.902,29.387-15.188L108.525,202.362z"/>
		<path clip-path="url(#SVGID_16_)" fill="#262145" d="M103.403,280.551l111.504,1.7c18.705,0.285,33.652,16.765,33.385,36.806
			c-0.265,20.038-15.645,36.057-34.35,35.771l-111.503-1.701c-18.707-0.285-33.654-16.766-33.387-36.805
			C69.318,296.281,84.697,280.266,103.403,280.551"/>
		<polygon clip-path="url(#SVGID_16_)" fill="#F0E6D6" points="238.952,316.124 171.505,293.317 170.791,346.911 		"/>
		<polygon clip-path="url(#SVGID_16_)" fill="#F0E6D6" points="137.975,345.849 85.182,318.239 144.967,290.117 		"/>
		<path clip-path="url(#SVGID_16_)" fill="#262145" d="M123.75,317.991c0.247-18.653,14.563-33.561,31.974-33.296
			c17.409,0.265,31.323,15.604,31.074,34.258c-0.248,18.654-14.563,33.561-31.973,33.293
			C137.417,351.981,123.503,336.646,123.75,317.991"/>
		<path clip-path="url(#SVGID_16_)" fill="#3B2D6D" d="M-112.757,339.204c13.655,17.342,29.728,30.969,50.084,38.278
			c24.085,8.645,48.981,12.041,74.194,12.535c22.504,0.44,43.842,4.133,63.279,17.523c13.653,9.399,25.386,19.967,32.058,36.459
			c7.435,18.372,15.875,36.27,23.801,54.417c9.148,20.957,23.651,28.937,45.132,24.796c12.445-2.397,24.96-4.455,37.366-7.077
			c14.604-3.088,29.464-5.393,43.277-11.632c12.855-5.799,23.629-14.726,26.518-30.16c2.408-12.852,2.971-26.11,4.266-39.195
			c1.798-18.186,0.911-36.448,1.329-54.671c0.788-34.654,1.203-69.289-1.411-103.919c-1.857-24.64-4.62-49.053-8.961-73.365
			c-2.89-16.176-11.313-25.975-24.8-31.9c-4.357-1.913-8.773-3.897-13.345-5.002c-28.565-6.911-57.579-4.95-86.475-4.284
			c-18.331,0.425-36.667,2.793-54.938-0.384c-18.367-3.2-35.715-0.437-52.25,8.731c-3.501,1.94-7.229,3.872-11.055,4.602
			c-26.206,5.019-52.429,7.391-78.612-0.48c-5.677-1.704-9.256,2.638-7.62,8.751c0.684,2.55,1.957,4.747,3.583,6.809
			c10.283,13.048,27.918,12.573,42.582,14.323c16.986,2.032,34.069,3.114,51.157,3.244c44.037,0.339,86.529-10.045,130.204-12.24
			c11.907-0.599,11.912-0.507,10.219,12.35c-2.224,16.863-11.622,27.644-26.797,28.697c-26.03,1.805-52.105,3.444-78.18,3.862
			c-33.114,0.532-66.218-1.123-99.295-3.684c-8.697-0.133-17.425,0.198-26.084-0.483c-23.404-1.848-36.677-17.843-36.302-42.905
			c0.204-13.657,2.708-26.506,10.366-37.784c0.751-1.108,1.97-2.3,0.95-3.774c-1.276-1.843-2.761-0.39-4.078,0.137
			c-1.05,0.417-2.045,1.062-2.98,1.741c-14.344,10.458-27.151,22.657-36.992,38.111c-13.139,20.635-18.286,44.328-21.521,68.427
			C-138.058,289.622-130.858,316.204-112.757,339.204 M266.292,382.158c-1.7,9.281-3.5,18.709-5.13,28.169
			c-0.755,4.371-1.485,8.789-1.719,13.221c-1.102,20.628-11.789,33.288-29.425,39.21c-18.374,6.176-37.08,11.086-56.629,10.455
			c-12.7-0.405-22.908-4.679-29.337-17.684c-7.427-15.034-16.014-29.365-28.865-40.037c-0.195-0.158-0.08-0.748-0.098-1.004
			C168.452,419.919,220.036,416.008,266.292,382.158 M56.056,288.074c3.371-8.969,8.753-16.972,16.529-22.759
			c17.472-13.002,40.409-10.884,60.577-10.85c12.108,0.021,24.198-1.01,36.129-3.315c18.704-3.617,26.735-14.363,25.203-33.556
			c-0.356-4.414-1.115-8.835-2.063-13.155c-2.147-9.772-2.24-9.787,7.243-9.885c8.887-0.102,17.869-0.747,26.498,2.028
			c21.136,6.801,31.528,24.543,33.229,47.292c1.437,19.232,1.874,38.575,0.884,57.849c-0.937,18.093-1.166,36.407-11.681,51.352
			c-4.524,6.427-10.961,9.779-17.665,12.64c-16.125,6.884-33.13,9.503-50.237,11.206c-16.752,1.669-33.581,1.954-55.437,1.934
			c-8.247,0.263-21.368-1.366-34.521-3.116c-26.179-3.482-37.518-31.018-39.034-56.316C51.076,308.912,52.355,297.91,56.056,288.074
			 M-24.869,294.025c12.075-16.416,27.812-25.021,47.059-26.75c3.006-0.271,5.997-0.688,9.001-0.965
			c0.489-0.043,1.008,0.3,1.554,0.476c-18.52,34.494-24.006,69.428-4.056,105.45c-27.751,0.388-54.719-8.524-60.996-39.801
			C-35.08,318.604-33.409,305.626-24.869,294.025 M-78.326,261.021c10.65,0.219,19.769,10.418,19.521,21.834
			c-0.245,11.124-9.406,20.459-20.127,20.508c-10.885,0.052-19.756-9.654-19.61-21.452C-98.398,270.285-89.216,260.8-78.326,261.021
			"/>
	</g>
</g>
</svg>
