<?xml version="1.0" encoding="utf-8"?>
<!-- Generator: Adobe Illustrator 16.0.0, SVG Export Plug-In . SVG Version: 6.00 Build 0)  -->
<!DOCTYPE svg PUBLIC "-//W3C//DTD SVG 1.1//EN" "http://www.w3.org/Graphics/SVG/1.1/DTD/svg11.dtd">
<svg version="1.1" id="Capa_1" xmlns="http://www.w3.org/2000/svg" xmlns:xlink="http://www.w3.org/1999/xlink" x="0px" y="0px"
	 width="271.271px" height="293.922px" viewBox="0 0 271.271 293.922" enable-background="new 0 0 271.271 293.922"
	 xml:space="preserve">
<path fill="#311229" d="M197.999,116.738c0.011-1.032-0.025-2.065-0.065-2.963c1.237-0.391,2.186-1.458,2.153-2.806l-0.013-3.277
	c0.013-1.032-0.615-2.028-1.546-2.533c-0.732-0.411-1.42-0.777-2.156-1.144c-0.232-1.082-0.518-2.115-0.851-3.153
	c8.54-9.426,29.897-36.096,18.735-55.298c-0.48-0.814-1.761-1.006-2.509-0.294c-5.183,5.063-23.527,22.422-33.753,28.646
	l1.742-9.861c0,0-0.725-5.308-0.717-6.025c0.007-0.718-1.577-4.328-1.807-5.81c-0.23-1.441-3.69-0.489-7.386-0.529l-3.698-0.039
	l-10.27-2.535l0.077-6.512l0.329-7.179c0,0-12.9-1.127-15.314-1.152c-2.365-0.025-1.07,2.862-1.07,2.862l-2.737,6.483
	c0,0-6.293-1.504-8.41-1.528c-2.118-0.021-5.316,3.537-5.316,3.537l-2.727,5.538c0,0-3.988,3.772-5.62,4.249
	c-1.583,0.479-5.271-0.056-5.271-0.056l-4.745,0.938l-6.395,3.029c0,0-2.493-10.128-7.845-7.538
	c-3.769,1.848-2.718,13.217-1.808,19.739c-7.949-7.406-22.111-22.822-27.271-28.446c-0.922-1.041-2.798-0.882-3.503,0.322
	c-12.021,20.525,9.408,46.753,18.659,56.641c-0.351,0.489-0.554,1.115-0.514,1.745l0.083,1.212
	c-0.246,0.043-0.494,0.085-0.739,0.128c0,0-38.696,29.669-8.022,95.688c0,0,0.79,4.049,2.202,9.633
	c-0.252,0.494-0.355,1.029-0.364,1.609l-0.042,3.729c-0.024,2.021,1.335,3.695,3.251,4.391c2.329,7.391,5.488,15.145,9.28,19.768
	c2.384,2.896,7.317,2.459,9.125-0.756l4.834-8.479c7.289,17.316,20.959,41.082,40.252,39.445
	c15.687-1.314,27.019-13.406,34.245-24.643c1.76-2.719,3.318-5.486,4.732-8.346l5.058,9.977c1.447,2.756,5.631,3.113,7.534,0.619
	c3.256-4.32,7.933-12.174,13.125-26.217c1.928-0.605,3.328-2.301,3.351-4.318l0.045-3.727c0.006-0.449-0.041-0.857-0.182-1.26
	c2.352-7.295,4.77-15.932,7.206-26.012C221.512,141.685,206.692,123.432,197.999,116.738"/>
<path fill="#832268" d="M173.394,224.083l7.567,15.223c1.364,2.75,5.427,3.09,7.278,0.6c5.203-7.027,14.117-23.586,22.845-61.037
	c13.493-57.895-18.395-70.418-18.395-70.418l-2.942,32.215L173.394,224.083z"/>
<path fill="#832268" d="M79.527,98.407c0,0-37.509,29.454-7.776,94.975c0,0,5.212,27.975,13.89,38.803
	c2.305,2.869,7.078,2.432,8.855-0.744l5.628-10.049C100.125,221.391,112.93,91.121,79.527,98.407"/>
<path fill="#C868A7" d="M90.425,213.053l-11.985-0.125c-2.759-0.031-4.972-2.141-4.941-4.713l0.042-3.707
	c0.031-2.576,2.294-4.635,5.053-4.607l11.983,0.127c2.761,0.031,4.972,2.143,4.943,4.713l-0.044,3.711
	C95.445,211.024,93.186,213.084,90.425,213.053"/>
<path fill="#C868A7" d="M199.205,214.215l-11.983-0.127c-2.76-0.031-4.971-2.141-4.942-4.709l0.043-3.711
	c0.03-2.572,2.294-4.635,5.054-4.604l11.981,0.127c2.762,0.027,4.973,2.141,4.943,4.713l-0.045,3.707
	C204.227,212.184,201.965,214.247,199.205,214.215"/>
<path fill="#DA90BE" d="M93.167,71.564c0,0-4.104-21.54,1.05-24.111c5.159-2.573,7.604,7.485,7.604,7.485l6.185-3.039l4.625-0.906
	c0,0,3.58,0.516,5.125,0.055c1.544-0.461,5.431-4.243,5.431-4.243l2.626-5.465c0,0,3.117-3.551,5.168-3.527
	c2.05,0.021,8.183,1.52,8.183,1.52l2.64-6.418c0,0-1.248-2.88,1.057-2.854c2.309,0.023,14.854,1.111,14.854,1.111l-0.34,7.163
	l-0.075,6.446l9.964,2.496l3.587,0.04c3.589,0.037,6.932-0.884,7.173,0.553c0.239,1.435,1.732,5.034,1.725,5.75
	c-0.007,0.715,0.699,5.979,0.699,5.979l-2.475,14.303L93.167,71.564z"/>
<path fill="#67154C" d="M98.93,72.043L84.576,99.297c0,0-36.609-34.551-21.96-60.146c0.687-1.202,2.464-1.377,3.401-0.328
	c6.386,7.158,27.315,30.419,31.196,32.128"/>
<path fill="#67154C" d="M174.67,71.417l17.932,28.137c0,0,34.687-34.822,21.351-58.301c-0.48-0.845-1.718-0.995-2.424-0.3
	C205.662,46.741,182.716,69.013,174.67,71.417"/>
<path fill="#F1BDD7" d="M146.407,51.655c-7.345-2.222-15.277-1.96-22.414,0.777c-14.906,5.717-39.378,19.594-40.792,49.356
	c-1.667,35.107,6.016,82.265,8.887,98.353c0.783,4.391,1.884,8.723,3.333,12.965c5.356,15.699,20.006,51.043,42.799,49.055
	c15.23-1.33,26.209-13.299,33.231-24.461c5.488-8.73,9.266-18.287,11.424-28.199c4.731-21.754,16.808-80.001,15.194-101.111
	C196.279,84.968,180.058,61.83,146.407,51.655"/>
<path fill="#C868A7" d="M145.213,80.483c-2.115-10.803-2.763-21.854-1.935-32.807c0.184-2.397-1.967-4.382-4.535-4.171l-5.443,0.442
	c-2.105,0.17-3.745,1.774-3.818,3.743c-0.395,10.601-0.386,22.608,0.654,33.115c0.152,1.57-1.111,2.938-2.8,3.028
	c-14.75,0.805-32.62,3.993-45.454,10.447c-1.091,0.548-1.751,1.625-1.687,2.777l0.274,4.902c0.118,2.096,2.471,3.401,4.523,2.526
	c17.515-7.504,36.914-11.063,56.14-10.26c18.972,0.79,37.738,5.824,54.362,14.538c2.119,1.111,4.729-0.347,4.714-2.608l-0.024-3.273
	c-0.011-1.026-0.583-1.984-1.523-2.515c-16.015-9.075-32.452-15.234-50.89-17.635C146.489,82.566,145.442,81.669,145.213,80.483"/>
<path fill="#AA3E7F" d="M145.347,128.774c3.984,26.41,6.699,52.669,5.971,79.302c-0.096,3.479-3.187,6.244-6.921,6.205l-7.912-0.086
	c-3.919-0.043-7.001-3.133-6.759-6.775c1.699-25.764,3.95-51.291,0.967-76.877c-0.39-3.369,2.066-6.444,5.649-7.01l1.077-0.171
	C141.227,122.763,144.812,125.212,145.347,128.774"/>
<path fill="#832268" d="M177.065,148.404l-17.905-0.189c-2.396-0.025-4.335-1.875-4.308-4.107c0.032-2.655,2.363-4.78,5.212-4.751
	l15.855,0.169c2.975,0.031,5.355,2.304,5.324,5.073C181.219,146.717,179.339,148.43,177.065,148.404"/>
<path fill="#832268" d="M104.201,147l18.706,0.202c1.983,0.019,3.239-3.016,3.261-4.861c0.022-1.849-1.567-3.362-3.55-3.382
	l-18.704-0.2c-1.983-0.023-3.606,1.456-3.627,3.305C100.267,143.909,102.22,146.979,104.201,147"/>
<path fill="#832268" d="M119.671,231.211c0.059-4.977,8.972-8.922,19.914-8.805c10.936,0.117,19.754,4.252,19.697,9.227"/>
<path fill="#C868A7" d="M159.282,231.633c-0.059,4.98-8.974,8.92-19.91,8.805c-10.938-0.117-19.759-4.248-19.701-9.227"/>
<path fill="#832268" d="M155.732,128.049c11.285-0.834,27.464-1.4,31.308,11.342c0.729,2.415,4.787,1.434,4.051-0.995
	c-4.4-14.59-21.865-15.245-35.313-14.252C153.113,124.339,153.04,128.247,155.732,128.049"/>
<path fill="#832268" d="M123.89,123.802c-13.427-1.278-30.897-0.995-35.64,13.498c-0.789,2.409,3.243,3.483,4.029,1.081
	c4.135-12.638,20.321-11.744,31.566-10.671C126.528,127.966,126.556,124.056,123.89,123.802"/>
</svg>
