<?xml version="1.0" encoding="utf-8"?>
<!-- Generator: Adobe Illustrator 16.0.0, SVG Export Plug-In . SVG Version: 6.00 Build 0)  -->
<!DOCTYPE svg PUBLIC "-//W3C//DTD SVG 1.1//EN" "http://www.w3.org/Graphics/SVG/1.1/DTD/svg11.dtd">
<svg version="1.1" id="Capa_1" xmlns="http://www.w3.org/2000/svg" xmlns:xlink="http://www.w3.org/1999/xlink" x="0px" y="0px"
	 width="640px" height="480px" viewBox="0 0 640 480" enable-background="new 0 0 640 480" xml:space="preserve">
<path fill="#2D2D2D" d="M425.603,170.093c-15.972-47.668-54.499-72.783-100.796-73.474c-46.41-0.691-87.371,23.399-105.032,70.753
	c-9.026,24.217-8.438,50.436,1.068,74.449c-0.014,0.462-0.042,0.915-0.05,1.379c-1.493,80.653,82.516,144.411,98.612,144.653
	c16.097,0.24,101.833-60.987,103.328-141.641c0.024-1.35,0.014-2.691,0.02-4.035C432.259,219.075,433.54,193.771,425.603,170.093"/>
<path fill="#CDCDCD" d="M422.438,241.743c-1.446,78.146-84.602,137.466-100.215,137.231s-97.092-62.012-95.646-140.157
	c1.448-78.146,44.594-140.612,103.385-139.736C388.746,99.961,423.882,163.596,422.438,241.743"/>
<path fill="#010101" d="M417.817,241.617c-1.379,74.453-80.611,130.975-95.486,130.756c-14.872-0.225-92.51-59.086-91.131-133.545
	s42.494-133.978,98.506-133.141C385.718,106.523,419.196,167.157,417.817,241.617"/>
<path fill="#F3F3F3" d="M287.584,330.061c4.548-4.346,15.229-8.787,32.296-3.623c1.167,0.351,2.426,0.336,3.599,0.01
	c5.366-1.508,21.729-4.809,34.18,6.393c0.917,0.824,1.507,1.906,1.675,3.061c0.166,1.113-0.07,2.244-0.665,3.234l-0.171,0.271
	c-1.11,1.84-3.322,2.922-5.646,2.756l-61.411-3.184C286.501,338.631,284.191,333.303,287.584,330.061"/>
<path fill="#010101" d="M304.854,264.386l-55.716-0.833c-1.982-0.029-3.577-1.508-3.545-3.292c0.034-1.78,1.683-3.213,3.665-3.184
	l55.715,0.829c1.984,0.029,3.581,1.516,3.546,3.296C308.489,262.982,306.837,264.415,304.854,264.386"/>
<path fill="#010101" d="M396.809,265.761l-55.715-0.833c-1.982-0.029-3.578-1.512-3.546-3.297c0.032-1.779,1.683-3.213,3.665-3.184
	l55.715,0.834c1.984,0.029,3.58,1.512,3.545,3.291C400.446,264.357,398.793,265.79,396.809,265.761"/>
<path fill="#9F9F9F" d="M306.923,254.58c-5.97-6.275-16.887-15.523-29.557-15.713c-12.595-0.186-23.791,8.624-30.01,14.719
	c-3.297,3.228-3.389,8.128-0.212,11.459c5.994,6.274,16.855,15.417,29.45,15.602c12.668,0.191,23.923-8.727,30.122-14.822
	C309.922,262.664,310.012,257.832,306.923,254.58 M305.548,263.342l-57.248-0.853c-1.417-0.024-2.549-1.073-2.527-2.345
	c0.026-1.278,1.193-2.293,2.614-2.273l57.247,0.859c1.418,0.02,2.549,1.072,2.527,2.345
	C308.135,262.348,306.965,263.361,305.548,263.342"/>
<path fill="#9F9F9F" d="M399.042,256.765c-5.969-6.274-16.886-15.519-29.554-15.709c-12.592-0.188-23.791,8.62-30.01,14.714
	c-3.299,3.233-3.391,8.134-0.213,11.459c5.991,6.275,16.854,15.418,29.449,15.607c12.67,0.191,23.925-8.728,30.118-14.822
	C402.045,264.854,402.134,260.021,399.042,256.765 M397.672,265.531l-57.249-0.853c-1.417-0.024-2.552-1.073-2.527-2.351
	c0.021-1.272,1.194-2.287,2.614-2.268l57.246,0.854c1.42,0.024,2.549,1.072,2.527,2.346
	C400.256,264.537,399.089,265.551,397.672,265.531"/>
<path fill="#C9C9C9" d="M309.388,311.673l-3.785-0.059c-4.909-0.073-8.858-3.739-8.775-8.147c0.081-4.408,4.164-7.957,9.073-7.88
	l3.785,0.054c4.909,0.073,8.858,3.74,8.775,8.148C318.379,308.201,314.297,311.746,309.388,311.673"/>
<path fill="#C9C9C9" d="M339.679,312.126l-3.789-0.058c-4.905-0.074-8.856-3.74-8.776-8.148c0.082-4.408,4.17-7.957,9.074-7.879
	l3.787,0.053c4.91,0.074,8.859,3.74,8.778,8.148C348.672,308.654,344.59,312.199,339.679,312.126"/>
<path fill="#F3F8FC" d="M410.383,248.037c-2.06-19.868-13.965-41.693-38.08-45.37c-20.727-3.162-36.514,10.795-47.871,25.282
	c-10.979-14.394-25.816-26.92-46.445-27.3c-25.23-0.463-38.708,21.225-41.952,40.919c-0.667,4.055,1.39,8.922,6.168,10.076
	c4.586,1.107,8.794-2.408,9.439-6.338c2.293-13.92,10.635-29.481,29.105-27.768c16.081,1.487,26.674,13.643,34.532,25.217
	c0.822,23.557,0.676,47.127-0.461,70.672c-0.194,4.033,3.91,8.191,8.456,8.026c5.201-0.186,7.266-4.856,7.456-8.786
	c1.069-22.166,1.271-44.348,0.603-66.518c4.672-6.64,9.962-13.101,16.148-18.647c5.562-4.988,12.201-9.169,20.409-8.545
	c16.927,1.292,25.179,16.31,26.579,29.839c0.418,4.014,3.482,8.202,8.458,8.026C407.661,256.652,410.793,251.962,410.383,248.037"/>
<path fill="none" stroke="#A4A3A3" stroke-width="1.895" stroke-miterlimit="10" d="M410.383,248.037
	c-2.06-19.868-13.965-41.693-38.08-45.37c-20.727-3.162-36.514,10.795-47.871,25.282c-10.979-14.394-25.816-26.92-46.445-27.3
	c-25.23-0.463-38.708,21.225-41.952,40.919c-0.667,4.055,1.39,8.922,6.168,10.076c4.586,1.107,8.794-2.408,9.439-6.338
	c2.293-13.92,10.635-29.481,29.105-27.768c16.081,1.487,26.674,13.643,34.532,25.217c0.822,23.557,0.676,47.127-0.461,70.672
	c-0.194,4.033,3.91,8.191,8.456,8.026c5.201-0.186,7.266-4.856,7.456-8.786c1.069-22.166,1.271-44.348,0.603-66.518
	c4.672-6.64,9.962-13.101,16.148-18.647c5.562-4.988,12.201-9.169,20.409-8.545c16.927,1.292,25.179,16.31,26.579,29.839
	c0.418,4.014,3.482,8.202,8.458,8.026C407.661,256.652,410.793,251.962,410.383,248.037z"/>
<path fill="#010101" d="M419.94,243.697c1.417-76.619-32.564-119.002-90.204-119.864c-57.636-0.858-100.407,40.379-101.825,116.996
	l-0.215-0.49c-10.333-24.023-11.22-50.57-2.106-74.988c17.127-45.884,56.853-69.225,101.865-68.553
	c44.901,0.67,82.271,25.003,97.762,71.191C433.589,192.945,431.509,219.797,419.94,243.697"/>
<path fill="#F3F8FC" d="M225.04,204.857c-4.606-0.071-4.591,5.49,0.005,5.559C229.651,210.486,229.639,204.925,225.04,204.857"/>
<path fill="#F3F8FC" d="M228.5,190.405c-4.606-0.068-4.593,5.495,0.005,5.561C233.111,196.036,233.1,190.473,228.5,190.405"/>
<path fill="#F3F8FC" d="M228.479,177.215c-4.606-0.071-4.591,5.49,0.006,5.559C233.09,182.845,233.078,177.282,228.479,177.215"/>
<path fill="#F3F8FC" d="M237.583,167.721c-4.605-0.071-4.592,5.491,0.005,5.56C242.194,173.35,242.184,167.79,237.583,167.721"/>
<path fill="#F3F8FC" d="M246.232,155.049c-4.606-0.069-4.592,5.493,0.006,5.56C250.843,160.68,250.832,155.12,246.232,155.049"/>
<path fill="#F3F8FC" d="M236.375,151.647c-4.605-0.069-4.591,5.493,0.005,5.56C240.987,157.276,240.976,151.718,236.375,151.647"/>
<path fill="#F3F8FC" d="M247.929,142.558c-4.605-0.069-4.591,5.493,0.005,5.56C252.541,148.188,252.529,142.628,247.929,142.558"/>
<path fill="#F3F8FC" d="M259.331,140.246c-4.605-0.071-4.594,5.491,0.005,5.56C263.942,145.875,263.931,140.315,259.331,140.246"/>
<path fill="#F3F8FC" d="M253.335,127.748c-4.606-0.069-4.592,5.493,0.006,5.56C257.946,133.377,257.935,127.817,253.335,127.748"/>
<path fill="#F3F8FC" d="M266.878,117.947c-4.605-0.071-4.592,5.491,0.005,5.56C271.489,123.576,271.479,118.014,266.878,117.947"/>
<path fill="#F3F8FC" d="M274.855,128.235c-4.606-0.069-4.594,5.493,0.005,5.56C279.467,133.865,279.455,128.302,274.855,128.235"/>
<path fill="#F3F8FC" d="M286.329,119.905c-4.605-0.069-4.594,5.493,0.005,5.56C290.941,125.534,290.93,119.974,286.329,119.905"/>
<path fill="#F3F8FC" d="M263.939,129.68c-4.606-0.069-4.593,5.493,0.005,5.56C268.55,135.31,268.539,129.748,263.939,129.68"/>
<path fill="#F3F8FC" d="M277.992,109.113c-4.605-0.07-4.591,5.493,0.005,5.56C282.604,114.742,282.593,109.18,277.992,109.113"/>
<path fill="#F3F8FC" d="M293.544,111.179c-4.606-0.071-4.593,5.492,0.005,5.56C298.154,116.809,298.144,111.249,293.544,111.179"/>
<path fill="#F3F8FC" d="M304.203,116.691c-4.606-0.071-4.593,5.492,0.005,5.56C308.813,122.321,308.803,116.761,304.203,116.691"/>
<path fill="#F3F8FC" d="M319.459,114.732c-4.604-0.069-4.593,5.493,0.005,5.56C324.068,120.363,324.058,114.803,319.459,114.732"/>
<path fill="#F3F8FC" d="M309.711,106.247c-4.606-0.069-4.593,5.493,0.005,5.56C314.321,111.878,314.31,106.315,309.711,106.247"/>
<path fill="#F3F8FC" d="M327.918,107.476c-4.607-0.069-4.594,5.493,0.005,5.56C332.526,113.105,332.516,107.544,327.918,107.476"/>
<path fill="#F3F8FC" d="M335.393,115.885c-4.605-0.07-4.592,5.493,0.006,5.56C340.002,121.514,339.991,115.955,335.393,115.885"/>
<path fill="#F3F8FC" d="M350.127,103.437c-4.604-0.07-4.594,5.493,0.005,5.56C354.735,109.065,354.725,103.506,350.127,103.437"/>
<path fill="#F3F8FC" d="M336.962,100.734c-4.606-0.069-4.593,5.493,0.005,5.56C341.574,106.363,341.561,100.803,336.962,100.734"/>
<path fill="#F3F8FC" d="M320.058,99.295c-4.606-0.069-4.593,5.493,0.005,5.56C324.668,104.925,324.658,99.365,320.058,99.295"/>
<path fill="#F3F8FC" d="M297.048,102.229c-4.603-0.069-4.592,5.493,0.005,5.56C301.66,107.86,301.649,102.298,297.048,102.229"/>
<path fill="#F3F8FC" d="M356.209,118.974c-4.605-0.07-4.59,5.493,0.006,5.56C360.821,124.603,360.811,119.043,356.209,118.974"/>
<path fill="#F3F8FC" d="M346.619,112.113c-4.608-0.069-4.596,5.493,0.006,5.56C351.229,117.742,351.218,112.183,346.619,112.113"/>
<path fill="#F3F8FC" d="M362.881,105.046c-4.605-0.069-4.595,5.492,0.006,5.56C367.493,110.676,367.482,105.114,362.881,105.046"/>
<path fill="#F3F8FC" d="M379.067,112.789c-4.604-0.071-4.59,5.491,0.005,5.56C383.682,118.417,383.671,112.858,379.067,112.789"/>
<path fill="#F3F8FC" d="M367.809,116.248c-4.607-0.07-4.594,5.493,0.005,5.56C372.42,121.877,372.406,116.317,367.809,116.248"/>
<path fill="#F3F8FC" d="M375.045,126.062c-4.474-0.067-4.465,5.493,0,5.56C379.518,131.69,379.51,126.13,375.045,126.062"/>
<path fill="#F3F8FC" d="M387.772,121.796c-4.606-0.069-4.596,5.493,0.005,5.56C392.384,127.426,392.373,121.866,387.772,121.796"/>
<path fill="#F3F8FC" d="M385.875,134.194c-4.604-0.071-4.593,5.491,0.006,5.559C390.486,139.823,390.477,134.263,385.875,134.194"/>
<path fill="#F3F8FC" d="M397.688,129.736c-4.609-0.069-4.593,5.492,0.005,5.56C402.297,135.365,402.286,129.803,397.688,129.736"/>
<path fill="#F3F8FC" d="M397.352,142.188c-4.606-0.07-4.593,5.493,0.005,5.56C401.96,147.817,401.949,142.258,397.352,142.188"/>
<path fill="#F3F8FC" d="M408.801,142.243c-4.604-0.071-4.59,5.492,0.005,5.56C413.415,147.872,413.404,142.312,408.801,142.243"/>
<path fill="#F3F8FC" d="M406.13,154.865c-4.609-0.071-4.593,5.492,0.005,5.559C410.738,160.495,410.728,154.935,406.13,154.865"/>
<path fill="#F3F8FC" d="M416.626,158.832c-4.606-0.069-4.595,5.493,0.006,5.56C421.238,164.461,421.228,158.901,416.626,158.832"/>
<path fill="#F3F8FC" d="M414.037,168.85c-4.606-0.07-4.591,5.493,0.005,5.56C418.648,174.479,418.638,168.92,414.037,168.85"/>
<path fill="#F3F8FC" d="M422.878,175.687c-4.604-0.069-4.591,5.493,0.005,5.561C427.489,181.316,427.479,175.756,422.878,175.687"/>
<path fill="#F3F8FC" d="M419.205,185.524c-4.606-0.073-4.593,5.49,0.005,5.559C423.816,191.151,423.806,185.592,419.205,185.524"/>
<path fill="#F3F8FC" d="M424.495,195.905c-4.609-0.068-4.593,5.495,0.006,5.561C429.104,201.537,429.094,195.976,424.495,195.905"/>
<path fill="#F3F8FC" d="M423.214,207.89c-4.604-0.068-4.593,5.49,0.006,5.559C427.828,213.519,427.815,207.958,423.214,207.89"/>
<path fill="#313030" d="M321.26,302.086c-2.479,1.717-6.128,4.867-6.198,8.52c-0.068,3.637,3.424,6.869,5.836,8.669
	c1.279,0.95,3.219,0.979,4.534,0.068c2.48-1.726,6.088-4.856,6.156-8.494c0.067-3.651-3.47-6.904-5.88-8.698
	C324.457,301.229,322.545,301.194,321.26,302.086 M324.726,302.486l-0.304,16.52c-0.012,0.41-0.424,0.736-0.928,0.731
	c-0.504-0.009-0.909-0.351-0.899-0.761l0.306-16.52c0.008-0.409,0.422-0.73,0.93-0.727
	C324.332,301.74,324.736,302.076,324.726,302.486"/>
<path fill="#313030" d="M321.61,283.139c-2.479,1.717-6.129,4.861-6.198,8.519c-0.066,3.638,3.424,6.87,5.838,8.669
	c1.277,0.951,3.217,0.98,4.534,0.068c2.478-1.727,6.085-4.856,6.15-8.488c0.071-3.658-3.464-6.91-5.876-8.704
	C324.807,282.275,322.895,282.246,321.61,283.139 M325.078,283.539l-0.307,16.52c-0.008,0.409-0.424,0.736-0.926,0.727
	c-0.504-0.006-0.909-0.347-0.9-0.756l0.305-16.52c0.01-0.41,0.424-0.732,0.928-0.727
	C324.682,282.793,325.084,283.129,325.078,283.539"/>
<path fill="#313030" d="M321.962,264.191c-2.479,1.716-6.129,4.861-6.199,8.518c-0.067,3.638,3.425,6.871,5.837,8.67
	c1.279,0.955,3.218,0.98,4.535,0.068c2.478-1.727,6.088-4.852,6.152-8.489c0.071-3.657-3.466-6.909-5.879-8.698
	C325.16,263.328,323.246,263.299,321.962,264.191 M325.426,264.591l-0.305,16.52c-0.008,0.409-0.423,0.736-0.925,0.731
	c-0.504-0.01-0.909-0.346-0.899-0.761l0.305-16.515c0.008-0.41,0.424-0.736,0.928-0.727
	C325.035,263.845,325.437,264.182,325.426,264.591"/>
<path fill="#313030" d="M322.313,245.243c-2.48,1.716-6.129,4.861-6.199,8.519c-0.066,3.633,3.424,6.869,5.837,8.669
	c1.278,0.95,3.219,0.979,4.533,0.068c2.48-1.731,6.086-4.856,6.153-8.489c0.067-3.656-3.466-6.909-5.876-8.698
	C325.507,244.38,323.596,244.351,322.313,245.243 M325.778,245.643l-0.304,16.52c-0.011,0.41-0.424,0.736-0.928,0.727
	c-0.503-0.004-0.908-0.346-0.9-0.756l0.305-16.514c0.009-0.41,0.424-0.736,0.929-0.727
	C325.383,244.896,325.787,245.233,325.778,245.643"/>
<path fill="#313030" d="M322.662,226.296c-2.478,1.716-6.127,4.864-6.198,8.518c-0.066,3.635,3.426,6.871,5.837,8.668
	c1.279,0.951,3.22,0.98,4.533,0.068c2.479-1.725,6.089-4.855,6.154-8.487c0.07-3.657-3.464-6.909-5.88-8.701
	C325.859,225.436,323.949,225.404,322.662,226.296 M326.129,226.696l-0.307,16.519c-0.006,0.409-0.421,0.736-0.924,0.73
	c-0.504-0.009-0.912-0.35-0.9-0.76l0.304-16.519c0.011-0.407,0.424-0.731,0.929-0.724
	C325.734,225.95,326.137,226.287,326.129,226.696"/>
<path fill="#313030" d="M301.955,218.415c-0.485,2.777-0.732,7.316,2.014,10.013c2.736,2.682,7.747,2.882,10.874,2.696
	c1.663-0.098,3.092-1.272,3.347-2.75c0.478-2.782,0.706-7.285-2.023-9.964c-2.749-2.696-7.802-2.882-10.93-2.691
	C303.618,215.815,302.207,216.976,301.955,218.415 M304.78,216.566l12.417,12.188c0.308,0.302,0.255,0.797-0.114,1.102
	c-0.376,0.302-0.926,0.31-1.234,0.005l-12.417-12.19c-0.305-0.3-0.252-0.792,0.117-1.097
	C303.922,216.267,304.475,216.262,304.78,216.566"/>
<path fill="#313030" d="M283.843,208.202c0.198,2.806,1.06,7.285,4.395,9.379c3.315,2.084,8.256,1.294,11.266,0.505
	c1.595-0.417,2.706-1.846,2.595-3.335c-0.205-2.811-1.072-7.25-4.388-9.33c-3.336-2.099-8.314-1.285-11.319-0.495
	C284.837,205.34,283.739,206.747,283.843,208.202 M286.152,205.844l15.073,9.472c0.373,0.234,0.442,0.727,0.153,1.097
	s-0.825,0.478-1.201,0.244l-15.073-9.467c-0.372-0.236-0.442-0.729-0.153-1.1C285.243,205.72,285.778,205.61,286.152,205.844"/>
<path fill="#313030" d="M263.463,212.707c2.499,1.692,6.843,4.023,10.786,3.116c3.921-0.902,6.473-4.783,7.766-7.348
	c0.683-1.361,0.202-3.048-1.129-3.945c-2.507-1.692-6.821-3.989-10.742-3.086c-3.941,0.907-6.5,4.827-7.786,7.392
	C261.693,210.165,262.168,211.83,263.463,212.707 M262.977,209.596l17.82-4.101c0.438-0.105,0.9,0.173,1.025,0.609
	c0.125,0.439-0.133,0.878-0.576,0.98l-17.815,4.101c-0.442,0.102-0.901-0.171-1.026-0.612
	C262.28,210.14,262.535,209.699,262.977,209.596"/>
<path fill="#313030" d="M250.652,228.027c3.13-0.112,8.134-0.78,10.545-3.725c2.394-2.931,1.629-7.387,0.82-10.103
	c-0.43-1.448-1.992-2.477-3.655-2.414c-3.132,0.122-8.092,0.797-10.487,3.728c-2.41,2.948-1.623,7.434-0.806,10.149
	C247.489,227.072,249.032,228.088,250.652,228.027 M248.084,225.901l10.89-13.316c0.266-0.329,0.814-0.38,1.223-0.112
	c0.406,0.268,0.517,0.753,0.247,1.083l-10.89,13.316c-0.27,0.332-0.817,0.38-1.223,0.112S247.814,226.23,248.084,225.901"/>
<path fill="#313030" d="M244.252,246.881c2.98-0.872,7.594-2.734,9.025-6.157c1.421-3.403-0.658-7.504-2.26-9.922
	c-0.851-1.287-2.663-1.897-4.244-1.434c-2.978,0.878-7.548,2.74-8.969,6.141c-1.432,3.425,0.681,7.549,2.284,9.973
	C240.923,246.73,242.713,247.33,244.252,246.881 M241.14,245.457l6.461-15.467c0.162-0.383,0.673-0.563,1.146-0.404
	c0.47,0.158,0.725,0.597,0.564,0.982l-6.463,15.465c-0.162,0.385-0.673,0.565-1.143,0.409
	C241.231,246.281,240.979,245.838,241.14,245.457"/>
<path fill="#313030" d="M365.889,206.364c-2.891-1.083-7.744-2.375-11.311-0.615c-3.551,1.746-4.945,6.076-5.491,8.848
	c-0.29,1.47,0.644,2.996,2.177,3.572c2.899,1.077,7.712,2.343,11.262,0.595c3.57-1.758,4.965-6.127,5.5-8.899
	C368.305,208.431,367.387,206.924,365.889,206.364 M367.178,207.661c0.245,0.397,0.115,0.877-0.281,1.078l-16.129,7.943
	c-0.402,0.197-0.924,0.034-1.168-0.361c-0.238-0.4-0.113-0.88,0.288-1.078l16.126-7.943
	C366.418,207.102,366.934,207.266,367.178,207.661"/>
<path fill="#313030" d="M389.469,213.565c-0.967-2.677-3.037-6.822-6.846-8.109c-3.789-1.277-8.355,0.585-11.053,2.023
	c-1.428,0.761-2.111,2.392-1.596,3.808c0.977,2.682,3.045,6.783,6.832,8.065c3.808,1.287,8.406-0.609,11.099-2.048
	C389.298,216.559,389.971,214.95,389.469,213.565 M389.214,215.292c-0.179,0.424-0.668,0.648-1.091,0.507l-17.221-5.817
	c-0.424-0.141-0.63-0.604-0.451-1.029c0.18-0.422,0.668-0.648,1.092-0.502l17.221,5.812
	C389.189,214.404,389.393,214.867,389.214,215.292"/>
<path fill="#313030" d="M401.917,231.616c1.14-2.624,2.462-7.007,0.424-10.171c-2.028-3.145-6.876-4.301-9.973-4.729
	c-1.646-0.225-3.323,0.648-3.925,2.041c-1.135,2.625-2.433,6.978-0.404,10.125c2.037,3.164,6.932,4.317,10.029,4.737
	C399.675,233.832,401.328,232.972,401.917,231.616 M400.5,232.803c-0.435,0.227-0.972,0.125-1.199-0.231l-9.219-14.296
	c-0.228-0.356-0.06-0.829,0.377-1.053c0.438-0.229,0.98-0.126,1.209,0.229l9.209,14.298
	C401.108,232.108,400.939,232.577,400.5,232.803"/>
<path fill="#313030" d="M407.558,251.197c1.884-2.244,4.484-6.145,3.475-9.686c-0.999-3.523-5.315-5.817-8.174-6.98
	c-1.514-0.614-3.396-0.185-4.392,1.009c-1.887,2.25-4.448,6.125-3.444,9.644c1.007,3.545,5.369,5.847,8.225,7.002
	C404.727,252.786,406.58,252.361,407.558,251.197 M405.837,251.996c-0.489,0.112-0.978-0.121-1.089-0.517l-4.555-16.006
	c-0.114-0.395,0.188-0.807,0.682-0.919c0.485-0.112,0.975,0.117,1.085,0.515l4.556,16.006
	C406.629,251.47,406.325,251.885,405.837,251.996"/>
<path fill="#313030" d="M345.257,215.845c-3.095-0.434-8.146-0.656-11.147,1.812c-2.983,2.453-3.206,6.958-3.002,9.767
	c0.107,1.492,1.419,2.774,3.059,3.003c3.1,0.429,8.11,0.634,11.096-1.816c3.003-2.47,3.209-7.009,2.998-9.817
	C348.15,217.339,346.861,216.072,345.257,215.845 M347.314,218.383l-13.569,11.151c-0.339,0.278-0.888,0.231-1.224-0.103
	c-0.342-0.336-0.348-0.827-0.006-1.107l13.566-11.151c0.337-0.273,0.885-0.229,1.227,0.105
	C347.648,217.612,347.65,218.107,347.314,218.383"/>
<path fill="#010101" d="M352.032,337.471c-19.989,8.465-44.8,11.465-62.002-3.594c-2.796-2.447-1.385,5.9,1.832,8.719
	c19.362,16.949,38.188,10.143,60.767,0.58C356.799,341.41,355.68,335.926,352.032,337.471"/>
<path fill="#F3F8FC" d="M287.151,335.219c5.737,3.574,33.744,18.836,69.991,1.643c0.712-0.336,0.889-1.184,0.367-1.736
	c-3.342-3.533-15.26-14.008-33.599-6.825c-1.421,0.556-3.038,0.517-4.414-0.127c-5.503-2.574-20.65-7.802-32.619,5.413
	C286.421,334.092,286.557,334.844,287.151,335.219"/>
<path fill="#F3F8FC" d="M287.61,336.813c-0.459-0.293-1.062,0.123-0.87,0.6c2.174,5.441,11.168,23.674,34.413,24.449
	c23.414,0.779,34.076-17.389,36.655-22.619c0.223-0.455-0.326-0.898-0.809-0.658c-5.166,2.555-23.111,10.877-36.583,10.355
	C307.162,348.428,292.214,339.699,287.61,336.813"/>
<path fill="#8E8C8D" d="M288.228,335.477c5.562,3.463,32.705,18.256,67.838,1.596c0.689-0.328,0.863-1.152,0.356-1.688
	c-3.242-3.424-14.794-13.58-32.564-6.617c-1.379,0.547-2.944,0.502-4.278-0.121c-5.338-2.492-20.016-7.559-31.615,5.25
	C287.52,334.385,287.649,335.117,288.228,335.477"/>
<path fill="#9F9F9F" d="M288.674,337.018c-0.448-0.277-1.026,0.123-0.843,0.586c2.104,5.27,10.824,22.945,33.354,23.691
	c22.692,0.756,33.023-16.852,35.523-21.922c0.215-0.439-0.314-0.867-0.785-0.639c-5.002,2.473-22.398,10.541-35.452,10.039
	C307.622,348.275,293.135,339.816,288.674,337.018"/>
</svg>
