<?xml version="1.0" encoding="utf-8"?>
<!-- Generator: Adobe Illustrator 16.0.0, SVG Export Plug-In . SVG Version: 6.00 Build 0)  -->
<!DOCTYPE svg PUBLIC "-//W3C//DTD SVG 1.1//EN" "http://www.w3.org/Graphics/SVG/1.1/DTD/svg11.dtd">
<svg version="1.1" id="Capa_1" xmlns="http://www.w3.org/2000/svg" xmlns:xlink="http://www.w3.org/1999/xlink" x="0px" y="0px"
	 width="256px" height="384px" viewBox="0 0 256 384" enable-background="new 0 0 256 384" xml:space="preserve">
<g>
	<defs>
		<polygon id="SVGID_1_" points="0.356,208.157 0.356,384 255.947,384 255.947,174.244 		"/>
	</defs>
	<clipPath id="SVGID_2_">
		<use xlink:href="#SVGID_1_"  overflow="visible"/>
	</clipPath>
	<path clip-path="url(#SVGID_2_)" fill="#192629" d="M-68.861,209.843c-0.015,3.094,2.259,5.617,5.086,5.632l2.919,0.021
		l-0.207,40.865c-0.313,61.304,31.999,114.319,79.021,139.708l7.929,66.183c0.343,2.852,2.392,4.933,4.809,4.858l18.676-0.576
		c2.323-0.075,4.251-2.134,4.574-4.892l6.163-51.29c5.833,0.914,11.744,1.532,17.783,1.643l5.927,51.321
		c0.318,2.816,2.34,4.93,4.716,4.912l17.354-0.124c2.323-0.018,4.297-2.076,4.646-4.831l6.7-50.955l17.689,0.102l6.185,51.035
		c0.317,2.759,2.27,4.84,4.594,4.884l17.356,0.329c2.369,0.047,4.414-2.041,4.762-4.854l6.436-51.159l7.51,0.043
		c3.519,0.023,6.964-0.257,10.416-0.515l5.526,50.31c0.298,2.765,2.202,4.843,4.521,4.944l18.673,0.798
		c2.413,0.104,4.486-1.951,4.858-4.8l7.986-61.356c52.467-22.386,89.836-78.003,90.169-143.438l0.209-40.868l0.684,0.006
		c2.824,0.015,5.122-2.48,5.139-5.574c0.032-5.951-2.162-11.346-5.718-15.249l0.279-54.979c0.062-12.38-9.043-22.465-20.341-22.532
		l-19.246-0.243l0.085-16.352c0.038-7.645-5.588-13.877-12.565-13.917l-4.812-0.029c-6.975-0.041-12.663,6.124-12.703,13.769
		l-0.08,16.154l-32.813-0.411c0.735,1.216,1.436,2.472,2.111,3.765c-10.909-20.942-29.59-31.637-50.839-37.003
		c-5.349-1.348-10.736-2.572-16.158-3.625c-0.38-0.084-0.829-5.741-0.963-6.275c-0.697-2.745-1.995-5.309-3.781-7.385
		c-3.301-3.839-9.097-6.869-13.843-4.69c-4.704,2.157-8.048,7.621-10.638,12.183c-2.595-6.461-8.679-12.27-15.038-11.11
		c-6.358,1.161-13.844,7.577-14.392,14.613C76.792,81.815,54.945,89.93,40.5,107.688c-2.468,3.036-4.667,6.297-6.622,9.729
		c0.012-0.019,0.021-0.041,0.033-0.062l-30.5,0.021l0.083-16.194C3.532,93.537-2.094,87.306-9.07,87.264l-4.811-0.027
		c-6.978-0.042-12.664,6.123-12.703,13.767l-0.083,16.394l-13.233,0.009c-11.3-0.067-20.507,9.912-20.571,22.289l-0.269,52.961
		C-65.606,196.525-68.825,202.747-68.861,209.843 M236.245,217.25c-0.073,1.153-0.147,2.305-0.229,3.452v0.003
		C236.098,219.555,236.172,218.403,236.245,217.25 M234.694,155.803c0.017,0.088,0.021,0.179,0.038,0.266
		C234.716,155.982,234.711,155.892,234.694,155.803 M24.565,141.091c-0.92,3.537-1.734,7.114-2.351,10.714
		c-2.087,12.229-2.629,24.68-2.797,37.138h-0.001c0.169-12.459,0.707-24.909,2.798-37.138
		C22.831,148.205,23.645,144.631,24.565,141.091 M33.644,117.889c-1.677,2.986-3.136,6.124-4.462,9.333
		C30.507,124.011,31.964,120.878,33.644,117.889 M27.995,130.328c-0.94,2.515-1.792,5.071-2.543,7.67
		C26.205,135.396,27.053,132.846,27.995,130.328"/>
	<path clip-path="url(#SVGID_2_)" fill="#2C6D55" d="M215.191,126.424l81.555,1.015c11.218,0.066,20.26,9.922,20.198,22.016
		l-0.579,113.986c-0.427,83.581-63.615,150.964-141.135,150.507l-101.538-0.601c-77.521-0.46-140.02-68.586-139.595-152.167
		l0.58-113.985c0.062-12.098,9.204-21.841,20.422-21.778l73.29-0.041c-5.89,10.146-9.555,21.835-11.607,33.655
		c-2.729,15.702-2.8,31.782-2.866,47.756c-0.062,15.818-0.126,31.634-0.188,47.452c-0.042,10.62,0.112,21.978,5.666,30.747
		c7.004,11.063,20.409,14.721,32.705,16.623c44.282,6.85,89.32,1.801,133.808-3.256c11.563-1.315,24.226-3.21,32.011-12.52
		c6.919-8.281,8.104-20.252,8.957-31.357c2.947-38.457,8.621-84.028-7.501-120.083c-0.651-1.46-1.341-2.874-2.062-4.243
		C216.634,128.87,215.929,127.63,215.191,126.424"/>
	<path clip-path="url(#SVGID_2_)" fill="#3F9C7A" d="M-54.131,194.914l357.179,2.111c10.722,0.063,19.361,9.486,19.303,21.046
		c-0.016,3.024-2.296,5.462-5.105,5.444l-385.844-2.281c-2.806-0.018-5.063-2.48-5.048-5.505
		C-73.588,204.17-64.852,194.851-54.131,194.914"/>
	<path clip-path="url(#SVGID_2_)" fill="#BBDED1" d="M150.758,90.404c5.382,1.029,10.734,2.224,16.046,3.543
		c21.114,5.249,39.68,15.708,50.509,36.203c0.724,1.372,1.41,2.781,2.064,4.241c16.119,36.057,10.445,81.627,7.498,120.087
		c-0.853,11.105-2.035,23.073-8.954,31.354c-7.782,9.308-20.453,11.207-32.014,12.517c-44.488,5.06-89.526,10.108-133.806,3.259
		c-12.294-1.902-25.702-5.561-32.702-16.62c-5.557-8.772-5.712-20.13-5.671-30.75c0.065-15.818,0.127-31.634,0.192-47.452
		c0.063-15.972,0.135-32.052,2.861-47.753c2.73-15.703,8.296-31.174,18.153-43.101c14.341-17.348,36.031-25.275,57.582-28.139
		c0.545-6.873,7.976-13.141,14.289-14.274c6.314-1.133,12.355,4.543,14.933,10.857c2.573-4.458,5.892-9.796,10.563-11.904
		c4.712-2.127,10.468,0.833,13.746,4.585c1.773,2.029,3.062,4.534,3.754,7.215C149.935,84.794,150.381,90.323,150.758,90.404"/>
	<path clip-path="url(#SVGID_2_)" fill="#2A5F4A" d="M45.807,165.161c7.714,14.623,26.2,21.137,42.638,16.037l6.287-1.958
		c19.306-5.979,40.247-5.545,59.254,1.247l0.78,0.26c21.841,7.827,46.399-5.851,48.1-27.771c0.056-0.79,0.086-1.574,0.088-2.359
		l0.024-4.944c0.091-17.779-15.151-32.305-34.063-32.418l-92.521-0.546c-18.914-0.111-34.301,14.234-34.392,32.013l-0.025,4.944
		C41.949,155.225,43.329,160.484,45.807,165.161 M66.196,130.287c2.568-2.709,6.092-4.401,9.948-4.377l98.255,0.58
		c7.762,0.046,14.004,6.877,13.961,15.219c-0.021,4.187-1.604,7.968-4.167,10.678c-2.545,2.738-6.068,4.403-9.949,4.38
		l-31.631-3.869c-10.336-1.239-20.727-1.356-31.05-0.324l-35.574,3.611c-7.738-0.046-14.004-6.853-13.962-15.226
		C62.048,136.807,63.656,133.025,66.196,130.287"/>
	<path clip-path="url(#SVGID_2_)" fill="#2A5F4A" d="M138.864,227.829c0.128-25.157,19.147-45.443,42.481-45.304
		c23.336,0.138,42.145,20.644,42.019,45.804c-0.128,25.157-19.149,45.44-42.479,45.302
		C157.551,273.492,138.735,252.986,138.864,227.829"/>
	<path clip-path="url(#SVGID_2_)" fill="#2B2523" d="M157.096,227.936c0.074-14.3,10.884-25.827,24.147-25.749
		c13.262,0.078,23.956,11.732,23.884,26.032c-0.072,14.301-10.886,25.832-24.146,25.751
		C167.717,253.892,157.023,242.236,157.096,227.936"/>
	<path clip-path="url(#SVGID_2_)" fill="#2A5F4A" d="M17.895,227.111c0.127-25.156,19.147-45.439,42.482-45.302
		c23.333,0.137,42.145,20.646,42.017,45.803c-0.128,25.157-19.148,45.443-42.481,45.302C36.58,272.777,17.767,252.27,17.895,227.111
		"/>
	<path clip-path="url(#SVGID_2_)" fill="#2B2523" d="M36.129,227.222c0.073-14.3,10.884-25.831,24.147-25.753
		c13.261,0.078,23.955,11.736,23.882,26.036c-0.073,14.301-10.883,25.828-24.146,25.751C46.75,253.178,36.057,241.52,36.129,227.222
		"/>
	<path clip-path="url(#SVGID_2_)" fill="#2B2523" d="M70.117,125.372l107.136,0.633c8.456,0.049,15.27,7.48,15.225,16.592
		c-0.046,9.115-6.938,16.464-15.393,16.414l-34.509-4.211c-11.242-1.371-22.589-1.489-33.856-0.347l-38.771,3.923
		c-8.45-0.049-15.267-7.48-15.221-16.593C54.775,132.669,61.667,125.32,70.117,125.372"/>
	<path clip-path="url(#SVGID_2_)" fill="#F8F7F6" d="M162.938,149.831c3.809,0.022,6.703-3.688,6.028-7.726l-6.939-41.745
		c-0.295-2.05-3.002-2.153-3.426-0.127l-9.972,41.326c-1.001,4.147,1.888,8.198,5.86,8.221L162.938,149.831z"/>
	<path clip-path="url(#SVGID_2_)" fill="#F8F7F6" d="M91.346,149.408c3.92,0.023,6.898-3.793,6.206-7.954l-6.905-41.514
		c-0.291-2.051-3.001-2.154-3.425-0.127l-9.914,41.086c-1.03,4.268,1.944,8.438,6.034,8.463L91.346,149.408z"/>
	<path clip-path="url(#SVGID_2_)" fill="#3F9C7A" d="M120.09,376.098l-0.475,0.053c-2.092,0.298-3.768,2.197-4.089,4.666
		l-11.021,82.537c-0.347,2.691-2.306,4.701-4.615,4.718l-17.232,0.122c-2.358,0.018-4.366-2.047-4.682-4.8l-10.074-85.777
		c-0.339-2.897-2.495-4.956-4.944-4.776c-2.234,0.152-4.052,2.137-4.373,4.747l-10.271,84.167c-0.321,2.695-2.235,4.704-4.54,4.779
		l-18.546,0.562c-2.4,0.072-4.435-1.961-4.775-4.745L7.969,359.903c-0.413-3.374,1.814-6.396,4.693-6.375l107.039,1.055l1.094,0.006
		l107.022,0.208c2.875,0.018,5.071,3.065,4.626,6.434l-13.521,102.29c-0.372,2.781-2.427,4.794-4.827,4.693l-18.541-0.784
		c-2.304-0.098-4.196-2.131-4.491-4.831l-9.413-84.286c-0.295-2.61-2.092-4.617-4.325-4.797c-2.448-0.211-4.62,1.825-4.991,4.716
		l-10.945,85.656c-0.345,2.747-2.375,4.785-4.729,4.745l-17.233-0.327c-2.307-0.043-4.247-2.076-4.563-4.773l-10.183-82.661
		c-0.297-2.472-1.953-4.392-4.042-4.715l-0.474-0.059"/>
	<path clip-path="url(#SVGID_2_)" fill="#3F9C7A" d="M233.601,221.147c-1.716,0.932-3.224,2.479-4.156,4.288
		c-1.963,3.796-2.058,8.355-2.138,12.707c-0.255,13.595-1.349,28.471-10.043,38.327c-7.32,8.305-18.398,11.101-28.86,13.113
		c-42.439,8.171-85.939,9.92-128.827,5.185c-8.568-0.949-17.29-2.206-25.033-6.271c-17.433-9.152-19.672-30.372-19.596-49.122
		l0.047-15.078c0.012-3.235-2.074-5.869-4.668-5.884c-2.687-0.017-10.455,3.893-10.333,7.243l8.546,81.256
		c0.853,23.969,16.742,42.771,35.965,42.566l157.744-1.677c18.273-0.197,33.513-17.554,35.328-40.254
		c1.937-24.175,3.975-48.313,6.182-72.467c0.485-5.312,0.295-11.995-4.188-14.262C237.655,219.85,235.499,220.124,233.601,221.147"
		/>
	<path clip-path="url(#SVGID_2_)" fill="#BBDED1" d="M260.463,97.598l4.779,0.027c6.926,0.042,12.512,6.131,12.475,13.6
		l-0.244,47.652c-0.037,7.471-5.685,13.491-12.611,13.45l-4.779-0.029c-6.927-0.041-12.513-6.127-12.475-13.6l0.243-47.651
		C247.889,103.58,253.536,97.556,260.463,97.598"/>
	<path clip-path="url(#SVGID_2_)" fill="#1E4633" d="M20.319,328.33l205.467,1.214c10.722,0.067,19.364,9.487,19.306,21.044
		c-0.014,3.027-2.299,5.461-5.104,5.444l-234.14-1.385c-2.804-0.018-5.065-2.479-5.048-5.506
		C0.858,337.588,9.598,328.267,20.319,328.33"/>
</g>
<g>
	<defs>
		<polygon id="SVGID_3_" points="0,0.936 0.66,210.691 256.143,175.842 255.588,0 		"/>
	</defs>
	<clipPath id="SVGID_4_">
		<use xlink:href="#SVGID_3_"  overflow="visible"/>
	</clipPath>
	<path clip-path="url(#SVGID_4_)" fill="#6C571B" d="M288.188,114.239c-1.797-46.993-13.397-101.822-49.681-132.261
		c-22.389-18.782-49.948-19.382-77.297-20.932c-32.247-1.824-64.655-0.434-96.668,4.157c-39.893,5.723-75.76,35.31-88.105,77.833
		c-4.097,14.12-2.795,32.825-3.169,47.526c-0.412,16.147-0.205,32.313,0.614,48.444c1.064,20.968,3.164,41.878,6.28,62.612
		c1.576,10.464,3.405,20.884,5.493,31.247c12.775,63.345,33.644,95.41,58.962,154.043c11.446,26.5,24.006,53.167,40.539,76.474
		c9.18,12.944,23.063,39.93,39.922,39.719c0.029-0.003,0.054-0.003,0.082-0.003c24.091-0.833,43.291-44.761,54.468-63.526
		c22.606-37.96,40.413-79.367,56.383-120.956c28.139-73.271,54.261-119.666,52.313-199.915
		C288.291,117.214,288.248,115.728,288.188,114.239"/>
	<polygon clip-path="url(#SVGID_4_)" fill="#271B3A" points="261.091,198.715 9.955,200.557 8.968,44.273 260.106,42.434 	"/>
	<path clip-path="url(#SVGID_4_)" fill="#B9905B" d="M288.242,105.341c-0.032-1.447-0.077-2.897-0.134-4.349
		c-1.751-45.812-13.03-99.264-48.315-128.936C218.018-46.255,191.217-46.84,164.62-48.35c-31.36-1.781-62.877-0.425-94.008,4.048
		C31.817-38.723-3.064-9.88-15.068,31.574c-3.984,13.766-2.72,32.001-3.082,46.331c-0.401,15.741-0.198,31.503,0.597,47.226
		c1.037,20.442,3.078,40.826,6.108,61.039c1.532,10.204,3.313,20.361,5.345,30.463c12.421,61.751,32.718,93.014,57.34,150.172
		c11.131,25.835,23.347,51.831,39.425,74.554c8.927,12.618,22.43,38.927,38.824,38.721c0.028-0.006,0.054-0.006,0.079-0.006
		c23.428-0.81,42.1-43.633,52.973-61.927c21.981-37.006,39.3-77.369,54.829-117.915
		C264.734,228.804,290.136,183.573,288.242,105.341 M107.059,138.991c-0.386,1.608-1.66,2.923-3.158,3.704
		c-0.665,0.347-1.371,0.599-2.101,0.789c-0.911,0.237-1.855,0.376-2.794,0.469c-2.951,0.286-5.939,0.162-8.849-0.367
		c-4.011-0.731-6.705-4.363-2.297-6.818c3.684-2.047,8.839-4.195,13.184-3.973C104.394,132.969,107.918,135.412,107.059,138.991
		 M178.101,141.594c-0.381,2.943-3.369,3.524-5.492,4.233c-4.455,1.486-23.22,4.111-20.132-6.896
		c0.632-2.25,2.403-3.912,4.352-4.707c0.342-0.142,0.688-0.26,1.04-0.355c1.653-0.454,3.396-0.466,5.1-0.367
		c3.949,0.231,7.973,0.995,11.724,2.452C176.725,136.742,178.434,139.049,178.101,141.594"/>
	<path clip-path="url(#SVGID_4_)" fill="#FBD08D" d="M273.767,127.412c1.8-45.811-7.401-105.026-44.027-135.825
		c-20.491-17.232-45.709-17.783-70.732-19.201c-29.515-1.677-67.227-3.918-96.522,0.292C25.98-22.073,5.267,6.005-6.028,45.013
		c-3.75,12.95-5.46,33.348-5.804,46.837c-0.377,14.807,1.4,28.44,2.147,43.232c5.179,102.161,45.24,178.556,88.951,266.783
		c8.607,17.377,26.399,61.453,46.706,65.759c19.807,4.198,47.811-57.006,56.451-75.959c34.926-76.615,55.562-117.092,78.667-192.95
		C269.087,172.459,272.619,156.667,273.767,127.412 M108.063,138.061c-0.447,2.059-1.918,3.741-3.646,4.739
		c-0.769,0.445-1.584,0.769-2.429,1.012c-1.052,0.303-2.143,0.477-3.232,0.593c-3.408,0.367-6.861,0.205-10.225-0.48
		c-4.639-0.94-7.755-5.595-2.662-8.735c4.257-2.617,10.218-5.364,15.236-5.077C104.979,130.335,109.052,133.472,108.063,138.061
		 M179.621,140.992c-0.399,2.915-3.529,3.487-5.75,4.192c-10.346,3.276-23.773,2.319-21.062-6.812
		c0.659-2.235,2.518-3.877,4.557-4.669c0.358-0.136,0.721-0.251,1.088-0.347c1.729-0.451,3.553-0.469,5.337-0.365
		c4.132,0.226,8.338,0.98,12.263,2.415C178.184,136.19,179.97,138.474,179.621,140.992"/>
	<path clip-path="url(#SVGID_4_)" fill="#B9905B" d="M24.541,115.971l90.748-39.493c9.944-4.332,21.091-4.147,30.911,0.509
		l89.817,42.581c1.103,0.523,0.528,2.316-0.638,1.998L140.2,95.23c-6.056-1.671-12.395-1.784-18.498-0.325l-96.582,23.081
		C23.945,118.263,23.426,116.456,24.541,115.971"/>
	<path clip-path="url(#SVGID_4_)" fill="#916C3E" d="M116.732,201.95l25.202-0.185c9.799-0.072,17.796,8.434,17.863,18.993
		l0.011,1.541c0.037,5.934-4.396,10.774-9.898,10.814l-41.462,0.304c-5.503,0.04-9.993-4.736-10.03-10.67l-0.004-0.777
		C98.344,210.989,106.545,202.022,116.732,201.95"/>
	<path clip-path="url(#SVGID_4_)" fill="#594619" d="M115.879,212.744l27.024-0.199c3.646-0.026,6.621,3.143,6.646,7.072
		l0.004,0.615c0.014,2.212-1.636,4.014-3.682,4.027l-33.078,0.243c-2.047,0.015-3.722-1.761-3.736-3.973l-0.001-0.329
		C109.03,216.106,112.086,212.77,115.879,212.744"/>
	<path clip-path="url(#SVGID_4_)" fill="#594619" d="M281.455,127.354c0.014,2.405-1.692,4.372-3.818,4.386
		c-2.121,0.015-3.856-1.922-3.873-4.328c-0.013-2.406,1.698-4.372,3.816-4.386C279.707,123.008,281.439,124.948,281.455,127.354"/>
	<path clip-path="url(#SVGID_4_)" fill="#B9905B" d="M132.497,104.665L29.576,121.646l102.408-20.272
		c0.842-0.168,1.649,0.431,1.805,1.337c0.152,0.908-0.402,1.783-1.244,1.947C132.527,104.662,132.509,104.665,132.497,104.665"/>
	<path clip-path="url(#SVGID_4_)" fill="#B9905B" d="M132.522,101.377l92.666,20.368l-93.237-17.083
		c-0.84-0.155-1.41-1.018-1.266-1.925c0.145-0.911,0.943-1.521,1.788-1.371C132.487,101.372,132.509,101.375,132.522,101.377"/>
	<path clip-path="url(#SVGID_4_)" fill="#594619" d="M102.07,144.534c-0.987,0.283-2.011,0.451-3.027,0.558
		c-3.194,0.341-6.434,0.194-9.587-0.451c-4.349-0.879-7.271-5.248-2.495-8.186c3.992-2.458,9.577-5.031,14.282-4.759
		c3.629,0.205,7.451,3.146,6.519,7.445c-0.416,1.935-1.794,3.507-3.417,4.444C103.627,144.002,102.858,144.309,102.07,144.534"/>
	<path clip-path="url(#SVGID_4_)" fill="#594619" d="M158.304,134.021c1.717-0.448,3.522-0.462,5.29-0.364
		c4.094,0.226,8.266,0.972,12.154,2.391c2.108,0.77,3.876,3.03,3.535,5.517c-0.396,2.882-3.499,3.449-5.702,4.143
		c-4.613,1.458-24.071,4.034-20.868-6.734c0.652-2.203,2.494-3.825,4.516-4.612C157.581,134.229,157.94,134.111,158.304,134.021"/>
	<path clip-path="url(#SVGID_4_)" fill="#82661C" d="M113.188,172.1l35.154-0.257c2.003-0.014,3.388-2.833,2.707-5.511L133.381,96.5
		c-0.901-3.526-4.371-3.676-5.403-0.234l-17.489,70.084C109.67,169.079,111.095,172.118,113.188,172.1"/>
	<path clip-path="url(#SVGID_4_)" fill="#916C3E" d="M119.591,167.711l22.558-0.165c1.285-0.009,2.168-2.29,1.729-4.461
		l-11.662-63.388c-0.577-2.856-2.808-2.981-3.464-0.197l-10.897,63.55C117.329,165.259,118.248,167.723,119.591,167.711"/>
	<path clip-path="url(#SVGID_4_)" fill="#916C3E" d="M63.741,103.904c11.043-5.702,22.357-10.432,33.755-14.87
		c5.713-2.17,11.427-4.33,17.192-6.327l8.779-2.982c3.545-1.078,7.366-1.198,10.96-0.262c1.928,0.494,3.269,1.111,4.695,1.602
		l4.293,1.585c2.858,1.073,5.739,2.08,8.572,3.229c5.679,2.257,11.391,4.43,17.02,6.851c11.298,4.722,22.516,9.718,33.481,15.521
		c-12.012-2.396-23.779-5.601-35.466-9.083c-5.862-1.671-11.645-3.605-17.455-5.444c-2.913-0.899-5.779-1.946-8.668-2.924
		l-4.325-1.491c-1.456-0.48-2.941-1.067-3.972-1.295c-2.304-0.524-4.715-0.521-7.004,0.138l-8.595,2.699
		c-5.816,1.812-11.679,3.456-17.546,5.092C87.697,99.116,75.855,101.993,63.741,103.904"/>
</g>
</svg>
