<?xml version="1.0" encoding="utf-8"?>
<!-- Generator: Adobe Illustrator 16.0.0, SVG Export Plug-In . SVG Version: 6.00 Build 0)  -->
<!DOCTYPE svg PUBLIC "-//W3C//DTD SVG 1.1//EN" "http://www.w3.org/Graphics/SVG/1.1/DTD/svg11.dtd">
<svg version="1.1" id="Capa_1" xmlns="http://www.w3.org/2000/svg" xmlns:xlink="http://www.w3.org/1999/xlink" x="0px" y="0px"
	 width="243.094px" height="348.619px" viewBox="0 0 243.094 348.619" enable-background="new 0 0 243.094 348.619"
	 xml:space="preserve">
<path fill="#091F28" d="M146.377,287.084c-10.729,0.129-24.758-0.482-35.59-0.688c-6.509-0.121-10.108-1.813-15.206-4.568
	c-0.911-0.495-2.264-1.463-3.032-2.026c-4.611-3.392-7.925-7.361-9.403-12.377c-3.467-11.768-5.413-23.302-7.272-35.299
	c-1.755-11.301-3.43-22.08-4.068-33.535c-1.293-23.256-8.487-45.196-14.18-67.767c-5.785-22.958-5.886-46.984-0.355-69.963
	c1.657-6.876,3.767-13.735,6.431-20.363c1.052-2.616,2.803-11.593,6.498-12.287c4.901-0.921,7.76,11.649,8.599,14.573
	C83.86,60.369,89.42,77.921,93.377,95.696c0.752,3.375,7.737,0.457,11.568-0.288c17.385-3.373,35.112-2.558,52.364,1.065
	c1.775,0.374,3.28-0.629,3.361-2.182c0.952-18.644,3.087-36.816,8.349-54.9c0.403-1.384,4.416-16.626,8.178-9.644
	c19.914,36.946,31.574,77.883,19.166,119.81c-8.044,27.174-12.312,61.26-15.699,90.136c-1.201,10.229-5.587,21.905-8.489,30.468
	c-1.932,5.698-3.354,7.479-7.257,10.655C159.237,285.429,154.489,286.986,146.377,287.084"/>
<path fill="#6EB2D0" d="M143.38,284.896c-10.17,0.146-23.469-0.462-33.736-0.659c-6.169-0.115-9.579-1.819-14.409-4.604
	c-0.864-0.497-2.146-1.469-2.874-2.039c-4.365-3.427-7.502-7.429-8.898-12.493c-3.278-11.889-5.104-23.54-6.855-35.653
	c-1.655-11.422-3.229-22.307-3.821-33.882c-1.201-23.493-7.998-45.649-13.371-68.449c-5.459-23.186-5.528-47.461-0.261-70.68
	c1.579-6.947,3.586-13.879,6.12-20.578c0.996-2.643,2.668-11.713,6.17-12.42c4.647-0.932,7.342,11.761,8.137,14.717
	c4.778,17.76,10.03,35.485,13.764,53.441c0.71,3.408,7.333,0.452,10.964-0.302c16.488-3.422,33.291-2.618,49.636,1.029
	c1.685,0.375,3.112-0.64,3.188-2.211c0.927-18.835,2.971-37.198,7.979-55.471c0.382-1.398,4.203-16.799,7.763-9.75
	c18.835,37.308,29.845,78.654,18.037,121.021c-7.651,27.463-11.736,61.9-14.979,91.076c-1.15,10.339-5.317,22.139-8.081,30.792
	c-1.835,5.757-3.186,7.558-6.891,10.768C155.573,283.216,151.068,284.792,143.38,284.896"/>
<g>
	<defs>
		<path id="SVGID_1_" d="M165.109,34.644c-5.01,18.271-7.048,36.633-7.977,55.468c-0.075,1.572-1.503,2.587-3.188,2.211
			c-16.346-3.647-33.151-4.452-49.636-1.029c-3.633,0.754-10.251,3.712-10.964,0.3c-3.733-17.954-8.985-35.678-13.764-53.44
			c-0.794-2.954-3.49-15.646-8.137-14.713c-3.501,0.705-5.174,9.775-6.172,12.42c-2.532,6.695-4.542,13.629-6.118,20.574
			c-5.267,23.224-5.198,47.497,0.263,70.684c5.368,22.8,12.17,44.954,13.367,68.447c0.592,11.575,2.168,22.46,3.821,33.882
			c1.752,12.113,3.582,23.765,6.859,35.653c1.394,5.068,4.528,9.066,8.896,12.493c0.73,0.57,2.007,1.547,2.874,2.043
			c4.83,2.775,8.24,4.481,14.409,4.601c10.267,0.197,23.566,0.802,33.736,0.659c7.687-0.107,12.191-1.68,17.583-6.349
			c3.704-3.21,5.053-5.011,6.888-10.768c2.764-8.657,6.931-20.453,8.081-30.792c3.243-29.176,7.323-63.612,14.978-91.073
			c11.808-42.369,0.8-83.717-18.038-121.021c-0.652-1.292-1.311-1.83-1.959-1.84c-0.004,0-0.011,0-0.018,0
			C168.019,23.053,165.424,33.501,165.109,34.644"/>
	</defs>
	<clipPath id="SVGID_2_">
		<use xlink:href="#SVGID_1_"  overflow="visible"/>
	</clipPath>
	<path clip-path="url(#SVGID_2_)" fill="#6EB2D0" d="M40.146,149.632c15.865-4.765,32.92-6.888,46.862,3.126
		c13.94,10.008,25.632,22.513,39.284,32.855c10.645-9.479,21.449-19.142,32.094-28.746c16.892-1.575,33.775-3.151,50.668-4.701
		c11.163,6.069,22.329,12.133,33.493,18.199c-4.608,22.823-9.299,45.629-13.969,68.444c-25.529-1.46-51.059-2.918-76.587-4.373
		c-8.135-9.184-16.327-18.317-24.514-27.459c-7.449,8.358-14.894,16.72-22.32,25.1c-21.054,2.663-42.106,5.288-63.169,7.944
		C41.307,209.875,40.579,179.836,40.146,149.632"/>
	<path clip-path="url(#SVGID_2_)" fill="#B1DEF2" d="M138.178,198.161c12.27,15.255,35.535,5.45,49.883-0.454
		c-0.161,4.965-0.298,9.935-0.448,14.903C166.597,217.625,147.314,219.701,138.178,198.161"/>
	<path clip-path="url(#SVGID_2_)" fill="#B1DEF2" d="M118.196,197.724c-13.085,14.619-35.703,3.918-49.777-2.622
		c-0.143,4.939-0.279,9.884-0.417,14.823C88.77,215.871,107.853,218.78,118.196,197.724"/>
	<path clip-path="url(#SVGID_2_)" fill="#0B608E" d="M204.314,148.44c-0.229-0.321-0.576-0.557-0.835-0.842
		c-0.178-3.128-1.775-4.904-5.24-4.998c-1.173-0.031-2.495,0.238-3.71,0.261c-6.22-1.182-12.54-1.273-18.751-0.138
		c-10.54,1.932-20.018,5.344-28.636,11.269c-10.063,6.92-16.273,15.527-21.174,26.091c-2.354,0.338-3.796,1.41-4.395,3.585
		c-0.118,0.43-0.167,1.038-0.228,1.326c-0.04,0.191-0.013,0.021-0.018,0.037c-0.018,0.084-0.007,0.112-0.016,0.162
		c-0.368,2.385-0.482,4.836-0.576,7.225c-0.299,7.587-1.503,15.277-1.579,22.806c-0.051,4.978,5.097,6.162,9.081,3.915
		c1.503,3.284,3.171,6.339,5.431,9.225c0.209,1.784,0.314,3.543,0.28,5.361c-3.288,2.858-5.892,6.678-8.151,10.138
		c-2.26,3.465-3.722,6.549-5.167,10.232c-3.081,1.964-4.285,4.386-4.477,7.983c-0.297,5.507-0.75,11.117-0.525,16.829
		c0.179,4.464,2.566,8.016,7.697,8.229c1.628,0.067,2.805-0.514,4.146-1.192c5.855,0.608,8.953-3.73,5.833-8.42
		c-0.239-0.358-0.676-0.671-0.948-0.997c-0.271-0.325-0.719-0.613-0.999-0.847c-0.285-0.228-0.349-0.378-0.588-0.595
		c1.713-7.874,3.711-15.232,8.542-21.981c1.92-0.195,2.979-1.063,3.978-2.58c0.357-0.543,0.508-1.377,0.993-1.856
		c0.56-0.554,1.408-0.934,2.183-1.304c5.377-2.584,11.629-3.872,17.461-3.831c5.831,0.038,10.581,0.013,16.179,0.471
		c0.285,0.021,0.595,0.055,0.873,0.019c4.516-0.564,6.308-3.683,5.012-7.655c-0.075-0.229-0.152-0.378-0.259-0.541
		c-0.994-1.513-2.23-2.26-4.087-2.563c0.577-3.628-0.863-6.482-5.041-6.732c-0.02,0-0.01,0.008-0.027,0
		c-0.904-0.422-1.665-0.721-2.722-0.788c-3.427-0.203-6.771,0.05-10.253,0.538c-7.032-1.713-14.202-3.568-18.769-9.347
		c-7.201-9.107-6.845-19.695-0.311-29.263c12.853-18.826,32.362-27.575,55.586-30.422
		C205.208,156.623,207.134,152.346,204.314,148.44"/>
	<path clip-path="url(#SVGID_2_)" fill="#0B608E" d="M56.04,145.685c0.25-0.304,0.605-0.525,0.879-0.798
		c0.369-3.104,2.082-4.786,5.522-4.75c1.17,0.011,2.479,0.319,3.683,0.388c6.246-0.934,12.578-0.817,18.705,0.544
		c10.396,2.311,19.629,6.042,27.914,12.282c9.673,7.282,15.342,16.141,19.612,26.861c2.327,0.447,3.704,1.572,4.178,3.773
		c0.092,0.433,0.107,1.042,0.147,1.334c0.031,0.191,0.012,0.017,0.019,0.037c0.011,0.083,0,0.113,0.004,0.158
		c0.228,2.405,0.201,4.86,0.153,7.25c-0.138,7.595,0.624,15.345,0.271,22.863c-0.23,4.97-5.418,5.928-9.288,3.502
		c-1.686,3.21-3.519,6.19-5.942,8.963c-0.306,1.774-0.506,3.525-0.576,5.339c3.129,3.011,5.518,6.937,7.583,10.501
		c2.065,3.564,3.351,6.716,4.58,10.467c2.959,2.109,4.016,4.586,3.998,8.187c-0.028,5.511,0.1,11.14-0.463,16.83
		c-0.442,4.451-3.035,7.883-8.17,7.853c-1.628-0.012-2.769-0.646-4.073-1.388c-5.888,0.325-8.708-4.165-5.323-8.687
		c0.254-0.348,0.712-0.639,1.002-0.952c0.288-0.311,0.753-0.579,1.049-0.796c0.295-0.217,0.371-0.361,0.624-0.57
		c-1.25-7.937-2.814-15.382-7.246-22.356c-1.909-0.288-2.916-1.196-3.838-2.763c-0.326-0.556-0.42-1.381-0.889-1.898
		c-0.536-0.586-1.304-0.957-2.164-1.416c-5.953-3.178-16.56-5.09-22.418-5.236c-5.859-0.142-6.112,1.477-10.993,0.342
		c-0.266-0.062-0.551,0.021-0.831-0.025c-4.488-0.791-6.089-3.964-4.575-7.865c0.087-0.226,0.171-0.367,0.288-0.526
		c1.079-1.458,2.36-2.149,4.225-2.362c-0.371-3.656,1.244-6.42,5.419-6.474c0.018,0,0.007,0.009,0.027,0
		c0.925-0.375,1.704-0.643,2.762-0.655c3.434-0.049,6.759,0.363,10.216,1.001c7.121-1.379,14.389-2.935,19.279-8.462
		c7.708-8.717,7.94-19.347,1.98-29.176c-11.729-19.339-30.758-28.696-53.646-32.51C54.7,153.654,52.994,149.399,56.04,145.685"/>
	<path clip-path="url(#SVGID_2_)" fill="#93D0F2" d="M113.808,284.812c-0.022-2.922,0.051-5.831,0.123-8.645
		c0.083-3.16,0.167-6.425,0.109-9.695c-0.018-1.064,0.018-2.139,0.056-3.215c0.125-3.71,0.243-7.22-1.983-10.208
		c-4.064-5.457-11.806-7.737-19.563-9.383c-6.139-1.302-12.078-1.189-18.364-1.071c-1.205,0.02-2.414,0.041-3.63,0.058l-0.045-3.478
		c1.208-0.013,2.407-0.032,3.6-0.058c6.522-0.125,12.683-0.237,19.263,1.159c8.492,1.801,17.008,4.355,21.795,10.787
		c2.932,3.936,2.78,8.379,2.646,12.307c-0.034,1.021-0.069,2.037-0.051,3.043c0.058,3.342-0.029,6.645-0.11,9.838
		c-0.073,2.788-0.147,5.664-0.123,8.537L113.808,284.812z"/>
	<path clip-path="url(#SVGID_2_)" fill="#93D0F2" d="M84.239,226.275c-4.981-0.075-9.921-0.705-14.766-1.326l-1.315-0.167l0.5-3.447
		l1.32,0.172c8.599,1.096,16.716,2.138,24.901,0.32c10.03-2.219,16.073-6.34,19.011-12.956c1.675-3.772,1.849-7.916,0.527-12.668
		c-2.961-10.646-9.673-19.259-20.521-26.324c-9.541-6.216-20.078-9.305-31.241-12.577l-2.46-0.725l1.121-3.313l2.456,0.721
		c11.439,3.355,22.247,6.523,32.257,13.043c11.444,7.453,18.842,16.979,21.992,28.305c1.532,5.507,1.304,10.371-0.692,14.868
		c-3.387,7.634-10.45,12.544-21.59,15.012C91.894,226.062,88.056,226.329,84.239,226.275"/>
	<path clip-path="url(#SVGID_2_)" fill="#93D0F2" d="M137.676,285.388l-3.716-0.216c0.194-2.882,0.289-5.778,0.38-8.583
		c0.104-3.177,0.209-6.457,0.464-9.775c0.077-1.001,0.101-2.014,0.125-3.03c0.099-3.929,0.213-8.379,3.356-12.173
		c5.146-6.212,13.782-8.357,22.35-9.76c6.661-1.087,12.823-0.682,19.34-0.257c1.173,0.074,2.354,0.154,3.543,0.221l-0.225,3.469
		c-1.203-0.067-2.395-0.146-3.579-0.221c-6.287-0.418-12.225-0.802-18.438,0.212c-7.826,1.278-15.673,3.189-20.048,8.465
		c-2.393,2.89-2.482,6.403-2.576,10.127c-0.026,1.071-0.054,2.139-0.135,3.193c-0.246,3.246-0.354,6.493-0.455,9.636
		C137.968,279.528,137.874,282.454,137.676,285.388"/>
	<path clip-path="url(#SVGID_2_)" fill="#93D0F2" d="M171.667,228.275c-4.182-0.062-8.373-0.487-12.533-1.612
		c-10.994-2.985-17.77-8.217-20.708-15.999c-1.744-4.61-1.692-9.483,0.154-14.903c3.803-11.159,11.752-20.384,23.624-27.403
		c10.589-6.262,21.848-9.038,33.766-11.985l1.777-0.438l0.958,3.355l-1.781,0.442c-11.634,2.872-22.626,5.59-32.728,11.56
		c-11.269,6.665-18.486,15.016-22.066,25.523c-1.592,4.674-1.656,8.82-0.191,12.689c2.544,6.744,8.34,11.134,18.236,13.814
		c8.045,2.184,16.184,1.53,24.799,0.834l1.408-0.113l0.318,3.461l-1.404,0.115C180.813,227.975,176.247,228.341,171.667,228.275"/>
	<path clip-path="url(#SVGID_2_)" fill="#093F5C" d="M126.366,217.974c-4.05,5.253-8.289,11.169-12.261,16.582
		c-0.447,0.61-0.451,0.978-0.025,1.594c3.64,5.281,7.521,11.046,11.218,16.195c0.757,1.053,1.686,1.078,2.515,0.07
		c4.063-4.97,8.346-10.552,12.354-15.666c0.472-0.6,0.489-0.97,0.072-1.605c-3.664-5.585-7.563-11.68-11.314-17.11
		C128.166,216.932,127.186,216.913,126.366,217.974"/>
	<path clip-path="url(#SVGID_2_)" fill="#93D0F2" d="M126.529,254.091c-0.014-0.004-0.022-0.004-0.031-0.004
		c-0.536-0.013-1.327-0.238-2.03-1.222c-2.686-3.739-5.479-7.821-8.181-11.764c-1.03-1.501-2.048-2.988-3.05-4.443
		c-0.641-0.934-0.63-1.719,0.04-2.631c1.027-1.396,2.07-2.826,3.124-4.277c3.019-4.135,6.14-8.416,9.15-12.322
		c0.757-0.979,1.57-1.184,2.126-1.171c0.006,0,0.013,0,0.02,0c0.554,0.013,1.362,0.241,2.073,1.267
		c2.785,4.035,5.658,8.445,8.438,12.716c0.974,1.49,1.94,2.971,2.888,4.418c0.627,0.953,0.591,1.746-0.118,2.646l-3.231,4.14
		c-3.017,3.872-6.14,7.878-9.14,11.538C127.853,253.909,127.065,254.094,126.529,254.091 M114.766,235.365
		c0,0,0.016,0.076,0.159,0.284c1,1.451,2.021,2.944,3.053,4.447c2.695,3.936,5.479,8.005,8.154,11.728
		c0.232,0.32,0.4,0.395,0.429,0.395c-0.004-0.007,0.19-0.049,0.456-0.371c2.983-3.642,6.099-7.641,9.107-11.509l3.233-4.14
		c0.162-0.198,0.177-0.274,0.18-0.278c0,0-0.014-0.079-0.148-0.284c-0.95-1.451-1.92-2.931-2.894-4.427
		c-2.771-4.256-5.641-8.657-8.411-12.673c-0.232-0.337-0.406-0.407-0.44-0.407c-0.031,0-0.214,0.063-0.467,0.392
		c-2.994,3.89-6.109,8.158-9.117,12.285c-1.057,1.445-2.102,2.88-3.128,4.28C114.782,235.291,114.766,235.362,114.766,235.365"/>
	<path clip-path="url(#SVGID_2_)" fill="#93D0F2" d="M130.606,173.905l-0.284,0.408c-0.621,0.892-2.025,0.859-2.597-0.058
		l-0.263-0.422c-6.869-10.675-15.961-18.629-28.611-25.037c-11.031-5.59-22.698-7.904-37.803-7.479l-0.112-3.474
		c15.803-0.438,28.05,1.997,39.693,7.895c12.173,6.169,21.525,14.051,28.509,24.047c7.605-9.847,17.29-17.38,29.518-22.984
		c11.804-5.409,24.573-7.458,40.17-6.457l-0.257,3.468c-15.134-0.969-26.928,0.911-38.271,6.106
		C147.785,155.659,138.068,163.504,130.606,173.905"/>
	<path clip-path="url(#SVGID_2_)" fill="#093F5C" d="M184.875,204.732c-4.247,1.909-8.517,3.214-12.902,3.93
		c0.637-0.733,1.251-1.479,1.803-2.267c0.262-0.376-0.212-0.63-0.547-0.668c-0.461-0.05-1.021,0.143-1.279,0.509
		c-0.673,0.955-1.412,1.855-2.216,2.714c-1.95,0.226-3.927,0.339-5.935,0.333c0.473-0.42,0.967-0.816,1.42-1.259
		c0.321-0.312,0.156-0.729-0.239-0.884c-0.455-0.175-1.048,0.01-1.373,0.321c-0.641,0.625-1.322,1.21-2.005,1.789
		c-1.01-0.042-2.025-0.1-3.05-0.195c-0.96-0.093-1.987,1.204-0.688,1.324c0.978,0.096,1.941,0.146,2.903,0.191
		c0.039,0.047,0.097,0.084,0.155,0.121c-0.07,0.067-0.098,0.13-0.039,0.167c1.748,1.063,3.526,2.08,5.342,3.03
		c0.357,0.191,0.894,0.066,1.255-0.055c0.094-0.037,0.897-0.378,0.574-0.55c-1.599-0.841-3.167-1.733-4.711-2.659
		c2.241,0.004,4.452-0.121,6.63-0.384c0.011,0.005,0.013,0.013,0.024,0.018c2.04,0.95,4.142,1.75,6.314,2.413
		c0.806,0.241,2.295-0.833,1.146-1.18c-1.566-0.475-3.082-1.05-4.576-1.677c4.361-0.773,8.625-2.084,12.839-3.979
		C186.907,205.302,185.872,204.281,184.875,204.732"/>
	<path clip-path="url(#SVGID_2_)" fill="#093F5C" d="M100.354,208.208c-1.543,0.288-3.048,0.467-4.53,0.563
		c-0.025-0.021-0.056-0.042-0.081-0.063c-0.65-0.584-1.304-1.159-1.956-1.743c-0.375-0.337-2.146,0.317-1.831,0.597
		c0.451,0.403,0.904,0.805,1.355,1.205c0.031,0.029,0.069,0.058,0.105,0.087c-1.82,0.004-3.608-0.121-5.368-0.363
		c-0.186-0.262-0.451-0.491-0.679-0.725c-0.735-0.747-1.322-1.56-1.787-2.484c-0.359-0.709-2.269-0.188-1.942,0.458
		c0.442,0.871,1.012,1.563,1.608,2.276c-1.479-0.3-2.941-0.68-4.399-1.117c-0.179-0.538-0.639-1.097-0.884-1.526
		c-0.518-0.904-1.039-1.805-1.557-2.704c-0.348-0.621-2.23-0.055-1.942,0.454c0.554,0.967,1.11,1.93,1.662,2.896
		c-2.195-0.767-4.386-1.654-6.601-2.622c-0.755-0.333-2.253,0.663-1.154,1.147c2.836,1.237,5.613,2.321,8.391,3.205
		c-0.078,0.175-0.216,0.359-0.491,0.617c-0.551,0.525-1.333,0.925-1.987,1.325c-1.094,0.667,0.567,0.938,1.193,0.559
		c0.721-0.438,2.239-1.146,2.999-1.988c1.837,0.524,3.682,0.946,5.542,1.255c-0.143,0.196-0.455,0.347-0.804,0.567
		c-0.706,0.438-1.414,0.87-2.117,1.313c-1.084,0.688,0.522,1.155,1.233,0.708c0.893-0.566,1.8-1.112,2.695-1.679
		c0.295-0.188,0.639-0.384,0.894-0.639c2.057,0.25,4.14,0.354,6.281,0.287c-0.015,0.025-0.02,0.051-0.042,0.075
		c-0.328,0.404-0.98,0.738-1.397,1.06c-0.518,0.392-1.037,0.783-1.555,1.175c-0.357,0.268,0.304,0.325,0.458,0.325
		c0.44,0,0.958-0.157,1.3-0.416c0.623-0.472,1.244-0.942,1.867-1.413c0.279-0.214,0.896-0.556,1.257-0.909
		c1.496-0.113,3.017-0.305,4.58-0.597C101.875,209.151,101.551,207.987,100.354,208.208"/>
	<path clip-path="url(#SVGID_2_)" fill="#93D0F2" d="M183.83,139.709l0.048-1.716c-1.104-0.079-2.203-0.156-3.303-0.235
		c-0.01,0.379-0.016,0.758-0.023,1.14c-0.013,0.802,0.555,1.411,1.434,1.476c0.727,0.052,1.853-0.428,1.866-1.238
		c0.012-0.382,0.018-0.759,0.026-1.143c0.012-0.802-0.556-1.409-1.435-1.473c-0.732-0.054-1.849,0.427-1.868,1.238
		c-0.016,0.569-0.03,1.142-0.046,1.713c-0.023,0.802,0.554,1.411,1.435,1.476C182.694,141,183.811,140.52,183.83,139.709"/>
	<path clip-path="url(#SVGID_2_)" fill="#93D0F2" d="M159.418,146.052c-0.351-0.861-0.701-1.72-1.054-2.581
		c-0.66-1.613-3.761-0.533-3.06,1.186c0.354,0.861,0.703,1.722,1.055,2.581C157.017,148.853,160.121,147.773,159.418,146.052"/>
	<path clip-path="url(#SVGID_2_)" fill="#93D0F2" d="M169.861,146.702c0.309,0.842,0.469,1.722,0.551,2.607
		c0.163,1.757,3.461,1.275,3.293-0.494c-0.104-1.142-0.39-2.215-0.785-3.299c-0.281-0.765-1.51-0.896-2.19-0.632
		C169.897,145.206,169.581,145.937,169.861,146.702"/>
	<path clip-path="url(#SVGID_2_)" fill="#93D0F2" d="M143.23,155.834c-0.481-0.771-0.963-1.538-1.444-2.31
		c-0.933-1.491-4.047-0.401-3.059,1.188c0.482,0.771,0.963,1.539,1.444,2.309C141.105,158.514,144.223,157.418,143.23,155.834"/>
	<path clip-path="url(#SVGID_2_)" fill="#93D0F2" d="M149.097,155.48c0.317,0.859,0.635,1.718,0.949,2.576
		c0.279,0.763,1.508,0.896,2.188,0.629c0.83-0.32,1.15-1.05,0.868-1.817c-0.314-0.858-0.629-1.713-0.946-2.571
		c-0.281-0.767-1.506-0.901-2.191-0.634C149.138,153.984,148.815,154.717,149.097,155.48"/>
	<path clip-path="url(#SVGID_2_)" fill="#93D0F2" d="M118.81,156.339c0.351-0.705,0.799-1.285,1.377-1.839
		c0.588-0.563,0.342-1.504-0.326-1.894c-0.768-0.45-1.73-0.229-2.331,0.348c-0.75,0.721-1.346,1.546-1.798,2.459
		C114.869,157.152,118.035,157.906,118.81,156.339"/>
	<path clip-path="url(#SVGID_2_)" fill="#93D0F2" d="M102.771,151.425c-0.873,1.019-1.624,2.121-2.244,3.288
		c-0.911,1.713,2.26,2.472,3.08,0.925c0.509-0.958,1.105-1.834,1.819-2.668C106.752,151.417,103.942,150.052,102.771,151.425"/>
	<path clip-path="url(#SVGID_2_)" fill="#93D0F2" d="M96.802,144.849c0.351-1.104,0.811-2.176,1.331-3.214
		c0.869-1.738-2.299-2.493-3.077-0.93c-0.634,1.267-1.13,2.566-1.554,3.904c-0.248,0.779,0.719,1.426,1.434,1.478
		C95.855,146.152,96.554,145.637,96.802,144.849"/>
	<path clip-path="url(#SVGID_2_)" fill="#93D0F2" d="M80.03,141.379c-0.574,1.43-0.976,2.893-1.154,4.413
		c-0.216,1.83,3.1,1.961,3.302,0.235c0.152-1.28,0.447-2.512,0.929-3.721C83.826,140.51,80.678,139.759,80.03,141.379"/>
	<path clip-path="url(#SVGID_2_)" fill="#93D0F2" d="M74.241,138.311c-0.047-0.951-0.099-1.899-0.146-2.849
		c-0.044-0.811-1.15-1.201-1.88-1.092c-0.875,0.131-1.46,0.767-1.42,1.586c0.051,0.946,0.098,1.896,0.147,2.847
		c0.042,0.813,1.15,1.2,1.878,1.092C73.696,139.766,74.285,139.128,74.241,138.311"/>
	<path clip-path="url(#SVGID_2_)" fill="#93D0F2" d="M86.374,161.737c0.375-0.788,0.753-1.575,1.13-2.359
		c0.835-1.755-2.327-2.505-3.079-0.93c-0.377,0.788-0.753,1.576-1.13,2.363C82.46,162.558,85.622,163.313,86.374,161.737"/>
	<path clip-path="url(#SVGID_2_)" fill="#93D0F2" d="M107.895,175.709c0.625-0.646,1.25-1.283,1.878-1.926
		c0.567-0.58,0.362-1.491-0.324-1.893c-0.75-0.442-1.753-0.245-2.333,0.347c-0.627,0.642-1.253,1.284-1.878,1.925
		c-0.563,0.58-0.359,1.493,0.326,1.893C106.314,176.498,107.317,176.301,107.895,175.709"/>
	<path clip-path="url(#SVGID_2_)" fill="#93D0F2" d="M149.298,179.537c-0.587-0.713-1.175-1.43-1.76-2.143
		c-1.125-1.367-3.868,0.255-2.617,1.775c0.588,0.713,1.175,1.43,1.76,2.143C147.805,182.684,150.546,181.058,149.298,179.537"/>
	<path clip-path="url(#SVGID_2_)" fill="#93D0F2" d="M169.352,164.505c-0.179-0.801-0.359-1.605-0.535-2.405
		c-0.389-1.734-3.689-1.242-3.299,0.491c0.178,0.801,0.358,1.605,0.536,2.406C166.442,166.735,169.741,166.244,169.352,164.505"/>
	<path clip-path="url(#SVGID_2_)" fill="#93D0F2" d="M118.878,198.329l2.173-1.335c0.686-0.42,0.84-1.354,0.279-1.921
		c-0.611-0.617-1.636-0.575-2.339-0.142l-2.175,1.334c-0.683,0.422-0.835,1.355-0.272,1.921
		C117.151,198.799,118.175,198.762,118.878,198.329"/>
	<path clip-path="url(#SVGID_2_)" fill="#93D0F2" d="M138.792,196.639c-0.764-0.611-1.529-1.221-2.298-1.829
		c-0.661-0.525-1.601-0.646-2.335-0.142c-0.596,0.408-0.942,1.392-0.28,1.918c0.765,0.608,1.533,1.221,2.296,1.83
		c0.663,0.529,1.604,0.646,2.338,0.146C139.109,198.154,139.451,197.166,138.792,196.639"/>
	<path clip-path="url(#SVGID_2_)" fill="#93D0F2" d="M145.488,221.31c-0.739,0.971-1.477,1.945-2.215,2.922
		c-1.229,1.613,1.568,2.98,2.656,1.542c0.74-0.972,1.477-1.946,2.217-2.922C149.367,221.235,146.576,219.872,145.488,221.31"/>
	<path clip-path="url(#SVGID_2_)" fill="#93D0F2" d="M105.939,221.89c0.913,0.646,1.521,1.512,1.815,2.542
		c0.226,0.783,1.018,1.221,1.88,1.093c0.723-0.109,1.645-0.793,1.42-1.585c-0.518-1.805-1.516-3.164-3.108-4.289
		C106.444,218.583,104.249,220.693,105.939,221.89"/>
	<path clip-path="url(#SVGID_2_)" fill="#93D0F2" d="M161.437,228.434c0.042,0.93,0.082,1.857,0.122,2.784
		c0.034,0.813,1.154,1.201,1.876,1.097c0.885-0.134,1.457-0.771,1.42-1.589c-0.04-0.925-0.08-1.854-0.118-2.781
		c-0.036-0.812-1.156-1.203-1.881-1.095C161.977,226.979,161.399,227.616,161.437,228.434"/>
	<path clip-path="url(#SVGID_2_)" fill="#93D0F2" d="M87.2,226.542c0.031,1.188,0.063,2.38,0.094,3.567
		c0.021,0.813,1.164,1.201,1.878,1.093c0.891-0.134,1.44-0.767,1.42-1.585c-0.031-1.188-0.065-2.379-0.092-3.567
		c-0.022-0.813-1.166-1.2-1.88-1.093C87.729,225.086,87.178,225.723,87.2,226.542"/>
	<path clip-path="url(#SVGID_2_)" fill="#93D0F2" d="M120.712,222.827c2.012,0.029,2.608-2.681,0.436-2.714
		C119.136,220.084,118.537,222.798,120.712,222.827"/>
	<path clip-path="url(#SVGID_2_)" fill="#93D0F2" d="M133.982,223.16c2.013,0.03,2.605-2.68,0.436-2.713
		C132.403,220.417,131.808,223.127,133.982,223.16"/>
	<path clip-path="url(#SVGID_2_)" fill="#93D0F2" d="M138.521,243.378c2.015,0.029,2.608-2.682,0.436-2.714
		C136.944,240.635,136.35,243.349,138.521,243.378"/>
	<path clip-path="url(#SVGID_2_)" fill="#93D0F2" d="M115.357,242.973c2.012,0.029,2.608-2.685,0.436-2.714
		C113.781,240.23,113.183,242.941,115.357,242.973"/>
	<path clip-path="url(#SVGID_2_)" fill="#93D0F2" d="M98.38,241.947c-0.576-1.074-0.846-2.149-0.891-3.351
		c-0.027-0.813-1.159-1.201-1.875-1.096c-0.887,0.134-1.447,0.771-1.42,1.588c0.051,1.426,0.442,2.772,1.127,4.048
		C96.152,244.686,99.265,243.599,98.38,241.947"/>
	<path clip-path="url(#SVGID_2_)" fill="#93D0F2" d="M154.785,243.516c-0.166-1.154-0.326-2.311-0.492-3.465
		c-0.251-1.755-3.546-1.272-3.299,0.492c0.164,1.154,0.329,2.309,0.49,3.465C151.734,245.767,155.033,245.278,154.785,243.516"/>
	<path clip-path="url(#SVGID_2_)" fill="#93D0F2" d="M135.016,271.695c-0.459,0.033-0.919,0.074-1.379,0.109
		c-0.807,0.062-1.55,0.819-1.421,1.583c0.147,0.85,1.075,1.159,1.881,1.096c0.46-0.037,0.917-0.073,1.377-0.111
		c0.807-0.067,1.55-0.822,1.42-1.585C136.751,271.936,135.82,271.628,135.016,271.695"/>
	<path clip-path="url(#SVGID_2_)" fill="#93D0F2" d="M116.815,274.241c0.512,0.013,1.021,0.025,1.53,0.034
		c0.822,0.021,1.742-0.405,1.869-1.237c0.121-0.772-0.623-1.456-1.434-1.473c-0.507-0.013-1.02-0.029-1.529-0.036
		c-0.822-0.021-1.74,0.403-1.869,1.237C115.262,273.537,116.007,274.221,116.815,274.241"/>
</g>
<path fill="#091F28" d="M178.708,182.342c-3.761,4.272-6.387,8.695-11.795,11.534c-5.407,2.839-11.756,3.814-18.009,3.906
	c0.076-0.342,0.065-0.797,0.192-1.113c2.159-5.424,4.752-9.7,10.493-12.656C165.328,181.058,172.281,180.712,178.708,182.342"/>
<path fill="#091F28" d="M79.678,180.45c3.514,4.409,5.859,8.907,11.095,11.968c5.234,3.06,11.542,4.318,17.765,4.677
	c-0.056-0.346-0.02-0.796-0.129-1.12c-1.845-5.499-4.171-9.868-9.744-13.062C93.086,179.72,86.164,179.099,79.678,180.45"/>
<path fill="#B1DEF2" d="M101.416,264.004c-0.099,3.392-2.937,5.907-6.57,5.823c-3.63-0.085-6.326-2.727-6.232-6.115
	c0.092-3.391,2.934-5.903,6.567-5.82C98.814,257.972,101.514,260.61,101.416,264.004"/>
<path fill="#B1DEF2" d="M162.454,265.462c-0.101,3.389-2.938,5.903-6.571,5.814c-3.633-0.083-6.316-2.733-6.219-6.122
	c0.103-3.389,2.94-5.903,6.574-5.82C159.869,259.423,162.556,262.07,162.454,265.462"/>
<path fill="#093F5C" d="M61.608,160.958c0.809,0.179,1.809,0.454,2.271,0.779c0.362,0.25,0.764,0.663,0.999,0.972
	c0.006,0.017,0.556,1.033,0.48,1.017c-0.556-0.146,1.487-1.176,1.525-1.18c0.862-0.125,1.585,1.134,1.519,1.146
	c0.109-0.021,0.386-0.483,0.55-0.616c0.56-0.463,1.344-0.784,1.985-1.143c4.432-2.497,0.502-9.072-3.959-6.562
	c-3.483,1.959-7.002,4.59-6.601,8.825c0.397,4.168,5.156,7.324,9.412,5.223c3.941-1.947,4.3-6.641,2.362-9.983
	c-1.715-2.964-4.807-4.936-8.273-5.707C58.838,152.611,56.554,159.833,61.608,160.958"/>
<path fill="#093F5C" d="M193.187,162.075c-0.855,0.487-1.657,0.892-2.666,0.963c-0.427,0.033-0.842-0.013-1.253-0.112
	c-1.505-0.371-0.476-0.292-0.604-0.079c-0.671,1.129,0.013,1.88-1.82,1.992c-0.314,0.021-0.438-0.242-0.52-0.171
	c-0.015,0.013,0.053,0.854,0.037,0.979c-0.071,0.621-0.318,1.255-0.474,1.855c-1.241,4.697,6.498,6.828,7.738,2.117
	c0.923-3.506,1.503-7.562-1.617-10.338c-3.019-2.681-8.045-2.514-10.397,0.875c-2.542,3.66,0.251,8.117,4.138,9.58
	c3.813,1.438,7.937,0.862,11.398-1.102C201.565,166.123,197.639,159.544,193.187,162.075"/>
</svg>
