<?xml version="1.0" encoding="utf-8"?>
<!-- Generator: Adobe Illustrator 16.0.0, SVG Export Plug-In . SVG Version: 6.00 Build 0)  -->
<!DOCTYPE svg PUBLIC "-//W3C//DTD SVG 1.1//EN" "http://www.w3.org/Graphics/SVG/1.1/DTD/svg11.dtd">
<svg version="1.1" id="Capa_1" xmlns="http://www.w3.org/2000/svg" xmlns:xlink="http://www.w3.org/1999/xlink" x="0px" y="0px"
	 width="327.742px" height="332.904px" viewBox="0 0 327.742 332.904" enable-background="new 0 0 327.742 332.904"
	 xml:space="preserve">
<g>
	<path fill="#2F150E" d="M242.441,141.019c0.77-16.715,2.352-33.427,1.469-50.13c-0.885-16.704-4.365-33.598-13.09-48.234
		c-8.738-14.648-23.215-26.868-40.732-30.953c-17.527-4.085-37.9,1.119-48.601,14.599c-10.71,13.47-8.96,34.762,5.297,45.037
		c0.078,0.06,0.154,0.108,0.234,0.166v31.229c-25.234,1.013-44.675,7.568-57.775,13.946c-12.338,6.014-19.93,17.978-19.792,30.884
		l0.363,33.428c0.01,1.003,0.488,1.892,1.226,2.527c-1.092,1.045-1.776,2.454-1.776,4.019v22.869c0,3.195,2.798,5.787,6.253,5.787
		h11.273c-2.569,29.457,16.503,63.461,26.429,77.359c2.739,3.848,7.39,6.154,12.361,6.146l57.717,0.887
		c4.869-0.027,9.425-2.273,12.14-6.012l10.245-17.166c5.684-8.553,9.889-18.469,12.998-27.84c2.916,0.822,6.221,0.859,9.336,0.74
		c4.412-0.156,9.295-0.502,12.385-3.426c3.195-3.037,3.338-7.746,3.26-11.977C243.025,198.447,240.781,177.451,242.441,141.019
		 M174.628,69.929c1.098-3.091,1.012-6.438,1.811-9.609c0.794-3.174,2.885-6.447,6.323-7.195c3.464-0.755,6.897,1.323,9.419,3.636
		c8.342,7.644,10.313,17.78,12.06,28.063c1.547,9.126,2.106,18.372,2.131,27.608c-10.634-3.761-23.729-6.875-39.165-7.948
		c0-11.796,0.01-14.135-0.042-28.61C170.695,75.99,173.53,73.025,174.628,69.929"/>
	<path fill="#50261D" d="M148.964,71.285c-13.89-9.973-15.594-30.648-5.162-43.727c10.425-13.09,30.267-18.145,47.342-14.174
		c17.062,3.965,31.166,15.831,39.676,30.053c8.504,14.208,11.889,30.612,12.756,46.832c0.857,16.218-0.688,32.447-1.434,48.673
		c-1.621,35.374,0.566,55.762,1.188,91.157c0.078,4.111-0.064,8.687-3.176,11.637c-3.006,2.836-7.762,3.172-12.064,3.324
		c-4.59,0.176-9.689,0.189-13.102-2.646c-3.721-3.07-4-8.264-4.025-12.857c-0.273-43.322-5.561-67.604-4.246-110.9
		c0.364-11.969,0.055-24.023-1.957-35.872c-1.707-10.056-3.633-19.974-11.794-27.452c-2.471-2.263-5.831-4.295-9.22-3.556
		c-3.359,0.729-5.404,3.934-6.184,7.036c-0.783,3.105-0.698,6.378-1.771,9.405c-1.072,3.026-3.853,5.927-7.303,5.814"/>
	<path fill="#2F150E" d="M168.49,74.033c0.055,15.914,0.04,16.802,0.04,32.713h-19.337V71.448c-0.077-0.058-0.153-0.103-0.23-0.161"
		/>
	<path fill="#EAAFA5" d="M226.636,211.179c0,0-4.061,35.842-20.299,60.189l-9.981,16.674c-2.642,3.627-7.084,5.809-11.827,5.832
		l-56.218-0.861c-4.844,0.01-9.372-2.229-12.042-5.967c-9.813-13.693-28.85-47.516-25.663-76.405c0,0,0.229-14.294,0.488-30.23
		c0.031-1.975-13.08,1.823-13.048-0.18l13.144-38.881c0-8.574,7.537-15.515,16.822-15.515h99.768c9.293,0,16.82,6.941,16.82,15.515
		l14.502,40.842l-14.502-0.18v19.016C225.814,207.105,226.636,211.179,226.636,211.179"/>
	<path fill="#FAC5BB" d="M158.476,192.366c-0.761-0.036-1.546,0.35-1.838,1.151l-4.323,10.436c-1.49,3.59-3.53,6.946-5.646,10.261
		c-3.216,5.031,3.881,8.999,3.881,8.999l-17.032,18.672c-0.261,0.289-0.041,0.723,0.366,0.723l22.959,14.561
		c0.488,0.313,1.065,0.445,1.633,0.41"/>
	<path fill="#C1756C" d="M158.476,257.578c0.438-0.029,0.871-0.162,1.251-0.406l23.15-14.561c0.404,0,0.625-0.438,0.365-0.727
		l-17.033-18.672c0,0,7.096-3.968,3.882-8.994c-2.116-3.314-4.157-6.676-5.649-10.271l-4.322-10.427l-0.024-0.064
		c-0.29-0.699-0.948-1.059-1.621-1.091"/>
	<path fill="#50261D" d="M143.074,199.809c-3.377,0.023-6.753,0.051-10.13,0.073c-0.946,0.01-1.909,0.01-2.811-0.248
		c-1.266-0.368-2.087-1.183-2.087-2.412c0.002-3.024,3.04-4.069,5.835-4.35c3.708-0.373,7.757-0.171,11.314,0.925
		c2.141,0.663,4.247,3.793,1.729,5.313c-1.088,0.663-2.468,0.69-3.766,0.699H143.074z"/>
	<path fill="#50261D" d="M119.117,186.073c-0.677,0.833-0.241,2.049,0.754,2.647c0.997,0.598,2.376,0.653,3.566,0.368
		c1.193-0.286,2.236-0.87,3.219-1.482c0.985-0.608,1.948-1.257,3.06-1.704c1.98-0.782,4.308-0.856,6.477-0.524
		c2.168,0.327,4.216,1.041,6.229,1.763c1.049,0.382,2.139,0.773,3.292,0.778c1.153,0.005,2.394-0.493,2.727-1.376
		c0.337-0.898-0.35-1.837-1.138-2.532c-2.299-2.035-5.63-3.153-8.985-3.715c-3.294-0.548-6.756-0.612-9.998,0.115
		C125.083,181.138,120.975,183.827,119.117,186.073"/>
	<path fill="#50261D" d="M174.468,199.809c3.379,0.023,6.754,0.051,10.131,0.073c0.947,0.01,1.91,0.01,2.813-0.248
		c1.264-0.368,2.082-1.183,2.082-2.412c0-3.024-3.036-4.069-5.831-4.35c-3.708-0.373-7.757-0.171-11.315,0.925
		c-2.141,0.663-4.247,3.793-1.727,5.313c1.083,0.663,2.465,0.69,3.763,0.699H174.468z"/>
	<path fill="#50261D" d="M198.427,186.073c0.676,0.833,0.239,2.049-0.754,2.647c-0.998,0.598-2.378,0.653-3.57,0.368
		c-1.19-0.286-2.233-0.87-3.217-1.482c-0.982-0.608-1.945-1.257-3.059-1.704c-1.981-0.782-4.307-0.856-6.478-0.524
		c-2.169,0.327-4.218,1.041-6.233,1.763c-1.045,0.382-2.136,0.773-3.289,0.778c-1.152,0.005-2.395-0.493-2.727-1.376
		c-0.337-0.898,0.352-1.837,1.138-2.532c2.298-2.035,5.632-3.153,8.985-3.715c3.293-0.548,6.757-0.612,9.996,0.115
		C192.458,181.138,196.568,183.827,198.427,186.073"/>
	<path fill="#5A2116" d="M153.595,219.167c0,1.017-0.895,1.841-1.992,1.841c-1.104,0-1.996-0.824-1.996-1.841
		c0-1.013,0.892-1.837,1.996-1.837C152.7,217.33,153.595,218.154,153.595,219.167"/>
	<path fill="#5A2116" d="M166.718,219.167c0,1.017-0.894,1.841-1.994,1.841c-1.105,0-1.996-0.824-1.996-1.841
		c0-1.013,0.891-1.837,1.996-1.837C165.825,217.33,166.718,218.154,166.718,219.167"/>
	<path fill="#50261D" d="M183.59,243.476h-50.707c-1.111,0-1.446-1.389-0.439-1.826l13.863-5.999
		c8.155-3.53,17.621-3.397,25.655,0.358l12.098,5.654C185.036,242.119,184.683,243.476,183.59,243.476"/>
	<path fill="#50261D" d="M109.407,145.825c0,0,0.388,78.239,6.927,93.896c0.414,0.99-0.346,2.059-1.497,2.059H96.803
		c-1.054,0-1.83-0.908-1.575-1.852c1.942-7.107,8.657-33.347,8.023-54.19c-0.125-4.083-3.232-7.591-7.536-8.53
		c-4.671-1.022-10.768-1.137-15.525,3.029c-0.672,0.589-1.572,0.902-2.499,0.902c-2.031,0-3.682-1.51-3.703-3.383l-0.352-32.457
		c-0.136-12.53,7.258-24.149,19.278-29.984c14.131-6.859,35.773-13.999,64.345-13.72v40.933L109.407,145.825z"/>
	<path fill="#50261D" d="M203.66,145.825c0,0-0.393,78.239-6.93,93.896c-0.412,0.99,0.348,2.059,1.5,2.059h18.033
		c1.053,0,1.83-0.908,1.574-1.852c-1.943-7.107-8.656-33.347-8.022-54.19c0.125-4.083,3.231-7.591,7.536-8.53
		c4.67-1.022,10.77-1.137,15.523,3.029c0.674,0.589,1.574,0.902,2.502,0.902c2.031,0,3.682-1.51,3.703-3.383l0.352-32.457
		c0.135-12.53-7.26-24.149-19.281-29.984c-14.131-6.859-35.771-13.999-64.342-13.72v40.933L203.66,145.825z"/>
	<path fill="#C1756C" d="M94.916,211.935H79.544c-3.365,0-6.09-2.519-6.09-5.621v-22.202c0-3.107,2.725-5.616,6.09-5.616h15.372
		c3.362,0,6.091,2.509,6.091,5.616v22.202C101.006,209.417,98.277,211.935,94.916,211.935"/>
	<path fill="#C1756C" d="M235.476,209.974h-15.371c-3.365,0-6.088-2.52-6.088-5.621v-22.207c0-3.098,2.723-5.616,6.088-5.616h15.371
		c3.363,0,6.092,2.518,6.092,5.616v22.207C241.568,207.455,238.839,209.974,235.476,209.974"/>
	<line fill="#50261D" x1="153.795" y1="177.847" x2="153.795" y2="171.692"/>
	
		<line fill="none" stroke="#582B1E" stroke-width="1.268" stroke-linecap="round" stroke-miterlimit="10" x1="153.795" y1="177.847" x2="153.795" y2="171.692"/>
	<line fill="#50261D" x1="159.452" y1="177.847" x2="159.452" y2="171.692"/>
	
		<line fill="none" stroke="#582B1E" stroke-width="1.268" stroke-linecap="round" stroke-miterlimit="10" x1="159.452" y1="177.847" x2="159.452" y2="171.692"/>
	<line fill="#50261D" x1="165.106" y1="177.847" x2="165.106" y2="171.692"/>
	
		<line fill="none" stroke="#582B1E" stroke-width="1.268" stroke-linecap="round" stroke-miterlimit="10" x1="165.106" y1="177.847" x2="165.106" y2="171.692"/>
	<path fill="none" stroke="#F9BBAC" stroke-width="1.268" stroke-linecap="round" stroke-miterlimit="10" d="M92.353,206.361H82.104
		c-2.241,0-4.06-1.682-4.06-3.748v-14.8c0-2.072,1.819-3.748,4.06-3.748h10.249c2.241,0,4.06,1.676,4.06,3.748v14.8
		C96.413,204.679,94.593,206.361,92.353,206.361z"/>
	<path fill="none" stroke="#F9BBAC" stroke-width="1.268" stroke-linecap="round" stroke-miterlimit="10" d="M89.223,199.551h-3.991
		c-0.873,0-1.581-0.649-1.581-1.454v-5.768c0-0.807,0.708-1.46,1.581-1.46h3.991c0.875,0,1.582,0.653,1.582,1.46v5.768
		C90.805,198.902,90.097,199.551,89.223,199.551z"/>
	<path fill="none" stroke="#F9BBAC" stroke-width="1.268" stroke-linecap="round" stroke-miterlimit="10" d="M233.458,205.195
		h-10.246c-2.24,0-4.061-1.68-4.061-3.746v-14.8c0-2.072,1.82-3.748,4.061-3.748h10.246c2.242,0,4.063,1.676,4.063,3.748v14.8
		C237.521,203.515,235.701,205.195,233.458,205.195z"/>
	<path fill="none" stroke="#F9BBAC" stroke-width="1.268" stroke-linecap="round" stroke-miterlimit="10" d="M230.33,198.386h-3.988
		c-0.877,0-1.582-0.653-1.582-1.454v-5.768c0-0.806,0.705-1.46,1.582-1.46h3.988c0.875,0,1.58,0.654,1.58,1.46v5.768
		C231.91,197.733,231.205,198.386,230.33,198.386z"/>
	<line fill="#50261D" x1="158.09" y1="265.48" x2="158.09" y2="272.257"/>
	
		<line fill="none" stroke="#582B1E" stroke-width="1.268" stroke-linecap="round" stroke-miterlimit="10" x1="158.09" y1="265.48" x2="158.09" y2="272.257"/>
</g>
</svg>
