<?xml version="1.0" encoding="utf-8"?>
<!-- Generator: Adobe Illustrator 16.0.0, SVG Export Plug-In . SVG Version: 6.00 Build 0)  -->
<!DOCTYPE svg PUBLIC "-//W3C//DTD SVG 1.1//EN" "http://www.w3.org/Graphics/SVG/1.1/DTD/svg11.dtd">
<svg version="1.1" id="Capa_1" xmlns="http://www.w3.org/2000/svg" xmlns:xlink="http://www.w3.org/1999/xlink" x="0px" y="0px"
	 width="358.564px" height="306.078px" viewBox="0 0 358.564 306.078" enable-background="new 0 0 358.564 306.078"
	 xml:space="preserve">
<path fill="#072822" d="M316.151,140.484c-8.906-10.664-19.385-19.042-32.654-23.534c-15.703-5.313-31.934-7.399-48.369-7.703
	c-14.672-0.268-28.582-2.536-41.255-10.768c-8.902-5.779-16.553-12.276-20.904-22.417c-4.85-11.295-10.357-22.303-15.524-33.459
	c-5.969-12.886-15.426-17.792-29.426-15.243c-8.113,1.475-16.271,2.743-24.357,4.357c-9.521,1.898-19.208,3.318-28.213,7.154
	c-8.377,3.57-15.398,9.058-17.281,18.548c-1.567,7.904-1.931,16.057-2.771,24.102c-1.171,11.182-0.588,22.413-0.86,33.618
	c-0.507,21.309-0.771,42.607,0.939,63.902c1.216,15.148,3.021,30.158,5.854,45.109c1.886,9.947,7.379,15.971,16.171,19.615
	c2.84,1.176,5.721,2.391,8.701,3.072c18.624,4.248,37.535,3.039,56.372,2.629c11.95-0.266,23.904-1.723,35.815,0.229
	c11.974,1.969,23.282,0.266,34.059-5.373c2.281-1.193,4.713-2.381,7.205-2.83c17.082-3.092,34.176-4.549,51.246,0.287
	c0.781,0.221,1.482,0.244,2.121,0.16l16.107,9.768c-0.377,0.602-0.74,1.205-1.164,1.791c-0.488,0.684-1.287,1.414-0.619,2.322
	c0.83,1.133,1.801,0.24,2.656-0.086c0.688-0.256,1.334-0.654,1.943-1.07c9.352-6.434,17.695-13.934,24.109-23.438
	c8.561-12.689,11.912-27.262,14.018-42.078C332.651,170.969,327.956,154.624,316.151,140.484"/>
<path fill="#EBE0CE" d="M121.684,95.689l-7.585,1.105l0.002-0.117c2.505-0.525,5.011-0.966,7.53-1.335
	C121.671,95.559,121.684,95.689,121.684,95.689"/>
<path fill="#B6B5DA" d="M286.217,246.499c8.816-6.025,16.666-13.063,22.713-21.969c8.057-11.891,11.223-25.541,13.201-39.432
	c2.43-17.033-1.998-32.352-13.115-45.614c-8.387-9.995-18.266-17.848-30.77-22.056c-14.797-4.975-30.082-6.932-45.572-7.222
	c-13.814-0.255-26.916-2.379-38.855-10.095c-8.391-5.414-15.6-11.499-19.701-21.012c-4.563-10.583-9.757-20.899-14.63-31.349
	c-5.616-12.09-14.521-16.684-27.717-14.288c-7.647,1.38-15.334,2.563-22.952,4.069c-8.969,1.782-18.096,3.113-26.571,6.717
	c-7.898,3.342-14.509,8.487-16.278,17.379c-1.486,7.397-1.829,15.047-2.616,22.581c-1.097,10.476-0.556,21.004-0.801,31.509
	c-0.485,19.966-0.732,39.935,0.879,59.89c1.147,14.191,2.851,28.258,5.522,42.273c1.784,9.326,6.959,14.975,15.241,18.381
	c2.678,1.105,5.386,2.256,8.188,2.883c17.549,3.988,35.364,2.852,53.11,2.471c11.264-0.246,22.519-1.617,33.739,0.215
	c11.277,1.846,21.931,0.256,32.091-5.039c2.154-1.115,4.445-2.223,6.785-2.652c16.094-2.889,32.205-4.246,48.281,0.281
	L286.217,246.499z"/>
<path fill="#1F1D47" d="M74.002,107.493c-0.362,0.681,0.426,1.406,1.049,0.962c2.022-1.442,5.325-5.12,9.252-14.513
	c6.576-15.727,21.566-12.952,21.566-12.952s8.526,2.018,8.248,14.046l7.585-1.12c0,0-3.117-20.543,15.18-19.168
	c5.906,0.444,10.847,5.154,14.409,9.586c1.775,2.219,3.823,4.252,6.219,5.782c0.743,0.474,2.123,1.291,3.568,1.927
	c1.29,0.564,2.304-1.225,1.154-2.045c-1.083-0.768-2.131-1.587-3.151-2.444c-4.89-4.137-9.156-9.287-12.395-14.85
	c-0.988-1.703-1.607-3.839-2.906-5.296c-3.887-4.353-10.142-4.148-15.409-3.812c0,0-11.305,0.731-11.622,7.633
	c-0.25,5.53,0.624,10.869,0.702,12.823c0.017,0.411-0.311,0.748-0.717,0.744c-0.377-0.007-0.679-0.306-0.696-0.687
	c-0.14-3.062-1.782-15.378-8.005-17.126c-5.567-1.566-11.566,1.477-16.605,3.512C83.9,73.539,80.432,83.162,79.303,90.64
	C78.052,98.937,75.476,104.712,74.002,107.493"/>
<path fill="#1F1D47" d="M122.917,192.598c-41.604-1.264-44.678-16.848-44.678-16.848c-2.11,9.832,4.073,26.633,4.073,26.633
	c7.941,20.666,36.607,17.734,36.607,17.734C105.479,204.549,122.917,192.598,122.917,192.598 M101.519,215.307
	c0,0-13.287-0.994-10.885-13.504c1.75-9.125,13.393-7.758,13.393-7.758S94.792,199.913,101.519,215.307"/>
<path fill="#1F1D47" d="M172.603,220.1c0,0-20.219-12.988-46.237-3.33c0,0,4.367-14.422,56.138-14.801
	c51.772-0.377,63.823,0.465,63.823,0.465s23.705-0.998,26.527,16.867c0,0-11.281-8.852-67.656-8.764c0,0-17.093-1.135-18.551,9.096
	L172.603,220.1z"/>
<path fill="#1F1D47" d="M175.827,173.297l-70.396-1.004c-11.809-0.168-21.249-10.031-21.083-22.028
	c0.166-11.995,9.874-21.585,21.681-21.416l70.396,1.002c11.812,0.168,21.249,10.031,21.084,22.025
	C197.344,163.876,187.637,173.465,175.827,173.297"/>
<polygon fill="#EBE0CE" points="90.246,152.02 132.832,165.663 133.274,133.582 "/>
<polygon fill="#EBE0CE" points="153.993,134.212 187.325,150.73 149.586,167.575 "/>
<path fill="#1F1D47" d="M162.977,150.886c-0.155,11.169-9.193,20.093-20.182,19.937c-10.992-0.156-19.776-9.334-19.625-20.503
	c0.155-11.166,9.19-20.091,20.184-19.934C154.344,130.541,163.13,139.721,162.977,150.886"/>
<path fill="#3B3274" d="M312.288,138.157c-8.623-10.38-18.771-18.534-31.623-22.906c-15.207-5.171-30.928-7.2-46.844-7.494
	c-14.207-0.262-27.68-2.468-39.951-10.481c-8.622-5.625-16.029-11.951-20.244-21.822c-4.698-10.996-10.027-21.71-15.032-32.571
	c-5.78-12.544-14.937-17.319-28.496-14.836c-7.86,1.437-15.756,2.671-23.591,4.241c-9.218,1.849-18.598,3.231-27.323,6.967
	c-8.113,3.475-14.913,8.819-16.735,18.058c-1.518,7.694-1.872,15.632-2.687,23.466c-1.135,10.883-0.573,21.817-0.834,32.724
	c-0.492,20.746-0.751,41.477,0.903,62.208c1.177,14.75,2.925,29.361,5.669,43.912c1.824,9.686,7.143,15.549,15.658,19.094
	c2.75,1.146,5.54,2.332,8.426,2.994c18.034,4.131,36.352,2.953,54.595,2.551c11.571-0.254,23.148-1.674,34.683,0.223
	c11.597,1.914,22.549,0.258,32.987-5.232c2.209-1.162,4.563-2.32,6.979-2.754c16.543-3.012,33.1-4.434,49.631,0.277
	c3.586,1.02,5.844-1.582,4.809-5.244c-0.432-1.523-1.234-2.84-2.262-4.074c-6.494-7.813-17.629-7.52-26.887-8.568
	c-10.725-1.211-21.51-1.855-32.297-1.934c-27.798-0.195-54.626,6.025-82.198,7.342c-7.52,0.361-7.521,0.305-6.453-7.387
	c1.401-10.1,7.332-16.553,16.912-17.184c16.436-1.084,32.897-2.068,49.358-2.324c20.906-0.322,41.806,0.664,62.685,2.193
	c5.494,0.078,11.004-0.121,16.473,0.285c14.773,1.104,23.156,10.676,22.922,25.68c-0.127,8.174-1.709,15.869-6.539,22.619
	c-0.473,0.664-1.246,1.377-0.602,2.26c0.807,1.104,1.744,0.234,2.576-0.082c0.662-0.252,1.291-0.637,1.883-1.045
	c9.053-6.262,17.135-13.564,23.35-22.818c8.291-12.354,11.537-26.535,13.576-40.963
	C328.268,167.834,323.719,151.922,312.288,138.157 M72.979,112.496c1.073-5.559,2.206-11.199,3.236-16.862
	c0.475-2.618,0.935-5.262,1.083-7.916c0.692-12.349,7.438-19.926,18.571-23.476c11.601-3.698,23.408-6.64,35.749-6.265
	c8.02,0.241,14.464,2.796,18.526,10.582c4.688,8.999,10.112,17.576,18.226,23.963c0.123,0.095,0.051,0.448,0.063,0.602
	C134.743,89.877,102.177,92.227,72.979,112.496 M205.717,168.786c-2.129,5.369-5.523,10.16-10.432,13.625
	c-11.03,7.787-25.511,6.523-38.242,6.502c-7.647-0.008-15.28,0.609-22.81,1.994c-11.807,2.162-16.876,8.6-15.908,20.088
	c0.226,2.643,0.705,5.291,1.305,7.873c1.356,5.848,1.414,5.859-4.575,5.922c-5.607,0.059-11.279,0.449-16.727-1.211
	c-13.346-4.074-19.908-14.691-20.985-28.307c-0.909-11.514-1.188-23.092-0.562-34.627c0.585-10.832,0.73-21.794,7.366-30.741
	c2.857-3.85,6.919-5.859,11.151-7.571c10.178-4.121,20.915-5.691,31.715-6.714c10.574-1.001,21.2-1.174,34.998-1.165
	c5.207-0.158,13.491,0.816,21.794,1.862c16.53,2.08,23.69,18.562,24.653,33.705C208.858,156.311,208.053,162.898,205.717,168.786
	 M256.807,165.215c-7.621,9.825-17.555,14.979-29.707,16.02c-1.896,0.16-3.787,0.41-5.682,0.574
	c-0.309,0.027-0.639-0.176-0.979-0.285c11.686-20.647,15.145-41.559,2.545-63.122c17.52-0.235,34.547,5.096,38.514,23.815
	C263.25,150.501,262.196,158.27,256.807,165.215 M290.559,184.963c-6.725-0.129-12.482-6.232-12.326-13.068
	c0.152-6.658,5.936-12.25,12.707-12.28c6.869-0.03,12.473,5.779,12.381,12.838C303.231,179.417,297.434,185.092,290.559,184.963"/>
</svg>
