<?xml version="1.0" encoding="utf-8"?>
<!-- Generator: Adobe Illustrator 16.0.0, SVG Export Plug-In . SVG Version: 6.00 Build 0)  -->
<!DOCTYPE svg PUBLIC "-//W3C//DTD SVG 1.1//EN" "http://www.w3.org/Graphics/SVG/1.1/DTD/svg11.dtd">
<svg version="1.1" id="Capa_1" xmlns="http://www.w3.org/2000/svg" xmlns:xlink="http://www.w3.org/1999/xlink" x="0px" y="0px"
	 width="640px" height="480px" viewBox="0 0 640 480" enable-background="new 0 0 640 480" xml:space="preserve">
<path fill="#391910" d="M320.196,362.184l0.005-0.365c-0.174,0.063-0.359,0.121-0.541,0.18
	C319.832,362.063,320.015,362.121,320.196,362.184"/>
<path fill="#391910" d="M319.115,362.17c0.181-0.055,0.367-0.113,0.543-0.172c-0.183-0.063-0.364-0.121-0.538-0.195L319.115,362.17z
	"/>
<path fill="#391910" d="M435.782,300.77c0.028-1.881-0.188-3.702-0.566-5.471c-0.291-3.174-1.15-6.348-2.895-9.22
	c-2.871-4.8-7.629-8.253-12.687-10.175c-0.779-0.291-1.582-0.486-2.38-0.715c-2.393-9.512-6.911-15.716-6.911-15.716
	c6.118-4.407,7.179-10.603,7.179-10.603c1.739-10.782-6.913-15.842-6.913-15.842c7.898-12.771,7.253-33.449,7.036-37.617
	c-0.025-0.5-0.312-0.947-0.767-1.186c-1.889-0.988-4.607-1.453-6.329-1.655c-0.389-0.053-0.515-0.497-0.222-0.743
	c3.387-2.805,6.971-14.737,7.714-17.435c2.825-10.193,5.701-24.565,5.218-38.053c0.2-0.203,0.435-0.375,0.625-0.587l0.013-0.016
	c0.083-0.089,0.077-0.222-0.008-0.31c-0.087-0.089-0.229-0.082-0.326-0.01c3.587-3.813,5.876-8.761,5.956-14.272
	c0.013-0.992-0.145-1.94-0.265-2.897c0.123-3.821-0.916-7.909-3.33-11.26c-2.819-3.982-7.111-6.668-11.549-8.06
	c-4.49-1.358-9.217-1.553-13.758-0.721c-1.431,0.265-2.838,0.683-4.225,1.17c-0.227-0.037-0.411-0.117-0.643-0.153
	c-14.334-2.135-29.478,2.583-41.933,8.86l0.309-0.19c-1.539-2.361-3.443-4.438-5.537-6.258c-5.678-4.948-12.643-7.761-19.859-8.699
	c-0.008-0.002-0.014-0.002-0.021-0.005c-1.685-0.218-3.367-0.367-5.07-0.37c-1.698-0.043-3.384,0.062-5.073,0.234
	c-0.008,0.002-0.017,0.002-0.024,0.002c-7.245,0.747-14.285,3.373-20.107,8.169c-2.145,1.765-4.11,3.791-5.72,6.108l0.31,0.203
	c-12.269-6.606-27.27-11.729-41.664-9.973c-0.634,0.074-1.159,0.26-1.765,0.365c-0.842-0.264-1.685-0.522-2.542-0.708
	c-4.518-0.955-9.239-0.875-13.774,0.351c-4.484,1.265-8.849,3.842-11.785,7.748c-1.631,2.128-2.668,4.589-3.233,7.097
	c-0.639,1.962-1.101,4-1.132,6.16c-0.083,5.588,2.109,10.662,5.672,14.59c-0.016,0.208-0.021,0.415-0.035,0.62
	c-0.018,0.007-0.039-0.015-0.058-0.002c-0.103,0.08-0.121,0.227-0.036,0.33l0.013,0.015c0.021,0.023,0.045,0.043,0.068,0.066
	c-0.833,13.395,1.597,27.714,4.1,37.914c0.664,2.715,3.894,14.74,7.197,17.634c0.282,0.253,0.146,0.692-0.242,0.735
	c-1.729,0.155-4.464,0.548-6.379,1.486c-0.46,0.227-0.762,0.666-0.8,1.165c-0.339,4.161-1.594,24.813,5.925,37.791
	c0,0-8.798,4.825-7.383,15.652c0,0,0.875,6.217,6.863,10.787c0,0-3.947,5.152-6.667,13.289c-2.003,0.285-3.992,0.688-5.933,1.343
	c-5.114,1.78-9.973,5.112-12.987,9.831c-3.057,4.717-3.881,10.353-3.188,15.407c0.306,2.007,1.03,3.897,1.923,5.698
	c0.896,4.67,3.183,8.855,6.368,12.277c-0.016,0.068-0.071,0.137-0.018,0.195l0.013,0.016c1.509,1.729,3.312,3.262,5.309,4.557
	c2.017,1.26,4.234,2.26,6.555,2.998c0.498,0.156,1.02,0.254,1.528,0.391c0.58,1.65,1.262,3.277,2.057,4.859
	c3.463,6.891,9.442,14.186,19.674,16.945c0,0,18.636,7.639,57.052,8.004c4.563,3.766,9.749,6.852,15.4,8.893
	c0.174,0.068,0.355,0.133,0.538,0.195c0.182-0.059,0.366-0.117,0.543-0.18c5.71-1.891,10.985-4.84,15.655-8.482
	c38.407,0.658,57.264-6.48,57.264-6.48c10.307-2.486,16.5-9.617,20.166-16.414c0.705-1.309,1.292-2.662,1.848-4.023
	c1.983-0.65,3.9-1.445,5.665-2.482c1.344-0.82,2.561-1.781,3.71-2.803C431.199,316.557,435.658,309.197,435.782,300.77
	 M290.02,335.031c0.018-0.088-0.022-0.18-0.009-0.273c0.027,0.064,0.067,0.127,0.095,0.191
	C290.078,334.982,290.046,335.008,290.02,335.031 M288.439,330.426c-0.814-0.834-1.813-1.508-2.999-1.693
	c-2.959-0.465-6.089,1.732-6.484,4.557c-0.083-1.924-0.173-3.869-0.716-5.729c-0.541-1.855-1.586-3.645-3.246-4.752
	c-2.232-1.494-5.264-1.539-7.867-0.742c-2.601,0.785-4.875,2.314-7.096,3.814c3.529-1.662,6.016-5.162,6.31-8.895
	c0.213-2.656-0.732-5.326-2.434-7.441c1.167,0.996,2.403,1.914,3.789,2.604c2.381,1.191,5.172,1.771,7.806,1.244
	c2.582-0.512,4.907-2.105,6.229-4.273c0.848-1.387,1.227-2.998,1.212-4.604c0.498,2.101,1.456,4.097,2.99,5.675
	c0.053,0.053,0.121,0.092,0.173,0.141c-0.269,5.299,0.063,9.002,0.063,9.002h0.022C286.436,323.105,287.282,326.809,288.439,330.426
	 M354.395,320.24c0,0,0.455-3.82,0.318-9.27c1.514-1.514,2.506-3.428,3.052-5.46c-0.063,1.603,0.265,3.224,1.073,4.634
	c1.258,2.203,3.532,3.859,6.1,4.439c2.619,0.596,5.422,0.088,7.84-1.035c1.408-0.654,2.668-1.537,3.867-2.506
	c-1.766,2.066-2.791,4.719-2.658,7.381c0.188,3.73,2.57,7.301,6.049,9.059c-2.182-1.563-4.406-3.15-6.982-4.01
	c-2.578-0.859-5.609-0.895-7.886,0.537c-1.69,1.07-2.786,2.822-3.386,4.664c-0.595,1.84-0.744,3.779-0.885,5.703
	c-0.309-2.826-3.373-5.113-6.346-4.727c-0.998,0.131-1.857,0.625-2.621,1.23c1.188-3.463,2.1-7.014,2.444-10.641H354.395z
	 M310.801,118.961c0,0,0.058-0.127,0.103-0.225l0.354,0.229c0,0,3.18-7.951,12.105-7.698c8.93-0.016,11.873,8.018,11.873,8.018
	l0.361-0.222c0.043,0.1,0.098,0.23,0.098,0.23l1.078-0.667c-2.416,1.815-4.514,3.543-6.121,5.043
	c-3.881,3.62-7.521,3.217-7.521,3.217s-3.649,0.305-7.421-3.417c-1.568-1.543-3.615-3.331-5.98-5.213L310.801,118.961z"/>
<path fill="#C7462B" d="M288.004,313.754c0,0-0.548-5.895,0.29-13.518c0,0,15.639-6.646,24.126-0.023
	c8.489,6.627,10.267,9.277,10.267,9.277l0.036,3.951L288.004,313.754z"/>
<path fill="#C7462B" d="M356.227,314.662c0,0,0.721-5.879,0.107-13.518c0,0-15.432-7.061-24.113-0.668
	c-8.68,6.396-10.537,9-10.537,9l-0.15,3.951L356.227,314.662z"/>
<path fill="#F37748" d="M419.354,243.299c1.739-10.785-6.914-15.842-6.914-15.842c7.899-12.774,7.253-33.451,7.04-37.619
	c-0.028-0.5-0.314-0.948-0.77-1.186c-1.886-0.987-4.605-1.453-6.329-1.655c-0.389-0.053-0.51-0.498-0.222-0.742
	c3.386-2.806,6.973-14.737,7.714-17.436c6.551-23.661,13.502-69.848-22.292-75.169c-26.012-3.873-54.737,14.79-65.098,24.443
	c-3.878,3.619-7.519,3.218-7.519,3.218s-3.648,0.305-7.424-3.418c-10.068-9.926-38.234-29.346-64.349-26.166
	c-35.933,4.366-30.354,50.721-24.507,74.546c0.667,2.715,3.897,14.74,7.198,17.636c0.282,0.252,0.148,0.692-0.239,0.735
	c-1.731,0.155-4.464,0.547-6.379,1.484c-0.463,0.229-0.76,0.666-0.803,1.166c-0.337,4.161-1.594,24.813,5.928,37.789
	c0,0-8.796,4.827-7.383,15.654c0,0,0.875,6.219,6.861,10.786c0,0-8.95,11.435-9.187,27.47l-0.342,23.245
	c-0.103,6.945,1.34,13.869,4.488,20.15c3.466,6.891,9.445,14.182,19.676,16.941c0,0,19.33,7.965,59.313,8.033l14.683,0.541
	l0.005-0.342l12.919,0.166c39.97,0.996,59.528-6.451,59.528-6.451c10.307-2.48,16.502-9.615,20.166-16.412
	c3.334-6.188,4.981-13.074,5.084-20.019l0.345-23.245c0.236-16.035-8.372-27.703-8.372-27.703
	C418.297,249.492,419.354,243.299,419.354,243.299 M384.379,319.967c-3.242,4.908-8.754,8.203-14.609,9.834
	c-5.855,1.637-12.072,1.734-18.159,1.33c-9.694-0.65-20.075-2.848-29.223-5.949l-0.005,0.498c-9.16,2.764-20.721,4.273-30.252,4.658
	c-6.096,0.244-12.309-0.02-18.115-1.811c-5.805-1.787-11.217-5.227-14.312-10.221c-3.107-4.996-3.552-11.623-0.304-16.527
	c2.222-3.354,5.902-5.65,9.791-7.09c8.535-3.175,18.242-2.623,26.928,0.146c8.695,2.769,16.478,7.623,23.704,12.965l3.332,1.881
	l0.006-0.771l1.436-1.045c7.381-5.152,15.311-9.792,24.074-12.332c8.766-2.534,18.486-2.827,26.922,0.572
	c3.847,1.548,7.457,3.936,9.579,7.345C388.273,308.445,387.631,315.059,384.379,319.967"/>
<path fill="#C05F28" d="M355.959,102.319l-18.43,11.399c0,0-3.055-8.174-12.148-8.038c-9.077-0.379-12.292,7.713-12.292,7.713
	l-18.091-11.888c1.964-2.825,4.523-5.221,7.336-7.239c14.441-10.348,34.757-9.823,48.087,1.793
	C352.516,97.883,354.42,99.959,355.959,102.319"/>
<path fill="#E65638" d="M321.009,161.292c-5.169-10.859-13.93-20.145-24.725-26.226c-10.797-6.076-23.585-8.916-36.105-8.016
	c1.654-4.791,2.969-9.737,3.117-14.778c0.149-5.035-0.933-10.204-3.768-14.466c11.294,2.267,22.41,5.731,32.372,11.264
	c9.961,5.535,18.747,13.232,24.368,22.801C321.889,141.438,323.695,150.638,321.009,161.292"/>
<path fill="#C7462B" d="M260.727,164.311c3.143-0.321,6.353,1.132,8.478,3.462c1.054,1.183,1.845,2.601,2.282,4.146
	c0.418,1.563,0.422,3.19,0.113,4.765c-0.664,3.154-2.582,6.009-5.304,8.007c-2.758,2.028-6.247,2.985-9.674,3.001
	c-3.434-0.004-6.855-0.958-9.804-2.626c-2.955-1.645-5.426-3.935-7.392-6.501c-3.984-5.195-5.751-11.409-6.603-17.345
	c-0.845-5.898-1.035-12.464,1.918-18.739c1.452-3.106,3.771-5.926,6.495-8.071c2.726-2.173,5.853-3.764,9.108-4.851
	c3.248-1.101,6.708-1.634,10.109-1.713c3.379-0.085,6.718,0.26,9.93,0.869c6.447,1.246,12.337,3.447,18.028,5.888
	c5.688,2.536,11.26,5.584,16.295,9.477c5.027,3.872,9.524,8.622,12.665,14.188c3.153,5.528,5.028,11.934,4.719,18.424
	c-0.238,6.429-2.672,12.845-7.195,17.811c-4.505,4.971-11.142,8.188-18.132,8.254c-7.037,0.094-13.92-3.579-17.146-9.484
	c-3.259-6.036-1.486-13.647,3.738-17.703c2.595-1.992,6.106-3.073,9.419-2.25c3.311,0.812,5.709,4.118,4.868,7.136
	c-0.028,0.125-0.154,0.199-0.284,0.17c-0.124-0.023-0.202-0.146-0.182-0.263c0.571-2.741-1.794-5.523-4.64-6.026
	c-2.881-0.58-5.961,0.496-8.138,2.348c-4.432,3.769-5.581,10.55-2.592,15.432c2.909,4.931,8.932,7.957,14.853,7.694
	c5.958-0.208,11.656-3.15,15.387-7.53c3.761-4.394,5.749-10.054,5.888-15.706c0.179-5.671-1.546-11.312-4.47-16.25
	c-2.917-4.963-6.976-9.284-11.659-12.824c-4.679-3.571-9.936-6.416-15.394-8.804c-5.462-2.383-11.092-4.514-16.962-5.673
	c-5.841-1.162-12.014-1.262-17.678,0.568c-5.628,1.747-10.762,5.406-13.258,10.562c-2.519,5.151-2.629,11.064-2.011,16.694
	c0.623,5.643,2.101,11.342,5.491,16.045c3.286,4.684,8.7,8.246,14.721,8.415c2.952,0.117,5.983-0.586,8.404-2.204
	c2.416-1.61,4.239-4.042,4.947-6.765c0.334-1.357,0.405-2.791,0.105-4.156c-0.311-1.362-0.955-2.655-1.842-3.776
	c-1.778-2.217-4.619-3.755-7.583-3.646c-0.131,0.005-0.242-0.089-0.247-0.215c-0.005-0.12,0.089-0.222,0.211-0.234H260.727z"/>
<path fill="#E65638" d="M319.352,300.848c-8.164-6.734-20.692-12.531-31.402-13.973c-10.709-1.445-22.083,0.709-30.875,6.691
	c-2.142-8.605-7.575-16.434-15.058-21.693c10.115-3.057,20.667-5.138,31.278-4.877c10.609,0.262,21.323,2.977,29.969,8.822
	C311.913,281.662,318.293,290.821,319.352,300.848"/>
<path fill="#F8A776" d="M302.357,301.262c-0.102,3.033-2.803,5.689-5.938,6.281c-3.14,0.586-6.483-0.699-8.651-2.931
	c-2.172-2.231-3.245-5.289-3.394-8.321c0.816,2.383,0.513,5.088-0.81,7.257c-1.322,2.163-3.646,3.761-6.228,4.272
	c-2.635,0.523-5.422-0.059-7.807-1.244c-2.381-1.188-4.397-2.95-6.186-4.859c3.227,2.148,5.129,5.967,4.832,9.693
	c-0.296,3.73-2.785,7.238-6.313,8.898c2.223-1.504,4.498-3.029,7.097-3.82c2.603-0.791,5.636-0.746,7.867,0.748
	c1.66,1.109,2.704,2.896,3.246,4.752c0.543,1.855,0.633,3.799,0.717,5.729c0.394-2.828,3.523-5.025,6.485-4.557
	c2.958,0.463,5.168,3.512,4.576,6.299c1.325-1.322,2.69-2.67,4.413-3.48c1.724-0.811,3.913-0.977,5.504,0.049
	s2.145,3.441,0.782,4.736c-1.333,1.266-2.753,0.592-4.311,0.455c-0.885-0.078-1.959,0.186-2.855,0.244
	c-1.021,0.068-2.044,0.121-3.067,0.16c-6.517,0.264-13.154-0.023-19.358-1.934s-11.986-5.588-15.297-10.92
	c-3.312-5.332-3.791-12.414-0.322-17.658c2.374-3.585,6.308-6.031,10.462-7.574c9.116-3.39,19.496-2.804,28.778,0.156
	c9.279,2.959,19.694,9.767,27.418,15.48l-0.046,3.131c-0.026,1.635,0.275,3.314-0.448,4.848c-0.328,0.705-0.89,1.344-1.645,1.627
	c-0.94,0.348-2.024,0.084-2.896-0.4c-2.061-1.129-3.235-3.355-3.592-5.586c-0.357-2.232-0.01-4.508,0.341-6.74
	c-0.193,2.793-2.516,5.328-5.407,5.891c-2.887,0.57-6.081-0.885-7.419-3.375c-1.177-2.184-0.953-4.786-0.553-7.209"/>
<path fill="#F8A776" d="M341.952,301.789c0.015,3.038,2.634,5.764,5.753,6.432c3.118,0.674,6.499-0.521,8.732-2.695
	c2.238-2.168,3.4-5.201,3.638-8.229c-0.885,2.363-0.663,5.074,0.597,7.276c1.256,2.198,3.535,3.853,6.098,4.438
	c2.619,0.596,5.424,0.088,7.842-1.035c2.414-1.127,4.482-2.832,6.327-4.692c-3.285,2.061-5.303,5.825-5.117,9.562
	c0.185,3.73,2.567,7.301,6.049,9.059c-2.179-1.557-4.407-3.148-6.985-4.004c-2.576-0.865-5.609-0.898-7.883,0.533
	c-1.688,1.068-2.789,2.822-3.387,4.668c-0.597,1.842-0.743,3.779-0.885,5.703c-0.312-2.832-3.375-5.113-6.348-4.727
	c-2.969,0.391-5.27,3.375-4.762,6.178c-1.284-1.357-2.606-2.744-4.307-3.6c-1.699-0.854-3.881-1.078-5.502-0.098
	c-1.62,0.986-2.246,3.389-0.924,4.719c1.295,1.293,2.736,0.664,4.297,0.566c0.886-0.055,1.953,0.238,2.846,0.316
	c1.02,0.098,2.041,0.182,3.064,0.244c6.504,0.439,13.147,0.332,19.404-1.416c6.258-1.744,12.149-5.264,15.615-10.51
	c3.466-5.24,4.155-12.307,0.842-17.639c-2.268-3.648-6.127-6.203-10.235-7.854c-9.011-3.633-19.404-3.325-28.77-0.609
	c-9.362,2.71-19.976,9.239-27.863,14.742l-0.047,3.131c-0.023,1.641-0.375,3.311,0.304,4.859c0.31,0.713,0.85,1.367,1.598,1.67
	c0.931,0.371,2.02,0.137,2.906-0.316c2.092-1.08,3.332-3.273,3.757-5.494c0.422-2.223,0.142-4.504-0.146-6.745
	c0.113,2.798,2.362,5.392,5.233,6.032c2.865,0.645,6.103-0.723,7.518-3.18c1.238-2.148,1.094-4.757,0.764-7.189"/>
<path fill="#E65638" d="M356.221,314.584c-0.895,9.67-4.916,19.051-11.402,26.563c-5.941,6.891-13.93,12.164-22.784,15.094
	c-0.177,0.064-0.358,0.123-0.543,0.182c-0.181-0.064-0.362-0.127-0.538-0.195c-8.765-3.164-16.595-8.654-22.33-15.695
	c-6.26-7.678-10.002-17.166-10.613-26.855c10.717-0.082,22.773-0.146,33.575-0.225c0.185-0.004,0.367,0,0.541,0
	s0.354,0.006,0.539,0.016C333.461,313.828,345.513,314.213,356.221,314.584"/>
<path fill="#DB5626" d="M322.666,313.447v0.02c-0.18-0.01-0.365-0.01-0.539-0.016C322.311,313.447,322.493,313.451,322.666,313.447"
	/>
<path fill="#DB5626" d="M321.492,356.422c0.182-0.059,0.367-0.113,0.541-0.182l-0.006,0.371
	C321.848,356.549,321.666,356.484,321.492,356.422"/>
<path fill="#E65638" d="M252.357,317.094c-3.293,3.336-7.837,6.139-12.108,8.254c3.344,4.293,8.03,7.525,13.105,9.826
	c5.074,2.301,10.543,3.721,16.037,4.85c7.946,1.645,16.381,2.689,24.094,0.238c-8.047-1.699-16.092-3.736-23.409-7.334
	C262.759,329.328,256.155,324.033,252.357,317.094"/>
<path fill="#FFF5EF" d="M291.722,251.367c-15.684-2.613-30.881-9.25-41.9-20.157c-11.021-10.908-17.476-26.299-15.598-41.304
	c0.053-0.427,0.135-0.897,0.477-1.183c0.448-0.372,1.131-0.27,1.712-0.15c14.08,2.978,28.607,6.141,40.245,14.229
	c12.329,8.567,20.226,22.052,23.735,36.17"/>
<path fill="#DB5626" d="M264.96,206.378c-8.422-0.112-15.344,6.277-15.463,14.265c-0.118,7.996,6.614,14.564,15.034,14.676
	c8.421,0.112,15.342-6.278,15.46-14.269C280.109,213.063,273.38,206.491,264.96,206.378 M264.658,226.793
	c-3.459-0.044-6.226-2.745-6.179-6.03c0.048-3.283,2.894-5.905,6.355-5.86c3.459,0.048,6.225,2.746,6.178,6.029
	C270.961,224.214,268.117,226.839,264.658,226.793"/>
<path fill="#E8603F" d="M294.549,101.502l18.086,11.884c0,0,3.296-8.09,12.382-7.711c9.082-0.136,12.054,8.036,12.054,8.036
	l18.437-11.397c-1.881-2.877-4.365-5.343-7.121-7.434c-14.127-10.729-34.452-10.744-48.118,0.513
	C298.122,97.158,296.156,99.184,294.549,101.502"/>
<path fill="#E65638" d="M327.744,161.382c5.486-10.717,14.517-19.769,25.492-25.557c10.971-5.788,23.838-8.286,36.324-7.053
	c-1.514-4.831-2.679-9.811-2.676-14.854c-0.003-5.039,1.229-10.175,4.193-14.36c-11.359,1.966-22.574,5.131-32.69,10.399
	c-10.127,5.269-19.135,12.727-25.04,22.141C327.446,141.511,325.375,150.66,327.744,161.382"/>
<path fill="#C7462B" d="M387.877,166.451c-2.974,0.007-5.637,1.632-7.225,3.801c-1.661,2.162-2.152,4.86-1.414,7.318
	c0.71,2.45,2.439,4.614,4.615,5.974c2.156,1.353,4.832,1.901,7.431,1.728c5.3-0.215,10.009-3.305,12.987-7.57
	c3.036-4.244,4.416-9.501,4.992-14.897c0.576-5.399,0.37-10.789-1.665-15.081c-1.991-4.232-6.178-7.346-11.084-8.943
	c-4.886-1.643-10.294-1.748-15.749-0.79c-5.434,0.94-10.918,2.857-16.27,5.038c-10.646,4.216-20.373,10.419-26.054,19.346
	c-2.866,4.383-4.618,9.355-4.695,14.361c-0.079,5.014,1.376,10.104,4.392,14.128c2.975,3.992,7.827,6.868,12.957,7.346
	c5.025,0.552,10.461-1.801,13.276-5.895c2.948-3.902,2.542-10.116-1.199-13.859c-1.821-1.837-4.569-3.04-7.245-2.728
	c-2.604,0.188-5.202,2.565-4.924,5.351v0.022c0.01,0.126-0.083,0.236-0.211,0.246c-0.124,0.01-0.237-0.073-0.26-0.186
	c-0.539-3.071,2.106-5.968,5.189-6.454c3.109-0.544,6.293,0.672,8.528,2.664c4.526,4.052,5.529,11.108,2.28,16.154
	c-3.168,5.061-9.481,8.039-15.625,7.626c-6.165-0.363-11.949-3.536-15.686-8.141c-3.756-4.619-5.634-10.476-5.629-16.27
	c-0.031-5.826,1.889-11.562,5.007-16.528c3.108-4.993,7.36-9.296,12.211-12.781c4.843-3.514,10.24-6.266,15.808-8.546
	c5.58-2.24,11.331-4.218,17.344-5.227c5.977-1.007,12.326-0.927,18.098,1.131c5.729,1.968,10.942,5.916,13.363,11.361
	c2.434,5.431,2.32,11.459,1.511,17.125c-0.816,5.681-2.501,11.444-6.14,16.167c-1.801,2.34-4.052,4.406-6.71,5.878
	c-2.64,1.491-5.701,2.316-8.778,2.338c-3.062,0.031-6.195-0.788-8.676-2.56c-2.47-1.756-4.281-4.343-4.93-7.219
	c-1.585-5.841,3.801-12.29,10.215-11.879c0.129,0.008,0.227,0.116,0.216,0.24c-0.005,0.117-0.108,0.21-0.231,0.21H387.877z"/>
<path fill="#E65638" d="M325.274,300.926c8.362-6.516,21.054-11.975,31.804-13.133c10.746-1.157,22.052,1.299,30.666,7.512
	c2.393-8.542,8.058-16.221,15.689-21.283c-10.02-3.325-20.501-5.684-31.121-5.703c-10.613-0.025-21.402,2.402-30.217,8.018
	C333.279,281.947,326.628,290.929,325.274,300.926"/>
<path fill="#DB5626" d="M322.128,313.451c-0.175,0-0.356-0.004-0.538,0.006v-0.025C321.764,313.441,321.945,313.447,322.128,313.451
	"/>
<path fill="#DB5626" d="M320.955,356.227c0.174,0.072,0.356,0.137,0.536,0.195c-0.176,0.059-0.359,0.117-0.541,0.176
	L320.955,356.227z"/>
<path fill="#E65638" d="M391.763,318.951c3.19,3.418,7.649,6.344,11.861,8.57c-3.469,4.199-8.254,7.311-13.395,9.473
	c-5.141,2.164-10.647,3.439-16.173,4.426c-7.992,1.43-16.454,2.25-24.093-0.41c8.095-1.48,16.198-3.301,23.619-6.705
	C381.003,330.9,387.76,325.787,391.763,318.951"/>
<path fill="#FFF5EF" d="M354.354,252.199c15.756-2.192,31.142-8.422,42.482-19.031c11.337-10.611,18.247-25.823,16.812-40.873
	c-0.044-0.431-0.113-0.901-0.442-1.195c-0.438-0.386-1.122-0.303-1.709-0.195c-14.16,2.6-28.777,5.378-40.646,13.151
	c-12.581,8.237-20.871,21.503-24.795,35.521"/>
<path fill="#DB5626" d="M366.976,222.208c-0.118,7.992,6.612,14.56,15.033,14.672s15.342-6.273,15.463-14.265
	c0.118-7.993-6.614-14.559-15.033-14.671C374.016,207.83,367.094,214.217,366.976,222.208 M375.957,222.328
	c0.047-3.283,2.893-5.909,6.354-5.864c3.46,0.045,6.226,2.746,6.18,6.031c-0.052,3.282-2.897,5.909-6.355,5.863
	C378.678,228.312,375.908,225.611,375.957,222.328"/>
<path fill="#F8A776" d="M334.609,274.666l4-2.891c-2.084-3.184-4.783-8.99-4.916-12.736c-0.088-2.659,0.359-5.379,1.662-7.74
	c1.297-2.359,3.504-4.324,6.192-5.084c2.688-0.757,5.838-0.171,7.796,1.734c1.479,1.438,2.174,3.439,2.606,5.408
	c0.811,3.654,0.874,7.459,0.195,11.139l4.366-1.551c0.842-3.501,1.135-7.148,0.445-10.675c-0.718-3.709-2.578-7.281-5.568-9.765
	c-2.984-2.486-7.146-3.782-11.045-3.05c-3.615,0.681-6.729,3.022-8.745,5.948c-2.012,2.926-3.015,6.391-3.447,9.859
	c-0.381,3.063-0.34,6.193,0.391,9.196C329.273,267.459,332.412,272.398,334.609,274.666"/>
<path fill="#F8A776" d="M316.949,255.406c-0.329-3.482-1.227-6.975-3.155-9.948c-1.926-2.979-4.972-5.404-8.563-6.178
	c-3.874-0.84-8.075,0.347-11.137,2.749c-3.059,2.406-5.022,5.927-5.852,9.616c-0.598,2.651-0.637,5.389-0.302,8.095
	c1.499,0.622,2.966,1.333,4.5,1.936c-0.206-2.949,0.049-5.938,0.774-8.814c0.493-1.953,1.245-3.936,2.768-5.333
	c2.013-1.855,5.177-2.358,7.841-1.528c2.667,0.83,4.816,2.857,6.044,5.25c1.227,2.393,1.599,5.123,1.428,7.779
	c-0.208,3.216-2.355,7.895-4.336,11.135c1.375,1.055,2.667,2.217,4.057,3.276c2.11-2.464,4.573-6.334,5.27-8.858
	C317.107,261.601,317.241,258.475,316.949,255.406"/>
<path fill="#C7462B" d="M404.504,262.958c-6.854-1.282-13.313-1.276-19.827-0.703c-3.247,0.358-6.504,0.667-9.764,1.235
	c-3.278,0.471-6.538,0.97-9.728,1.65c-3.219,0.553-6.379,1.302-9.481,2.156c-3.142,0.765-6.144,1.855-9.183,2.93
	c-6.006,2.32-11.737,5.289-17.352,9.235l-0.047,0.034c-0.103,0.073-0.252,0.051-0.326-0.049c-0.066-0.083-0.059-0.19,0.006-0.269
	c4.345-5.066,9.928-9.089,16.016-12.106c6.098-3.018,12.705-5.01,19.414-6.348c6.738-1.222,13.564-2.013,20.438-2.025
	c6.841-0.002,13.813,1.016,20.039,3.852c0.119,0.053,0.168,0.188,0.108,0.295c-0.044,0.096-0.151,0.145-0.255,0.125L404.504,262.958
	z"/>
<path fill="#C7462B" d="M241.08,260.372c5.664-4.132,13.128-5.89,20.241-6.192c7.22-0.363,14.178,0.514,21.135,1.927
	c3.446,0.845,6.898,1.788,10.236,3.079c3.304,1.353,6.592,2.832,9.582,4.791c6.013,3.77,11.282,8.878,14.19,15.036l0.023,0.046
	c0.053,0.115,0,0.247-0.118,0.293c-0.1,0.042-0.216,0.016-0.279-0.065c-4.207-5.073-9.658-9.132-15.617-12.206
	c-5.973-3.079-12.473-5.15-19.093-6.581c-6.619-1.452-13.384-2.5-20.174-2.764c-6.771-0.259-13.681,0.488-19.933,3.048
	c-0.119,0.053-0.256,0-0.308-0.113c-0.045-0.098-0.012-0.205,0.071-0.266L241.08,260.372z"/>
<path fill="#DB522D" d="M324.955,122.064c0.217,7.706,0.313,15.41,0.453,23.114l-0.345,23.104l-0.682,46.207l-0.682,46.207
	l-0.343,23.102l-1.135,23.092l-0.448-23.111l0.343-23.105l0.683-46.206l0.682-46.207l0.337-23.103
	C324.189,137.459,324.514,129.761,324.955,122.064"/>
<path fill="#F27048" d="M265.296,113.359c-0.179,12.142-10.695,21.849-23.493,21.678c-12.793-0.17-23.018-10.154-22.839-22.296
	c0.18-12.142,10.697-21.845,23.49-21.676C255.25,91.236,265.476,101.218,265.296,113.359"/>
<path fill="#F27048" d="M431.352,115.57c-0.178,12.142-10.695,21.848-23.493,21.678c-12.792-0.17-23.017-10.154-22.839-22.296
	c0.18-12.142,10.695-21.845,23.49-21.676C421.305,93.447,431.531,103.429,431.352,115.57"/>
<path fill="#F27048" d="M435.954,295.172c-0.206,14.143-12.458,25.449-27.359,25.254c-14.902-0.201-26.812-11.828-26.604-25.971
	c0.212-14.141,12.459-25.443,27.36-25.248C424.256,269.406,436.165,281.032,435.954,295.172"/>
<path fill="#F27048" d="M260.526,292.838c-0.208,14.143-12.459,25.449-27.36,25.248c-14.902-0.199-26.813-11.823-26.604-25.966
	c0.211-14.143,12.459-25.446,27.361-25.248C248.826,267.07,260.734,278.695,260.526,292.838"/>
<path fill="#C7462B" d="M229.769,293.834c-1.077,0.445-2.526,0.762-3.759-0.043c-1.189-0.787-1.71-2.135-1.818-3.36
	c-0.241-2.495,0.792-5.035,2.776-6.876c2.051-1.834,5.073-2.479,7.71-2.252c2.574,0.137,5.493,0.982,7.637,3.087
	c2.132,2.095,3.03,5.063,2.964,7.711c-0.056,2.69-0.838,5.245-2.129,7.56c-0.31,0.582-0.664,1.148-1.077,1.686
	c-0.375,0.557-0.812,1.074-1.289,1.572c-0.915,1.03-2.004,1.831-3.085,2.681c-2.297,1.563-4.985,2.608-7.793,3.12
	c-2.817,0.416-5.678,0.27-8.424-0.326c-2.715-0.689-5.252-1.861-7.566-3.375c-2.263-1.587-4.247-3.551-5.841-5.841
	c-1.499-2.349-2.557-4.995-2.979-7.784c-0.693-5.055,0.128-10.689,3.188-15.402c3.014-4.721,7.869-8.053,12.983-9.836
	c5.173-1.74,10.651-2.134,15.948-1.372c5.277,0.781,10.491,2.729,14.741,6.073c8.53,6.634,12.195,17.992,9.305,27.701
	c-1.304,4.859-4.047,9.322-7.825,12.73c-3.749,3.443-8.48,5.738-13.425,6.838c-5.02,0.914-10.128,0.488-14.767-0.986
	c-2.32-0.742-4.537-1.738-6.552-3.004c-2-1.293-3.8-2.826-5.309-4.557l-0.013-0.014c-0.087-0.098-0.072-0.25,0.031-0.328
	c0.098-0.078,0.243-0.068,0.332,0.016c6.566,6.221,16.695,8.668,25.625,6.49c4.427-1.207,8.581-3.404,11.763-6.574
	c3.215-3.13,5.457-7.135,6.413-11.407c0.985-4.263,0.762-8.771-0.711-12.902c-1.456-4.122-4.176-7.868-7.761-10.577
	c-7.232-5.404-17.502-6.686-26.102-3.736c-4.292,1.473-8.193,4.141-10.591,7.84c-2.444,3.68-3.153,8.197-2.663,12.51
	c0.956,8.756,10.586,15.393,19.683,14.216c2.25-0.347,4.421-1.094,6.334-2.29c1.85-1.266,3.52-2.789,4.634-4.693
	c1.144-1.875,1.876-3.99,2-6.148c0.136-2.145-0.509-4.352-1.993-5.953c-1.469-1.626-3.711-2.477-5.966-2.73
	c-2.242-0.307-4.625,0.074-6.379,1.446c-1.688,1.387-2.753,3.526-2.688,5.655c-0.002,1.05,0.364,2.158,1.191,2.788
	c0.834,0.659,2.023,0.542,3.069,0.216c0.128-0.045,0.266,0.02,0.311,0.141C229.946,293.654,229.882,293.781,229.769,293.834"/>
<path fill="#C7462B" d="M240.846,115.836c-0.898,0.398-2.158,0.675-3.219-0.04c-1.005-0.695-1.465-1.856-1.553-2.903
	c-0.164-2.12,0.664-4.335,2.456-5.877c1.795-1.574,4.442-2.063,6.682-1.836c2.215,0.148,4.765,0.973,6.562,2.901
	c1.82,1.923,2.398,4.526,2.292,6.804c-0.105,2.325-0.82,4.52-1.989,6.511c-0.591,0.995-1.313,1.936-2.159,2.8
	c-0.914,0.746-1.728,1.618-2.813,2.192c-2.021,1.346-4.476,2.104-6.916,2.393c-4.945,0.575-9.9-0.945-13.663-3.87
	c-1.921-1.427-3.565-3.25-4.75-5.371c-0.656-1.028-1.046-2.195-1.476-3.338c-0.261-1.167-0.616-2.443-0.596-3.514
	c-0.519-4.357,0.656-9.332,3.625-13.202c2.932-3.905,7.301-6.483,11.785-7.749c4.531-1.225,9.252-1.305,13.771-0.349
	c4.495,0.967,8.892,3.002,12.25,6.243c3.343,3.166,5.627,7.209,6.634,11.522c1.011,4.312,0.566,8.823-0.996,12.862
	c-1.576,4.022-4.221,7.721-7.838,10.26c-1.81,1.254-3.75,2.318-5.807,3.048c-2.013,0.758-4.268,1.276-6.418,1.365
	c-4.318,0.198-8.422-0.635-12.253-1.971c-3.801-1.372-7.416-3.44-9.94-6.423l-0.014-0.015c-0.083-0.103-0.066-0.25,0.04-0.331
	c0.098-0.075,0.241-0.065,0.327,0.018c2.75,2.58,6.36,4.208,10.048,5.269c3.72,0.995,7.646,1.465,11.479,1.007
	c3.826-0.42,7.446-2.069,10.402-4.375c2.974-2.327,5.111-5.538,6.294-8.993c1.174-3.463,1.393-7.236,0.486-10.777
	c-0.916-3.531-2.889-6.813-5.664-9.309c-5.531-5.065-14.096-6.623-21.404-4.573c-3.659,1.008-7.066,3.021-9.302,5.948
	c-2.267,2.903-3.22,6.637-2.875,10.251c0.15,7.362,7.906,13.332,15.518,12.697c1.875-0.167,3.766-0.661,5.357-1.655
	c1.612-0.945,3.064-2.186,4.043-3.741c1.01-1.53,1.676-3.278,1.847-5.068c0.179-1.775-0.184-3.658-1.375-5.039
	c-1.149-1.4-2.974-2.185-4.85-2.443c-1.86-0.304-3.853-0.049-5.334,1.061c-1.472,1.083-2.326,2.89-2.331,4.648
	c-0.026,0.88,0.289,1.787,0.938,2.328c0.667,0.554,1.649,0.473,2.516,0.198c0.129-0.04,0.267,0.024,0.312,0.146
	C241.017,115.662,240.957,115.787,240.846,115.836"/>
<path fill="#C7462B" d="M428.071,313.939c-1.563,1.695-3.404,3.18-5.439,4.42c-2.056,1.207-4.297,2.148-6.641,2.828
	c-4.68,1.352-9.803,1.645-14.796,0.596c-4.909-1.236-9.572-3.648-13.223-7.193c-3.676-3.508-6.291-8.039-7.448-12.941
	c-2.608-9.787,1.407-21.041,10.127-27.451c4.355-3.218,9.62-5.035,14.92-5.672c5.313-0.617,10.788-0.088,15.897,1.805
	c5.056,1.922,9.813,5.374,12.685,10.175c2.915,4.788,3.584,10.448,2.728,15.478c-0.502,2.779-1.642,5.393-3.209,7.702
	c-1.659,2.241-3.697,4.151-6.008,5.679c-2.356,1.441-4.924,2.561-7.661,3.166c-2.759,0.518-5.619,0.59-8.424,0.102
	c-2.784-0.59-5.439-1.705-7.69-3.326c-1.055-0.873-2.123-1.703-3.008-2.758c-0.458-0.509-0.88-1.041-1.237-1.607
	c-0.399-0.542-0.733-1.118-1.026-1.709c-1.22-2.344-1.93-4.918-1.904-7.604c0.011-2.652,0.993-5.598,3.19-7.629
	c2.197-2.046,5.141-2.808,7.719-2.881c2.64-0.156,5.637,0.566,7.631,2.451c1.927,1.891,2.887,4.459,2.575,6.945
	c-0.146,1.215-0.707,2.554-1.916,3.311c-1.254,0.771-2.691,0.42-3.757-0.059c-0.124-0.054-0.175-0.195-0.118-0.313
	c0.057-0.107,0.195-0.156,0.312-0.117c1.036,0.356,2.218,0.503,3.074-0.132c0.844-0.61,1.242-1.704,1.271-2.755
	c0.129-2.129-0.869-4.297-2.516-5.723c-1.714-1.422-4.086-1.861-6.335-1.617c-2.261,0.195-4.528,0.986-6.046,2.574
	c-1.531,1.558-2.238,3.746-2.169,5.895c0.06,2.158,0.729,4.297,1.819,6.197c1.055,1.934,2.684,3.506,4.492,4.82
	c1.878,1.244,4.023,2.051,6.262,2.455c9.063,1.422,18.885-4.961,20.1-13.688c0.615-4.298,0.041-8.835-2.292-12.576
	c-2.288-3.76-6.108-6.536-10.356-8.118c-8.508-3.177-18.813-2.171-26.201,3.042c-3.664,2.611-6.494,6.283-8.072,10.365
	c-1.598,4.088-1.952,8.59-1.093,12.879c0.831,4.292,2.954,8.355,6.071,11.574c3.088,3.252,7.179,5.557,11.565,6.881
	c8.863,2.416,19.063,0.238,25.809-5.807c0.098-0.088,0.252-0.084,0.348,0.01c0.087,0.088,0.087,0.225,0.005,0.313L428.071,313.939z"
	/>
<path fill="#C7462B" d="M425.72,130.178c-2.609,2.921-6.283,4.889-10.125,6.162c-3.869,1.234-7.999,1.96-12.311,1.649
	c-2.146-0.151-4.387-0.725-6.378-1.539c-2.041-0.783-3.945-1.899-5.72-3.201c-3.535-2.637-6.077-6.404-7.534-10.469
	c-1.447-4.08-1.749-8.604-0.611-12.889c1.132-4.285,3.535-8.271,6.973-11.347c3.463-3.14,7.914-5.068,12.437-5.91
	c4.544-0.833,9.271-0.639,13.755,0.72c4.445,1.392,8.734,4.078,11.552,8.06c2.849,3.949,3.886,8.949,3.224,13.29
	c-0.013,1.071-0.403,2.335-0.699,3.495c-0.466,1.128-0.883,2.286-1.572,3.296c-1.245,2.088-2.943,3.863-4.901,5.238
	c-3.847,2.823-8.843,4.204-13.768,3.504c-2.429-0.355-4.86-1.178-6.836-2.579c-1.067-0.599-1.854-1.493-2.748-2.262
	c-0.815-0.885-1.51-1.846-2.065-2.853c-1.111-2.021-1.76-4.233-1.799-6.556c-0.038-2.281,0.61-4.865,2.488-6.731
	c1.853-1.88,4.423-2.636,6.641-2.729c2.241-0.167,4.87,0.396,6.62,2.011c1.744,1.584,2.506,3.825,2.276,5.938
	c-0.113,1.042-0.609,2.19-1.634,2.858c-1.08,0.688-2.333,0.377-3.216-0.045c-0.121-0.055-0.175-0.198-0.113-0.313
	c0.057-0.107,0.19-0.158,0.304-0.115c0.859,0.298,1.837,0.405,2.521-0.133c0.666-0.522,1.006-1.422,1.006-2.303
	c0.049-1.755-0.754-3.585-2.192-4.708c-1.448-1.148-3.435-1.458-5.303-1.203c-1.878,0.208-3.725,0.945-4.919,2.315
	c-1.229,1.348-1.644,3.218-1.521,5c0.116,1.792,0.733,3.558,1.695,5.116c0.935,1.581,2.35,2.858,3.932,3.843
	c1.559,1.04,3.432,1.582,5.305,1.798c7.591,0.84,15.522-4.926,15.888-12.277c0.456-3.607-0.389-7.364-2.567-10.326
	c-2.151-2.986-5.496-5.091-9.126-6.193c-7.245-2.238-15.849-0.914-21.535,4.003c-2.841,2.42-4.911,5.65-5.933,9.153
	c-1.009,3.516-0.9,7.293,0.17,10.787c1.08,3.485,3.123,6.749,6.025,9.156c2.887,2.383,6.453,4.13,10.266,4.65
	c3.818,0.561,7.76,0.195,11.506-0.699c3.721-0.962,7.374-2.493,10.201-5.001c0.098-0.088,0.255-0.083,0.348,0.012
	c0.085,0.088,0.088,0.22,0.005,0.31L425.72,130.178z"/>
<path fill="#F9A75F" d="M328.693,311.855c-0.049,3.236-3.095,5.824-6.81,5.771c-3.713-0.049-6.685-2.715-6.634-5.953"/>
</svg>
