<?xml version="1.0" encoding="utf-8"?>
<!-- Generator: Adobe Illustrator 16.0.0, SVG Export Plug-In . SVG Version: 6.00 Build 0)  -->
<!DOCTYPE svg PUBLIC "-//W3C//DTD SVG 1.1//EN" "http://www.w3.org/Graphics/SVG/1.1/DTD/svg11.dtd">
<svg version="1.1" id="Capa_1" xmlns="http://www.w3.org/2000/svg" xmlns:xlink="http://www.w3.org/1999/xlink" x="0px" y="0px"
	 width="280.11px" height="314.917px" viewBox="0 0 280.11 314.917" enable-background="new 0 0 280.11 314.917"
	 xml:space="preserve">
<path fill="#373737" d="M235.421,153.722c-0.678,68.488-43.881,123.625-96.456,123.134c-52.575-0.49-94.625-56.42-93.945-124.909
	c0.333-33.825,10.986-68.812,34.884-94.549c15.597-16.849,37.432-28.76,61.515-28.536
	C193.993,29.353,236.099,85.232,235.421,153.722"/>
<path fill="#A9AAAB" d="M170.044,217.757c-1.397,1.559-3.027,2.898-4.449,4.43c-1.094,1.182-2.387,3.572-4.448,2.957
	c-0.782-0.23-1.375-0.975-1.407-1.771c-0.055-1.332,1.279-2.463,1.132-3.781c-0.064-0.605-0.471-1.171-1.038-1.42
	c-0.57-0.254-1.289-0.174-1.775,0.209c-0.539,0.428-0.742,1.131-0.916,1.785c-0.335,1.266-0.816,6.48-2.72,6.342
	c-1.18-0.09-2.362-0.178-3.544-0.268c-1.303-0.102-3.431,0.281-4.201-1.002c-0.688-1.131-0.236-3.121-0.267-4.404
	c-0.015-0.569-0.448-1.055-1.033-1.135l-1.046-0.116c-0.678-0.075-1.285,0.419-1.329,1.073c-0.075,1.211,0.325,4.916-0.87,5.504
	c-0.493,0.244-1.076,0.209-1.627,0.17c-1.972-0.152-5.137,0.529-6.781-0.789c-1.412-1.131-0.582-3.892-0.51-5.438l0.068-1.473
	l-2.455-0.135l-0.203,1.693c-0.022,0.199-6.086,0.004-6.657-0.01c-1.189-0.031-1.441,0.059-2.072-0.721
	c-0.487-0.602-1.116-1.479-1.992-0.605c-0.289,0.284-0.397,0.703-0.42,1.104c-0.076,1.75,2.311,4.018,0.927,5.633
	c-0.54,0.619-1.414,0.895-2.251,0.9c-1.432,0.008-2.669-0.441-3.752-1.322c-2.091-1.688-3.681-4.48-4.735-6.867
	c-0.581-1.656-1.533-3.371-0.668-5.112c0.861-1.724,2.832-2.641,4.753-2.534c7.626,0.406,15.344,0.904,22.959,0.196
	c6.754-0.632,13.341-2.476,20.129-2.801C161.229,207.839,177.108,209.91,170.044,217.757"/>
<path fill="#EAE9E9" d="M143.636,30.09c-22.937-0.215-43.696,11.368-58.59,27.714c-22.751,24.966-32.89,58.923-33.214,91.779
	c-0.659,66.459,39.378,120.719,89.421,121.182c50.043,0.469,91.146-53.03,91.807-119.494
	C233.716,84.813,193.681,30.558,143.636,30.09 M61.654,176.669c2.054,0.018,3.704,1.768,3.684,3.909
	c-0.021,2.144-1.708,3.865-3.757,3.848c-2.056-0.022-3.752-1.772-3.686-3.915C58.037,176.069,61.654,176.669,61.654,176.669
	 M144.79,33.773c3.018,0.028,5.445,2.182,5.42,4.81c-0.027,2.628-2.496,4.737-5.515,4.708c-3.021-0.028-5.444-2.182-5.419-4.812
	C139.302,35.853,141.77,33.747,144.79,33.773 M89.009,146.31c3.954-3.587,11.099-8.924,18.548-8.854
	c11.209,0.104,20.235,6.311,20.162,13.864c-0.076,7.549-9.417,10.92-20.625,10.813c-7.447-0.067-14.388-5.631-18.205-9.355
	C87.069,150.999,87.122,148.02,89.009,146.31 M142.409,263.737c-2.506-0.021-4.512-2.199-4.486-4.865
	c0.025-2.668,2.077-4.811,4.581-4.787c2.506,0.025,4.512,2.203,4.487,4.871C146.963,261.624,144.913,263.761,142.409,263.737
	 M179.874,214.421c-2.247,3.26-4.778,6.346-7.592,9.16c-14.33,14.352-38.539,16.143-56.091,6.297
	c-3.636-2.039-6.984-4.547-9.995-7.393c-1.792-1.696-3.47-3.509-5.026-5.414c-0.978-1.198-1.889-2.993-2.919-4.463
	c-0.294-0.423,0.147-0.957,0.62-0.738c8.799,4.012,42.415,16.988,79.215,0.564C179.378,211.86,180.663,213.276,179.874,214.421
	 M196.685,148.008c-3.135,4.451-9.09,11.358-16.732,12.995c-11.503,2.462-21.819,1.131-23.502-6.248
	c-1.675-7.379,6.289-15.358,17.794-17.821c7.643-1.636,16.12,2.082,20.946,4.761C197.491,142.974,198.181,145.884,196.685,148.008
	 M203.917,88.616c0.025-2.61,2.223-4.706,4.904-4.681c2.686,0.025,4.838,2.162,4.811,4.771c-0.025,2.613-2.219,4.706-4.904,4.68
	C206.046,93.36,203.892,91.227,203.917,88.616 M73.722,86.691c0.025-2.528,2.212-4.558,4.879-4.532
	c2.674,0.025,4.817,2.095,4.79,4.621c-0.025,2.529-2.208,4.555-4.879,4.533C75.842,91.288,73.696,89.218,73.722,86.691
	 M215.29,190.206c-1.754-0.018-3.162-1.706-3.143-3.771c0.02-2.066,1.461-3.728,3.217-3.713c1.758,0.016,3.164,1.704,3.145,3.77
	C218.489,188.558,217.046,190.22,215.29,190.206"/>
<path fill="#D4D2CA" d="M104.64,174.696c3.457-1.125,6.981-2.156,10.264-3.719c2.394-1.133,4.255-2.908,6.359-4.354
	c-0.22-0.242-0.466-0.474-0.753-0.665c-2.565,1.015-4.581,2.774-7.47,3.371c-3.75,0.766-8.226,0.735-12.044,0.634
	c-3.493-0.093-7.145-1.213-10.644-2.858c-2.679-0.986-5.162-2.396-7.337-4.266c-1.76-1.213-3.401-2.474-4.858-3.694
	c-0.028-0.024-0.039-0.067-0.064-0.089c-0.941-0.347-1.375-1.108-1.852-1.963c-0.783-1.405-1.467-2.607-2.655-3.754
	c-0.452-0.436-0.92-0.862-1.382-1.292c-0.482,0.073-0.945,0.215-1.358,0.408c0.027,0.218,0.048,0.438,0.066,0.662
	c0.122,1.389,0.11,2.81-0.014,4.201c-0.035,0.412-0.062,0.855-0.143,1.28c6.669,12.477,20.086,17.411,33.604,16.365
	C104.436,174.834,104.525,174.735,104.64,174.696"/>
<path fill="#D4D2CA" d="M211.243,160.057c-0.086-0.63-0.262-2.224-0.271-2.412c-0.053-1.148-0.08-2.322,0.018-3.471
	c-0.268-0.051-0.545-0.08-0.82-0.091c-0.465,1.222-1.178,1.828-2.23,2.885c-2.496,2.494-4.756,5.139-7.156,7.722
	c-3.463,3.723-7.127,5.336-12.201,6.012c-6.148,0.818-11.702,0.712-17.725-0.873c-3.871-1.018-6.616-2.332-9.338-4.199
	c-0.824,1.055-0.916,2.453,0.555,3.7c15.567,13.181,38.633,9.312,48.98-6.98c0.084-0.43,0.156-0.857,0.217-1.28
	C211.226,161.219,211.237,160.542,211.243,160.057"/>
<path fill="#A9AAAB" d="M130.627,220.188l-0.622,5.365c-0.06,0.588-0.58,1.029-1.187,1.02l-3.279-0.027
	c-0.494-0.004-0.914-0.314-1.093-0.76l-2.183-5.66C125.052,220.224,127.838,220.264,130.627,220.188"/>
<path fill="#A9AAAB" d="M129.269,154.296c-2.828,6.435-6.454,12.838-12.292,17.625c-2.949,2.314-6.438,4.047-10.119,5.068
	c-3.695,1.028-7.473,1.428-11.294,1.394c-3.842-0.036-7.767-0.654-11.5-2.075c-3.707-1.438-7.163-3.845-9.541-7.073
	c-2.377-3.204-3.865-6.985-4.195-10.792c-0.133-1.91-0.046-3.785,0.28-5.64c0.388-1.849,1.051-3.621,2.054-5.159
	c0.083-0.128,0.255-0.167,0.388-0.087c0.097,0.059,0.143,0.164,0.131,0.264c-0.86,6.946,1.515,13.518,5.644,18.084
	c4.154,4.52,10.16,7.666,16.96,8.212c6.807,0.597,13.876-0.481,19.54-4.331c5.74-3.778,9.878-9.696,13.451-15.726
	c0.074-0.127,0.241-0.174,0.377-0.103C129.271,154.025,129.319,154.172,129.269,154.296"/>
<path fill="#A9AAAB" d="M153.927,155.383c3.402,6.011,7.587,11.783,13.37,15.327c5.698,3.647,12.664,4.667,19.45,4.352
	c6.785-0.254,12.92-2.936,17.109-7.158c4.123-4.313,6.434-10.886,5.779-17.722c-0.016-0.153,0.096-0.283,0.256-0.299
	c0.107-0.012,0.211,0.043,0.268,0.129c0.961,1.54,1.592,3.293,1.945,5.122c0.293,1.837,0.371,3.669,0.229,5.553
	c-0.314,3.754-1.811,7.521-4.281,10.67c-2.512,3.13-6.096,5.361-9.848,6.55c-3.775,1.176-7.654,1.546-11.413,1.425
	c-3.728-0.113-7.437-0.576-11.053-1.594c-3.603-1.016-7.071-2.619-10.032-4.845c-5.914-4.552-9.632-10.875-12.277-17.282
	c-0.056-0.138,0.011-0.294,0.156-0.348C153.713,155.209,153.862,155.265,153.927,155.383"/>
<path fill="#A9AAAB" d="M154.723,191.711c0.592,1.759,0.316,3.794-0.484,5.61c-0.817,1.826-2.192,3.402-3.798,4.636
	c-3.246,2.472-7.379,3.611-11.414,3.599c-4.034-0.059-8.149-1.273-11.346-3.803c-1.582-1.266-2.924-2.863-3.709-4.707
	c-0.762-1.835-0.994-3.879-0.365-5.625c1.184,3.496,3.716,5.504,6.475,6.84c2.791,1.322,5.894,1.897,8.998,1.96
	c3.107,0,6.223-0.517,9.041-1.786C150.903,197.152,153.474,195.188,154.723,191.711"/>
<path fill="#D4D2CA" d="M138.319,194.32l2.145-45.532l1.241,45.563c0.025,0.908-0.716,1.661-1.647,1.683
	c-0.937,0.027-1.713-0.689-1.738-1.598V194.32z"/>
<path fill="none" stroke="#A9AAAB" stroke-width="1.596" stroke-miterlimit="10" d="M127.997,246.354
	c-0.035-3.385-0.069-6.773-0.101-10.158"/>
<path fill="none" stroke="#A9AAAB" stroke-width="1.596" stroke-miterlimit="10" d="M137.062,248.185
	c-0.043-3.176,0.049-6.352,0.271-9.521"/>
<path fill="none" stroke="#A9AAAB" stroke-width="1.596" stroke-miterlimit="10" d="M146.332,248.45
	c-0.042-3.174,0.05-6.35,0.272-9.52"/>
<path fill="none" stroke="#A9AAAB" stroke-width="1.596" stroke-miterlimit="10" d="M156.856,246.491
	c-0.874-3.059-1.625-6.154-2.239-9.275"/>
<path fill="#A9AAAB" d="M126.425,246.366l1.471-10.17l1.671,10.145c0.137,0.842-0.453,1.629-1.318,1.768
	c-0.867,0.129-1.682-0.441-1.82-1.283C126.404,246.675,126.404,246.515,126.425,246.366"/>
<path fill="#A9AAAB" d="M135.49,248.206l1.845-9.543l1.297,9.504l0.016,0.119c0.117,0.855-0.5,1.631-1.374,1.742
	c-0.877,0.115-1.681-0.482-1.795-1.332C135.451,248.53,135.46,248.362,135.49,248.206"/>
<path fill="#A9AAAB" d="M144.763,248.474l1.842-9.543l1.297,9.502l0.019,0.121c0.114,0.85-0.5,1.629-1.377,1.746
	c-0.876,0.111-1.68-0.486-1.792-1.336C144.724,248.798,144.732,248.63,144.763,248.474"/>
<path fill="#A9AAAB" d="M155.343,246.901l-0.729-9.686l3.756,8.871l0.045,0.111c0.338,0.793-0.051,1.701-0.869,2.025
	c-0.82,0.326-1.754-0.053-2.089-0.846C155.391,247.222,155.354,247.058,155.343,246.901"/>
<path fill="#D4D2CA" d="M94.017,222.972c5.157,7.668,12.085,13.928,20.015,18.387c7.936,4.426,16.887,7.111,25.946,7.365
	c9.053,0.314,18.167-1.801,26.381-5.709c8.211-3.951,15.545-9.758,21.209-17.082c-4.324,8.166-11.437,14.992-19.816,19.615
	c-8.374,4.662-18.128,7.133-27.898,6.854c-9.766-0.344-19.335-3.426-27.377-8.607C104.427,238.649,97.79,231.392,94.017,222.972"/>
<path fill="#D4D2CA" d="M108.549,130.017c-1.005-0.618-2.635-0.786-4.147-0.871c-1.57,0.002-3.165,0.116-4.755,0.365
	c-3.179,0.499-6.344,1.352-9.366,2.544c-3.016,1.188-5.933,2.667-8.581,4.535c-2.632,1.865-5.044,4.143-6.61,6.988
	c1.373-2.939,3.665-5.41,6.217-7.474c2.573-2.065,5.451-3.766,8.469-5.176c3.02-1.413,6.208-2.494,9.513-3.226
	c1.652-0.364,3.351-0.599,5.086-0.706c1.756,0.025,3.555-0.045,5.487,0.921c0.625,0.31,0.868,1.053,0.549,1.658
	c-0.321,0.604-1.086,0.841-1.708,0.531c-0.035-0.018-0.067-0.034-0.097-0.054L108.549,130.017z"/>
<path fill="#D4D2CA" d="M175.562,128.429c3.197-0.857,6.313-0.753,9.346-0.353c3.029,0.429,5.974,1.251,8.753,2.43
	c2.771,1.179,5.382,2.729,7.622,4.686c2.234,1.95,4.076,4.327,5.25,6.981c-2.754-5.185-7.885-8.658-13.34-10.525
	c-2.745-0.946-5.614-1.534-8.492-1.739c-2.855-0.197-5.811-0.03-8.306,0.838l-0.066,0.025c-0.659,0.227-1.389-0.104-1.622-0.744
	c-0.234-0.638,0.107-1.345,0.766-1.573C175.499,128.448,175.532,128.436,175.562,128.429"/>
</svg>
