<?xml version="1.0" encoding="utf-8"?>
<!-- Generator: Adobe Illustrator 16.0.0, SVG Export Plug-In . SVG Version: 6.00 Build 0)  -->
<!DOCTYPE svg PUBLIC "-//W3C//DTD SVG 1.1//EN" "http://www.w3.org/Graphics/SVG/1.1/DTD/svg11.dtd">
<svg version="1.1" id="Capa_1" xmlns="http://www.w3.org/2000/svg" xmlns:xlink="http://www.w3.org/1999/xlink" x="0px" y="0px"
	 width="387.293px" height="334.254px" viewBox="0 0 387.293 334.254" enable-background="new 0 0 387.293 334.254"
	 xml:space="preserve">
<path fill="#0B2228" d="M321.133,201.032c0.012-1.708-1.391-3.1-3.136-3.11l-1.799-0.009l0.128-22.567
	c0.192-33.854-19.73-63.13-48.724-77.149l-4.888-36.55c-0.209-1.574-1.474-2.723-2.965-2.681l-11.516,0.317
	c-1.431,0.041-2.621,1.179-2.82,2.701l-3.799,28.324c-3.596-0.505-7.24-0.847-10.963-0.907l-3.656-28.342
	c-0.197-1.554-1.443-2.72-2.909-2.712l-10.7,0.069c-1.432,0.009-2.647,1.145-2.863,2.667l-4.133,28.14l-10.905-0.058l-3.813-28.181
	c-0.196-1.524-1.399-2.674-2.832-2.697l-10.701-0.184c-1.463-0.024-2.723,1.129-2.935,2.682l-3.97,28.25l-4.632-0.023
	c-2.167-0.012-4.293,0.142-6.421,0.285l-3.407-27.783c-0.183-1.527-1.358-2.675-2.787-2.731l-11.513-0.44
	c-1.489-0.056-2.765,1.08-2.999,2.652l-4.922,33.882c-32.349,12.363-55.389,43.075-55.594,79.212l-0.129,22.568l-0.421-0.002
	c-1.743-0.01-3.16,1.37-3.169,3.078c-0.018,3.285,1.332,6.264,3.527,8.419l-0.172,30.363c-0.042,6.838,5.575,12.405,12.54,12.442
	l11.867,0.131l-0.052,9.03c-0.024,4.223,3.446,7.664,7.746,7.686l2.968,0.021c4.3,0.021,7.807-3.383,7.831-7.604l0.053-8.921
	l20.229,0.224c-0.452-0.67-0.887-1.362-1.299-2.079c6.724,11.569,18.244,17.47,31.343,20.436c3.3,0.746,6.621,1.421,9.964,2.003
	c0.234,0.047,0.512,3.172,0.594,3.463c0.429,1.519,1.23,2.936,2.331,4.078c2.033,2.122,5.61,3.797,8.534,2.59
	c2.9-1.189,4.962-4.209,6.561-6.727c1.601,3.567,5.35,6.777,9.271,6.137c3.92-0.642,8.536-4.185,8.873-8.069
	c13.382-1.619,26.853-6.103,35.759-15.909c1.521-1.675,2.878-3.476,4.084-5.373c-0.01,0.013-0.014,0.025-0.021,0.038l18.806-0.013
	l-0.053,8.941c-0.021,4.222,3.446,7.664,7.746,7.688l2.968,0.013c4.303,0.025,7.808-3.382,7.831-7.604l0.053-9.051l8.159-0.005
	c6.966,0.038,12.645-5.47,12.682-12.308l0.166-29.248C319.126,208.388,321.111,204.951,321.133,201.032 M133.014,196.946
	c0.046-0.64,0.092-1.274,0.14-1.909C133.105,195.671,133.06,196.306,133.014,196.946 M133.97,230.877
	c-0.009-0.051-0.013-0.098-0.024-0.148C133.957,230.78,133.961,230.827,133.97,230.877 M263.531,239
	c0.566-1.953,1.068-3.927,1.449-5.917c1.285-6.753,1.622-13.628,1.725-20.507c-0.103,6.879-0.438,13.754-1.725,20.507
	C264.6,235.074,264.098,237.043,263.531,239 M257.933,251.814c1.035-1.648,1.933-3.383,2.751-5.154
	C259.865,248.431,258.968,250.161,257.933,251.814 M261.416,244.944c0.578-1.388,1.105-2.801,1.568-4.235
	C262.521,242.143,261.996,243.556,261.416,244.944"/>
<path fill="#2B6E59" d="M145.997,247.099l-50.285-0.558c-6.917-0.037-12.492-5.479-12.455-12.159l0.358-62.946
	c0.262-46.156,39.222-83.367,87.021-83.113l62.605,0.33c47.795,0.255,86.332,37.875,86.069,84.032l-0.358,62.946
	c-0.039,6.682-5.673,12.063-12.59,12.025l-45.19,0.021c3.634-5.601,5.892-12.059,7.157-18.583c1.686-8.672,1.727-17.55,1.767-26.374
	c0.039-8.73,0.078-17.468,0.117-26.203c0.026-5.865-0.069-12.136-3.493-16.979c-4.32-6.109-12.584-8.129-20.164-9.178
	c-27.305-3.784-55.072-0.996-82.504,1.796c-7.128,0.728-14.938,1.773-19.735,6.912c-4.268,4.574-4.997,11.185-5.523,17.316
	c-1.817,21.236-5.317,46.404,4.624,66.316c0.402,0.806,0.828,1.586,1.271,2.341C145.106,245.75,145.542,246.437,145.997,247.099"/>
<path fill="#409F80" d="M312.053,209.278l-220.227-1.166c-6.61-0.033-11.939-5.238-11.904-11.622
	c0.011-1.671,1.417-3.016,3.149-3.007l237.9,1.261c1.731,0.009-10.725,3.58-10.733,5.251
	C310.201,206.376,318.661,209.311,312.053,209.278"/>
<path fill="#ADDBCC" d="M185.723,266.994c-3.316-0.569-6.619-1.231-9.892-1.957c-13.021-2.901-24.466-8.676-31.142-19.992
	c-0.448-0.759-0.871-1.535-1.273-2.345c-9.941-19.91-6.44-45.076-4.625-66.314c0.526-6.133,1.258-12.743,5.523-17.315
	c4.798-5.141,12.609-6.188,19.738-6.912c27.432-2.794,55.199-5.583,82.502-1.799c7.578,1.049,15.846,3.07,20.161,9.178
	c3.429,4.843,3.522,11.115,3.498,16.981c-0.041,8.735-0.078,17.466-0.117,26.203c-0.04,8.822-0.083,17.7-1.765,26.372
	c-1.684,8.672-5.115,17.217-11.192,23.801c-8.843,9.578-22.219,13.956-35.503,15.538c-0.336,3.796-4.918,7.259-8.813,7.883
	c-3.894,0.629-7.617-2.509-9.207-5.993c-1.588,2.459-3.631,5.407-6.512,6.571c-2.906,1.177-6.455-0.46-8.476-2.53
	c-1.092-1.122-1.887-2.501-2.313-3.986C186.232,270.09,185.957,267.037,185.723,266.994"/>
<path fill="#275F4C" d="M250.434,225.71c-4.757-8.077-16.154-11.675-26.289-8.857l-3.879,1.082c-11.9,3.3-24.813,3.062-36.534-0.69
	l-0.48-0.143c-13.465-4.323-28.608,3.23-29.657,15.336c-0.033,0.435-0.052,0.868-0.054,1.303l-0.016,2.729
	c-0.055,9.818,9.345,17.841,21.004,17.9l57.044,0.304c11.662,0.063,21.151-7.862,21.206-17.677l0.017-2.729
	C252.812,231.198,251.962,228.292,250.434,225.71 M237.861,244.969c-1.584,1.492-3.757,2.429-6.135,2.416l-60.581-0.32
	c-4.785-0.025-8.633-3.8-8.609-8.406c0.013-2.312,0.992-4.398,2.573-5.896c1.566-1.51,3.741-2.43,6.132-2.416l19.504,2.134
	c6.371,0.688,12.777,0.751,19.144,0.182l21.935-1.995c4.77,0.025,8.633,3.783,8.607,8.406
	C240.42,241.367,239.426,243.455,237.861,244.969"/>
<path fill="#275F4C" d="M193.057,191.102c-0.078,13.891-11.806,25.093-26.193,25.018c-14.387-0.076-25.985-11.401-25.907-25.295
	c0.079-13.893,11.806-25.093,26.193-25.018C181.535,165.883,193.135,177.21,193.057,191.102"/>
<path fill="#231F20" d="M181.814,191.042c-0.044,7.897-6.711,14.263-14.888,14.22c-8.176-0.042-14.771-6.48-14.726-14.378
	c0.043-7.896,6.711-14.265,14.887-14.22C175.267,176.708,181.859,183.145,181.814,191.042"/>
<path fill="#275F4C" d="M267.643,191.496c-0.077,13.894-11.807,25.096-26.193,25.021c-14.386-0.076-25.984-11.401-25.908-25.295
	c0.079-13.893,11.809-25.094,26.193-25.019C256.122,166.279,267.721,177.604,267.643,191.496"/>
<path fill="#231F20" d="M256.399,191.436c-0.044,7.898-6.711,14.266-14.89,14.223c-8.174-0.044-14.77-6.482-14.726-14.378
	c0.046-7.896,6.711-14.265,14.89-14.223C249.852,177.103,256.445,183.542,256.399,191.436"/>
<path fill="#231F20" d="M235.443,247.681l-66.058-0.351c-5.21-0.025-9.415-4.129-9.386-9.161c0.028-5.036,4.278-9.093,9.491-9.063
	l21.277,2.324c6.932,0.759,13.927,0.822,20.876,0.189l23.904-2.164c5.208,0.025,9.415,4.13,9.384,9.161
	C244.904,243.653,240.654,247.71,235.443,247.681"/>
<path fill="#F3F1F0" d="M178.213,234.175c-2.348-0.013-4.132,2.033-3.717,4.265l4.278,23.054c0.183,1.131,1.852,1.189,2.114,0.067
	l6.146-22.817c0.617-2.291-1.164-4.53-3.613-4.543L178.213,234.175z"/>
<path fill="#F3F1F0" d="M222.355,234.408c-2.418-0.013-4.254,2.096-3.826,4.395l4.256,22.924c0.18,1.135,1.85,1.189,2.112,0.071
	l6.112-22.691c0.636-2.354-1.199-4.66-3.719-4.673L222.355,234.408z"/>
<path fill="#409F80" d="M204.631,109.223l0.293-0.029c1.291-0.165,2.324-1.212,2.522-2.577l6.794-45.579
	c0.216-1.485,1.424-2.597,2.846-2.606l10.627-0.066c1.454-0.008,2.691,1.131,2.887,2.652l6.211,47.369
	c0.209,1.598,1.537,2.739,3.047,2.636c1.377-0.084,2.498-1.181,2.696-2.621l6.333-46.479c0.199-1.488,1.379-2.6,2.8-2.639
	l11.435-0.311c1.48-0.039,2.734,1.085,2.946,2.622l7.696,56.572c0.253,1.864-1.121,3.531-2.894,3.522l-65.997-0.583l-0.674-0.004
	l-65.99-0.114c-1.771-0.01-3.125-1.693-2.85-3.552l8.335-56.489c0.231-1.535,1.498-2.646,2.977-2.591l11.433,0.432
	c1.419,0.056,2.588,1.179,2.769,2.669l5.805,46.543c0.182,1.442,1.289,2.551,2.667,2.65c1.509,0.117,2.848-1.008,3.08-2.604
	l6.746-47.299c0.211-1.519,1.465-2.646,2.915-2.623l10.624,0.183c1.427,0.023,2.619,1.146,2.813,2.634l6.28,45.65
	c0.184,1.364,1.203,2.423,2.494,2.602l0.291,0.032"/>
<path fill="#409F80" d="M134.645,194.79c1.057-0.514,1.987-1.368,2.562-2.365c1.212-2.102,1.271-4.615,1.319-7.02
	c0.157-7.507,0.83-15.722,6.191-21.165c4.514-4.584,11.345-6.129,17.794-7.241c26.168-4.514,52.987-5.479,79.431-2.864
	c5.282,0.525,10.661,1.22,15.436,3.464c10.749,5.053,12.129,16.772,12.083,27.126l-0.03,8.326c-0.009,1.788,1.279,3.241,2.878,3.249
	c1.658,0.012,6.447-2.148,6.373-4l-5.272-44.871c-0.526-13.235-10.321-23.621-22.173-23.506l-97.26,0.926
	c-11.269,0.106-20.664,9.695-21.786,22.228c-1.192,13.351-2.448,26.682-3.809,40.018c-0.301,2.936-0.181,6.627,2.581,7.879
	C132.145,195.506,133.472,195.355,134.645,194.79"/>
<path fill="#ADDBCC" d="M118.083,263.021l-2.946-0.017c-4.271-0.025-7.716-3.388-7.694-7.513l0.151-26.31
	c0.021-4.13,3.507-7.453,7.776-7.432l2.946,0.016c4.271,0.023,7.715,3.383,7.691,7.513l-0.148,26.311
	C125.835,259.714,122.354,263.042,118.083,263.021"/>
<path fill="#ADDBCC" d="M290.433,263.932l-2.946-0.013c-4.271-0.025-7.715-3.387-7.693-7.512l0.15-26.315
	c0.022-4.125,3.505-7.448,7.774-7.428l2.948,0.016c4.271,0.023,7.716,3.385,7.691,7.51l-0.148,26.314
	C298.186,260.629,294.702,263.953,290.433,263.932"/>
<path fill="#144433" d="M266.148,135.602l-126.686-0.671c-6.611-0.035-11.939-5.239-11.902-11.62
	c0.009-1.671,1.417-3.015,3.145-3.006l144.366,0.765c1.728,0.011,3.121,1.369,3.112,3.041
	C278.148,130.491,272.759,135.637,266.148,135.602"/>
</svg>
