<?xml version="1.0" encoding="utf-8"?>
<!-- Generator: Adobe Illustrator 16.0.0, SVG Export Plug-In . SVG Version: 6.00 Build 0)  -->
<!DOCTYPE svg PUBLIC "-//W3C//DTD SVG 1.1//EN" "http://www.w3.org/Graphics/SVG/1.1/DTD/svg11.dtd">
<svg version="1.1" id="Capa_1" xmlns="http://www.w3.org/2000/svg" xmlns:xlink="http://www.w3.org/1999/xlink" x="0px" y="0px"
	 width="276.243px" height="379.006px" viewBox="0 0 276.243 379.006" enable-background="new 0 0 276.243 379.006"
	 xml:space="preserve">
<path fill="#635321" d="M221.679,141.097c-0.828-21.992-6.566-47.666-24.741-61.969c-11.214-8.831-25.053-9.157-38.786-9.93
	c-16.193-0.909-32.47-0.312-48.557,1.779c-20.044,2.609-38.102,16.392-44.371,36.269c-2.079,6.6-1.456,15.354-1.667,22.234
	c-0.231,7.553-0.152,15.118,0.233,22.667c0.503,9.815,1.526,19.603,3.057,29.309c0.773,4.9,1.676,9.779,2.709,14.63
	c6.315,29.663,16.744,44.702,29.367,72.181c5.708,12.42,11.972,24.918,20.237,35.85c4.591,6.074,11.519,18.725,19.985,18.656
	c0.018-0.004,0.029-0.004,0.042-0.004c12.101-0.346,21.813-20.869,27.458-29.629c11.411-17.725,20.419-37.066,28.507-56.5
	c14.247-34.238,27.438-55.9,26.589-93.455C221.724,142.49,221.705,141.794,221.679,141.097"/>
<rect x="81.683" y="107.665" transform="matrix(1 -0.0034 0.0034 1 -0.4911 0.4945)" fill="#1E113B" width="126.13" height="73.13"/>
<path fill="#B08B60" d="M221.72,136.934c-0.015-0.677-0.037-1.357-0.063-2.034c-0.805-21.44-6.383-46.472-24.059-60.414
	c-10.908-8.607-24.366-8.927-37.72-9.679c-15.748-0.888-31.577-0.307-47.219,1.734c-19.493,2.544-37.057,15.98-43.148,35.355
	c-2.025,6.435-1.418,14.969-1.624,21.676c-0.227,7.363-0.147,14.738,0.227,22.096c0.487,9.566,1.48,19.11,2.969,28.571
	c0.752,4.777,1.634,9.533,2.636,14.264c6.142,28.914,16.285,43.578,28.561,70.367c5.55,12.105,11.642,24.291,19.682,34.951
	c4.464,5.92,11.203,18.252,19.437,18.186c0.015-0.004,0.027-0.004,0.04-0.004c11.767-0.34,21.212-20.346,26.701-28.883
	c11.097-17.283,19.859-36.139,27.723-55.084C209.719,194.661,222.547,173.543,221.72,136.934 M130.674,152.37
	c-0.199,0.75-0.84,1.364-1.592,1.728c-0.335,0.161-0.69,0.278-1.057,0.365c-0.457,0.111-0.931,0.171-1.403,0.215
	c-1.482,0.127-2.984,0.063-4.445-0.188c-2.011-0.349-3.36-2.051-1.142-3.194c1.853-0.952,4.445-1.949,6.626-1.836
	C129.343,149.546,131.111,150.697,130.674,152.37 M166.348,153.708c-0.197,1.376-1.699,1.642-2.768,1.972
	c-2.237,0.689-11.666,1.884-10.097-3.263c0.32-1.05,1.21-1.825,2.191-2.193c0.171-0.067,0.345-0.124,0.524-0.165
	c0.831-0.209,1.705-0.213,2.561-0.165c1.984,0.115,4.001,0.48,5.885,1.167C165.664,151.434,166.518,152.52,166.348,153.708"/>
<path fill="#FACB89" d="M214.415,147.236c0.978-21.432-3.551-49.154-21.896-63.63c-10.263-8.098-22.93-8.398-35.492-9.104
	c-14.821-0.835-33.759-1.949-48.476-0.027C90.21,76.867,79.762,89.97,74.027,108.2c-1.903,6.055-2.794,15.597-2.99,21.906
	c-0.212,6.931,0.659,13.31,1.011,20.233c2.441,47.809,22.439,83.625,44.25,124.983c4.295,8.145,13.162,28.803,23.354,30.85
	c9.941,1.996,24.103-26.594,28.469-35.445c17.663-35.787,28.091-54.695,39.815-90.149
	C211.993,168.309,213.792,160.923,214.415,147.236 M131.177,151.935c-0.227,0.963-0.969,1.746-1.838,2.212
	c-0.387,0.207-0.796,0.357-1.221,0.468c-0.53,0.142-1.077,0.22-1.624,0.272c-1.713,0.167-3.447,0.085-5.136-0.243
	c-2.329-0.447-3.886-2.629-1.322-4.092c2.142-1.215,5.14-2.492,7.66-2.348C129.643,148.313,131.685,149.79,131.177,151.935
	 M167.111,153.431c-0.205,1.362-1.776,1.625-2.895,1.953c-5.199,1.514-11.943,1.042-10.567-3.227
	c0.337-1.042,1.271-1.809,2.298-2.177c0.179-0.063,0.361-0.115,0.547-0.161c0.869-0.207,1.783-0.211,2.678-0.161
	c2.075,0.115,4.188,0.474,6.159,1.151C166.399,151.179,167.289,152.25,167.111,153.431"/>
<path fill="#B08B60" d="M89.268,141.456l45.637-18.324c5.001-2.009,10.598-1.905,15.521,0.291l45.041,20.081
	c0.553,0.245,0.262,1.082-0.322,0.93l-47.759-12.482c-3.039-0.794-6.221-0.856-9.29-0.186l-48.542,10.633
	C88.964,142.528,88.707,141.68,89.268,141.456"/>
<path fill="#896943" d="M135.431,181.843l12.659-0.042c4.92-0.017,8.922,3.977,8.94,8.919v0.721c0.013,2.773-2.22,5.033-4.985,5.041
	l-20.826,0.071c-2.761,0.013-5.009-2.23-5.017-5.007l-0.002-0.364C126.183,186.043,130.316,181.862,135.431,181.843"/>
<path fill="#50421A" d="M134.986,186.894l13.573-0.048c1.83-0.006,3.318,1.483,3.325,3.321l0.002,0.291
	c0.004,1.032-0.828,1.874-1.855,1.878l-16.615,0.054c-1.025,0.004-1.865-0.829-1.869-1.863v-0.154
	C131.541,188.456,133.082,186.9,134.986,186.894"/>
<path fill="#50421A" d="M73.807,145.976c0.004,1.099-0.877,1.991-1.973,1.995c-1.091,0.004-1.985-0.883-1.985-1.982
	c-0.004-1.097,0.877-1.991,1.973-1.995C72.915,143.992,73.803,144.875,73.807,145.976"/>
<path fill="#50421A" d="M218.276,147.223c0.005,1.124-0.858,2.042-1.925,2.045c-1.064,0.004-1.934-0.907-1.938-2.032
	c-0.004-1.126,0.859-2.043,1.926-2.045C217.405,145.187,218.272,146.097,218.276,147.223"/>
<path fill="#B08B60" d="M143.503,136.352l-51.717,7.768l51.464-9.307c0.424-0.08,0.826,0.203,0.904,0.629
	c0.074,0.422-0.204,0.831-0.629,0.906C143.52,136.349,143.51,136.352,143.503,136.352"/>
<path fill="#B08B60" d="M143.52,134.812l46.509,9.689l-46.8-8.154c-0.42-0.073-0.707-0.478-0.633-0.904
	c0.073-0.422,0.475-0.708,0.898-0.635C143.503,134.808,143.516,134.81,143.52,134.812"/>
<path fill="#50421A" d="M128.158,154.953c-0.495,0.132-1.011,0.207-1.522,0.257c-1.603,0.154-3.231,0.079-4.812-0.228
	c-2.183-0.419-3.647-2.467-1.241-3.834c2.006-1.143,4.817-2.339,7.18-2.202c1.821,0.103,3.736,1.483,3.264,3.494
	c-0.214,0.905-0.906,1.638-1.726,2.072C128.942,154.707,128.553,154.849,128.158,154.953"/>
<path fill="#50421A" d="M156.417,150.13c0.862-0.207,1.77-0.208,2.657-0.161c2.055,0.111,4.15,0.468,6.099,1.141
	c1.061,0.363,1.942,1.422,1.767,2.588c-0.203,1.347-1.76,1.606-2.869,1.928c-2.32,0.675-12.094,1.844-10.471-3.188
	c0.333-1.03,1.26-1.786,2.277-2.149C156.053,150.227,156.234,150.172,156.417,150.13"/>
<path fill="#7B6327" d="M133.697,167.872l17.656-0.061c1.007-0.004,1.707-1.322,1.369-2.576l-8.764-32.707
	c-0.445-1.648-2.189-1.726-2.714-0.117l-8.895,32.766C131.934,166.452,132.645,167.876,133.697,167.872"/>
<path fill="#896943" d="M136.92,165.829l11.33-0.04c0.646-0.002,1.092-1.069,0.875-2.084l-5.755-29.678
	c-0.287-1.339-1.405-1.402-1.743-0.098l-5.572,29.716C135.789,164.678,136.247,165.831,136.92,165.829"/>
<path fill="#896943" d="M108.973,135.877c5.556-2.648,11.245-4.844,16.977-6.901c2.871-1.004,5.747-2.005,8.643-2.93l4.415-1.381
	c1.781-0.499,3.701-0.547,5.502-0.102c0.969,0.231,1.641,0.526,2.357,0.756l2.154,0.75c1.43,0.505,2.877,0.984,4.3,1.524
	c2.847,1.067,5.714,2.091,8.535,3.236c5.668,2.229,11.292,4.584,16.79,7.318c-6.025-1.142-11.934-2.661-17.797-4.309
	c-2.939-0.794-5.842-1.707-8.758-2.578c-1.461-0.426-2.9-0.921-4.348-1.385l-2.17-0.704c-0.732-0.228-1.475-0.503-1.992-0.614
	c-1.156-0.249-2.366-0.251-3.518,0.052l-4.321,1.249c-2.923,0.837-5.872,1.598-8.82,2.352
	C121.012,133.678,115.061,135.004,108.973,135.877"/>
</svg>
