<svg width="800" height="500" xmlns="http://www.w3.org/2000/svg" viewBox="0 0 800 500">
  <defs>
    <linearGradient id="warmGlow" x1="0%" y1="0%" x2="100%" y2="100%">
      <stop offset="0%" style="stop-color:#FF6600;stop-opacity:0.3" />
      <stop offset="50%" style="stop-color:#FF3366;stop-opacity:0.2" />
      <stop offset="100%" style="stop-color:#FFB800;stop-opacity:0.3" />
    </linearGradient>
  </defs>
  <circle cx="400" cy="250" r="200" fill="url(#warmGlow)" />
  <g opacity="0.9">
    <ellipse cx="250" cy="200" rx="40" ry="50" fill="#FF6600" opacity="0.7" />
    <rect x="220" y="240" width="60" height="80" rx="10" fill="#FF6600" opacity="0.6" />
    <ellipse cx="400" cy="180" rx="40" ry="50" fill="#FF3366" opacity="0.7" />
    <rect x="370" y="220" width="60" height="90" rx="10" fill="#FF3366" opacity="0.6" />
    <ellipse cx="550" cy="200" rx="40" ry="50" fill="#FFB800" opacity="0.7" />
    <rect x="520" y="240" width="60" height="80" rx="10" fill="#FFB800" opacity="0.6" />
    <path d="M280 260 Q340 240 360 250" stroke="#FFF" stroke-width="3" fill="none" opacity="0.5" stroke-dasharray="5,5" />
    <path d="M440 260 Q480 240 510 260" stroke="#FFF" stroke-width="3" fill="none" opacity="0.5" stroke-dasharray="5,5" />
  </g>
  <g fill="#FFB800" opacity="0.8">
    <circle cx="300" cy="160" r="4" />
    <circle cx="450" cy="140" r="3" />
    <circle cx="500" cy="180" r="5" />
    <circle cx="350" cy="300" r="3" />
  </g>
</svg>
